SplineFontDB: 3.0
FontName: AsimovProBd
FullName: Asimov Pro Bold
FamilyName: Asimov Pro
Weight: Bold
Copyright: Font data copyright Google 2014, Design modifications and new weights 2015-2016, Cannot Into Space Fonts
Version: 2.000980; 2014
ItalicAngle: 0
UnderlinePosition: -97
UnderlineWidth: 48
Ascent: 750
Descent: 250
InvalidEm: 0
sfntRevision: 0x00010000
LayerCount: 2
Layer: 0 0 "Back" 1
Layer: 1 0 "Fore" 0
XUID: [1021 1014 1531800021 22137]
StyleMap: 0x0000
FSType: 0
OS2Version: 3
OS2_WeightWidthSlopeOnly: 0
OS2_UseTypoMetrics: 0
CreationTime: 1221222574
ModificationTime: 1467090233
PfmFamily: 81
TTFWeight: 700
TTFWidth: 5
LineGap: 0
VLineGap: 0
Panose: 0 0 0 0 0 0 0 0 0 0
OS2TypoAscent: 750
OS2TypoAOffset: 0
OS2TypoDescent: -250
OS2TypoDOffset: 0
OS2TypoLinegap: 50
OS2WinAscent: 950
OS2WinAOffset: 0
OS2WinDescent: 250
OS2WinDOffset: 0
HheadAscent: 928
HheadAOffset: 0
HheadDescent: -244
HheadDOffset: 0
OS2SubXSize: 700
OS2SubYSize: 650
OS2SubXOff: 0
OS2SubYOff: 140
OS2SupXSize: 700
OS2SupYSize: 650
OS2SupXOff: 0
OS2SupYOff: 477
OS2StrikeYSize: 50
OS2StrikeYPos: 250
OS2CapHeight: 1456
OS2XHeight: 1082
OS2Vendor: 'pyrs'
OS2CodePages: 2000019f.4f010000
OS2UnicodeRanges: e00002ff.5000205b.00000020.00000000
Lookup: 1 0 0 "<3,3> Small Caps in Latin lookup 0" { "<3,3> Small Caps in Latin lookup 0 subtable"  } [<3,3> ('latn' <'dflt' > ) 'smcp' ('latn' <'dflt' > ) ]
Lookup: 4 0 1 "<1,2> Common Ligatures in Latin lookup 1" { "<1,2> Common Ligatures in Latin lookup 1 subtable"  } [<1,2> ('latn' <'dflt' > ) 'liga' ('latn' <'dflt' > ) ]
Lookup: 1 0 0 "<21,0> Lower Case Numbers lookup 2" { "<21,0> Lower Case Numbers lookup 2 subtable" ("oldstyle") } [<21,0> ('DFLT' <'dflt' > ) 'onum' ('DFLT' <'dflt' > ) ]
Lookup: 258 0 0 "'kern' Horizontal Kerning lookup 0" { "'kern' Horizontal Kerning lookup 0 subtable"  } ['kern' ('DFLT' <'dflt' > 'cyrl' <'dflt' > 'grek' <'dflt' > 'latn' <'dflt' > ) ]

StartChar: exclam
Encoding: 33 33 5
Width: 214
Flags: MW
HStem: -8 149<83.5 130.5> 691 20G<32 182 182 182>
VStem: 29 157<43 89.5> 49 117<218 218>
LayerCount: 2
Fore
SplineSet
29 66 m 0xe0
 29 113 60 141 107 141 c 0
 155 141 186 113 186 66 c 0
 186 19 154 -8 107 -8 c 0
 60 -8 29 20 29 66 c 0xe0
32 711 m 1
 182 711 l 1
 166 218 l 1
 49 218 l 1xd0
 32 711 l 1
EndSplineSet
EndChar

StartChar: quotedbl
Encoding: 34 34 6
Width: 318
Flags: MW
HStem: 482 268<93 93 252 252>
VStem: 32 99<551 750 750 750> 191 99<551 750 750 750>
LayerCount: 2
Fore
SplineSet
32 551 m 1
 32 750 l 1
 131 750 l 1
 93 482 l 1
 32 551 l 1
191 551 m 1
 191 750 l 1
 290 750 l 1
 252 482 l 1
 191 551 l 1
EndSplineSet
EndChar

StartChar: numbersign
Encoding: 35 35 7
Width: 591
Flags: MW
HStem: 0 21G<99 188 99 99 282 372 282 282> 200 84<23 148 23 134 23 223 238 317 421 531> 423 85<60 173 60 188 60 262 277 356 461 568> 691 20G<224 312 312 312 407 497 497 497>
LayerCount: 2
Fore
SplineSet
23 200 m 1
 23 284 l 1
 148 284 l 1
 173 423 l 1
 60 423 l 1
 60 508 l 1
 188 508 l 1
 224 711 l 1
 312 711 l 1
 277 508 l 1
 372 508 l 1
 407 711 l 1
 497 711 l 1
 461 508 l 1
 568 508 l 1
 568 423 l 1
 446 423 l 1
 421 284 l 1
 531 284 l 1
 531 200 l 1
 407 200 l 1
 372 0 l 1
 282 0 l 1
 317 200 l 1
 223 200 l 1
 188 0 l 1
 99 0 l 1
 134 200 l 1
 23 200 l 1
238 284 m 1
 332 284 l 1
 356 423 l 1
 262 423 l 1
 238 284 l 1
EndSplineSet
EndChar

StartChar: dollar
Encoding: 36 36 8
Width: 528
Flags: MW
HStem: -8 111<231 297 232.5 309>
VStem: 21 141<203.5 223> 48 141<506.5 549 499.5 568> 231 78<-59 -8 -105 -8> 241 78<719 778 718 824 718 824> 362 141<159.5 221.5 491 525>
LayerCount: 2
Fore
SplineSet
21 223 m 1xd4
 162 223 l 1xd4
 162 148 196 103 269 103 c 0
 325 103 362 132 362 187 c 0
 362 256 312 277 260 296 c 0
 176 327 98 362 64 440 c 0
 54 463 48 491 48 522 c 0xa4
 48 614 97 670 162 699 c 0xc4
 186 710 212 716 241 719 c 1
 241 824 l 1
 319 778 l 1
 319 718 l 1
 433 702 503 621 503 491 c 1
 362 491 l 1
 362 559 335 607 273 607 c 0
 219 607 189 576 189 522 c 0xac
 189 477 212 456 242 439 c 0
 280 418 339 397 377 377 c 0
 446 342 503 290 503 188 c 0
 503 65 419 5 309 -8 c 1
 309 -105 l 1
 231 -59 l 1
 231 -8 l 1
 136 1 70 47 38 123 c 0
 26 151 21 184 21 223 c 1xd4
EndSplineSet
EndChar

StartChar: percent
Encoding: 37 37 9
Width: 697
Flags: MW
HStem: -10 81<501.5 532.5> 239 82<506.5 538.5> 391 81<159.5 191.5> 640 81<165.5 197.5>
VStem: 24 94<537 574 517.5 609> 239 94<537 574 502.5 593.5> 364 94<136 174 117.5 209.5> 579 94<136 174 101 193.5>
LayerCount: 2
Fore
SplineSet
24 537 m 2
 24 574 l 2
 24 644 61 690 112 710 c 0
 131 718 153 721 178 721 c 0
 272 721 333 666 333 574 c 2
 333 537 l 2
 333 468 297 422 246 402 c 0
 227 394 204 391 179 391 c 0
 104 391 55 426 34 480 c 0
 27 498 24 517 24 537 c 2
118 537 m 2
 118 498 140 472 179 472 c 0
 218 472 239 499 239 537 c 2
 239 574 l 2
 239 613 217 640 178 640 c 0
 140 640 118 612 118 574 c 2
 118 537 l 2
138 90 m 1
 485 646 l 1
 554 609 l 1
 207 53 l 1
 138 90 l 1
364 136 m 2
 364 174 l 2
 364 245 401 288 452 309 c 0
 471 317 494 321 519 321 c 0
 613 321 673 266 673 174 c 2
 673 136 l 2
 673 66 637 22 586 1 c 0
 567 -7 545 -10 520 -10 c 0
 426 -10 364 44 364 136 c 2
458 136 m 2
 458 99 483 71 520 71 c 0
 561 71 579 95 579 136 c 2
 579 174 l 2
 579 213 558 239 519 239 c 0
 479 239 458 213 458 174 c 2
 458 136 l 2
EndSplineSet
EndChar

StartChar: ampersand
Encoding: 38 38 10
Width: 652
Flags: MW
HStem: -10 114<233 279 233 293> 0 21G<472 633 472 472> 607 114<263.5 295.5>
VStem: 23 141<176.5 220 170 226> 84 126<528.5 557 528.5 579> 342 117<525.5 564>
LayerCount: 2
Fore
SplineSet
23 191 m 0xb4
 23 261 59 303 99 336 c 0
 115 349 133 363 152 376 c 1
 131 404 114 431 102 456 c 0
 90 481 84 507 84 534 c 0
 84 624 131 683 198 708 c 0
 222 717 249 721 278 721 c 0
 362 721 421 678 446 619 c 0
 454 599 459 578 459 555 c 0
 459 477 411 431 364 398 c 2
 319 366 l 1
 441 223 l 1
 469 254 487 282 498 315 c 1
 612 311 l 1
 603 234 568 180 526 124 c 1
 633 0 l 1
 472 0 l 1x6c
 436 42 l 1
 387 10 331 -10 255 -10 c 0
 148 -10 71 35 39 110 c 0
 28 135 23 162 23 191 c 0xb4
164 199 m 0xb4
 164 141 204 104 262 104 c 0
 296 104 328 113 358 132 c 1
 218 294 l 1
 208 287 l 2
 184 266 164 241 164 199 c 0xb4
210 536 m 0x2c
 210 521 214 507 222 492 c 0
 230 477 240 460 253 443 c 1
 291 468 l 2
 317 486 342 505 342 546 c 0
 342 582 314 607 277 607 c 0
 234 607 210 578 210 536 c 0x2c
EndSplineSet
EndChar

StartChar: quotesingle
Encoding: 39 39 11
Width: 159
Flags: MW
HStem: 482 268<93 93>
VStem: 32 99<551 750 750 750>
LayerCount: 2
Fore
SplineSet
32 551 m 1
 32 750 l 1
 131 750 l 1
 93 482 l 1
 32 551 l 1
EndSplineSet
EndChar

StartChar: parenleft
Encoding: 40 40 12
Width: 317
Flags: MW
VStem: 26 119<278 289 289 290 200 377.5>
LayerCount: 2
Fore
SplineSet
26 278 m 2
 26 289 l 2
 26 466 77 603 157 699 c 0
 188 736 226 770 269 789 c 1
 297 713 l 1
 223 657 181 563 159 449 c 0
 150 402 145 349 145 290 c 2
 145 277 l 2
 145 123 177 -6 242 -91 c 0
 260 -114 278 -133 297 -147 c 1
 269 -222 l 1
 197 -190 145 -126 106 -57 c 0
 57 29 26 143 26 278 c 2
EndSplineSet
EndChar

StartChar: parenright
Encoding: 41 41 13
Width: 323
Flags: MW
VStem: 170 127<277 278 278 289 190 290 190 367>
LayerCount: 2
Fore
SplineSet
20 -147 m 1
 124 -66 170 88 170 277 c 2
 170 290 l 2
 170 444 138 572 73 658 c 0
 55 682 37 701 20 714 c 1
 47 789 l 1
 121 757 174 690 214 620 c 0
 263 534 297 424 297 289 c 2
 297 278 l 2
 297 102 241 -33 162 -130 c 0
 131 -168 92 -203 47 -222 c 1
 20 -147 l 1
EndSplineSet
EndChar

StartChar: asterisk
Encoding: 42 42 14
Width: 479
Flags: MW
HStem: 691 20G<193 289 289 289>
LayerCount: 2
Fore
SplineSet
22 513 m 1
 51 602 l 1
 203 541 l 1
 193 711 l 1
 289 711 l 1
 279 537 l 1
 427 597 l 1
 456 508 l 1
 300 464 l 1
 402 334 l 1
 324 279 l 1
 236 422 l 1
 148 284 l 1
 70 337 l 1
 176 470 l 1
 22 513 l 1
EndSplineSet
EndChar

StartChar: plus
Encoding: 43 43 15
Width: 546
Flags: MW
HStem: 271 127<29 206 29 206 340 516>
VStem: 206 134<71 271 71 271 398 589>
LayerCount: 2
Fore
SplineSet
29 271 m 1
 29 398 l 1
 206 398 l 1
 206 589 l 1
 340 589 l 1
 340 398 l 1
 516 398 l 1
 516 271 l 1
 340 271 l 1
 340 71 l 1
 206 71 l 1
 206 271 l 1
 29 271 l 1
EndSplineSet
EndChar

StartChar: comma
Encoding: 44 44 16
Width: 229
Flags: MW
HStem: -178 298<100 100>
VStem: 77 119<17 24 -9.5 120 -9.5 120>
LayerCount: 2
Fore
SplineSet
26 -140 m 1
 50 -94 77 -53 77 17 c 2
 77 120 l 1
 197 120 l 1
 196 24 l 2
 196 -43 169 -96 139 -136 c 0
 127 -152 114 -166 100 -178 c 1
 26 -140 l 1
EndSplineSet
EndChar

StartChar: hyphen
Encoding: 45 45 17
Width: 346
Flags: MW
HStem: 248 113<35 310 35 310>
VStem: 35 275<248 361 248 361>
LayerCount: 2
Fore
SplineSet
35 248 m 1
 35 361 l 1
 310 361 l 1
 310 248 l 1
 35 248 l 1
EndSplineSet
EndChar

StartChar: period
Encoding: 46 46 18
Width: 222
Flags: MW
HStem: -5 150<87.5 134.5>
VStem: 32 159<46 92>
LayerCount: 2
Fore
SplineSet
32 69 m 0
 32 115 64 145 111 145 c 0
 158 145 191 116 191 69 c 0
 191 22 158 -5 111 -5 c 0
 64 -5 32 23 32 69 c 0
EndSplineSet
EndChar

StartChar: slash
Encoding: 47 47 19
Width: 405
Flags: MW
HStem: 691 20G<279 384 384 384>
LayerCount: 2
Fore
SplineSet
18 -61 m 1
 279 711 l 1
 384 711 l 1
 123 -61 l 1
 18 -61 l 1
EndSplineSet
EndChar

StartChar: zero
Encoding: 48 48 20
Width: 537
Flags: MW
HStem: -10 114<225.5 310.5 225.5 355> 606 115<249 310>
VStem: 27 142<294 417 417 438> 367 141<275 294 294 417 205 438>
LayerCount: 2
Fore
SplineSet
27 294 m 2
 27 417 l 2
 27 560 70 664 169 704 c 0
 198 716 231 721 267 721 c 0
 392 721 461 654 491 555 c 0
 503 517 508 471 508 417 c 2
 508 294 l 2
 508 116 442 -10 268 -10 c 0
 142 -10 76 58 45 157 c 0
 33 195 27 241 27 294 c 2
169 275 m 2
 169 186 183 104 268 104 c 0
 353 104 367 186 367 275 c 2
 367 438 l 2
 367 527 353 606 267 606 c 0
 183 606 169 526 169 438 c 2
 169 275 l 2
EndSplineSet
Substitution2: "<21,0> Lower Case Numbers lookup 2 subtable" zero.onum
EndChar

StartChar: one
Encoding: 49 49 21
Width: 350
Flags: MW
HStem: 0 21G<172 313 172 172> 692 20G<166 313 313 313>
VStem: 172 141<0 564 564 564>
LayerCount: 2
Fore
SplineSet
24 468 m 1
 24 605 l 1
 166 712 l 1
 313 712 l 1
 313 0 l 1
 172 0 l 1
 172 564 l 1
 24 468 l 1
EndSplineSet
Substitution2: "<21,0> Lower Case Numbers lookup 2 subtable" one.onum
EndChar

StartChar: two
Encoding: 50 50 22
Width: 548
Flags: MW
HStem: 0 114<219 525 219 525> 607 114<251 298>
VStem: 23 142<487 522 487 542.5> 360 142<491.5 534.5 491 535.5>
LayerCount: 2
Fore
SplineSet
23 487 m 1
 23 598 86 669 167 702 c 0
 197 714 232 721 270 721 c 0
 380 721 455 681 487 604 c 0
 497 579 502 550 502 519 c 0
 502 463 483 422 459 384 c 0
 428 334 387 290 344 246 c 2
 219 114 l 1
 525 114 l 1
 525 0 l 1
 37 0 l 1
 37 97 l 1
 267 342 l 2
 296 373 321 403 340 437 c 0
 352 458 360 478 360 505 c 0
 360 566 328 607 268 607 c 0
 199 607 165 557 165 487 c 1
 23 487 l 1
EndSplineSet
Substitution2: "<21,0> Lower Case Numbers lookup 2 subtable" two.onum
EndChar

StartChar: three
Encoding: 51 51 23
Width: 540
Flags: MW
HStem: -10 114<238.5 282> 308 110<183 258 183 258> 527 21G<31 172 31 31> 607 114<248 297>
VStem: 364 141<489 534.5 489 545.5> 375 141<169.5 238>
LayerCount: 2
Fore
SplineSet
22 195 m 1xf8
 163 195 l 1
 163 138 210 104 267 104 c 0
 330 104 375 138 375 201 c 0xf4
 375 275 331 308 258 308 c 2
 183 308 l 1
 183 418 l 1
 258 418 l 2
 325 418 364 453 364 516 c 0
 364 575 327 607 267 607 c 0
 214 607 172 580 172 527 c 1
 31 527 l 1
 31 626 97 682 173 707 c 0
 201 716 232 721 264 721 c 0
 374 721 452 681 487 606 c 0
 499 581 505 551 505 518 c 0xf8
 505 460 476 422 443 394 c 0
 430 383 414 373 397 365 c 1
 468 340 516 288 516 199 c 0xf4
 516 91 448 30 364 4 c 0
 333 -5 300 -10 264 -10 c 0
 159 -10 81 34 43 103 c 0
 29 129 22 160 22 195 c 1xf8
EndSplineSet
Substitution2: "<21,0> Lower Case Numbers lookup 2 subtable" three.onum
EndChar

StartChar: four
Encoding: 52 52 24
Width: 561
Flags: MW
HStem: 0 21G<316 457 316 316> 154 114<158 316 158 316 457 537> 691 20G<314 457 457 457>
VStem: 316 141<0 154 0 154 268 528 528 528>
LayerCount: 2
Fore
SplineSet
24 154 m 1
 24 256 l 1
 314 711 l 1
 457 711 l 1
 457 268 l 1
 537 268 l 1
 537 154 l 1
 457 154 l 1
 457 0 l 1
 316 0 l 1
 316 154 l 1
 24 154 l 1
158 268 m 1
 316 268 l 1
 316 528 l 1
 158 268 l 1
EndSplineSet
Substitution2: "<21,0> Lower Case Numbers lookup 2 subtable" four.onum
EndChar

StartChar: five
Encoding: 53 53 25
Width: 527
Flags: MW
HStem: -10 114<232 282.5> 361 106<263.5 285.5> 593 118<196 479 196 196>
VStem: 361 141<199.5 274.5>
LayerCount: 2
Fore
SplineSet
21 198 m 1
 161 198 l 1
 166 142 202 104 262 104 c 0
 335 104 361 163 361 236 c 0
 361 313 324 361 247 361 c 0
 201 361 174 344 152 322 c 1
 39 350 l 1
 80 711 l 1
 479 711 l 1
 479 593 l 1
 196 593 l 1
 178 440 l 1
 205 455 242 467 285 467 c 0
 430 467 502 373 502 228 c 0
 502 117 448 44 368 10 c 0
 338 -3 303 -10 262 -10 c 0
 157 -10 81 40 44 110 c 0
 30 136 22 165 21 198 c 1
EndSplineSet
Substitution2: "<21,0> Lower Case Numbers lookup 2 subtable" five.onum
EndChar

StartChar: six
Encoding: 54 54 26
Width: 541
Flags: MW
HStem: -10 114<265.5 294.5> 362 114<244 366> 602 116<388 400 400 408>
VStem: 26 141<273 297 220.5 328 220.5 418.5> 375 141<223.5 250.5 176.5 262.5>
LayerCount: 2
Fore
SplineSet
26 273 m 2
 26 328 l 2
 26 509 106 636 235 690 c 0
 280 709 331 718 388 718 c 2
 408 718 l 1
 408 602 l 1
 400 602 l 2
 266 602 186 534 170 417 c 1
 202 449 250 476 313 476 c 0
 419 476 478 410 503 328 c 0
 512 299 516 267 516 234 c 0
 516 119 457 44 375 9 c 0
 346 -4 313 -10 276 -10 c 0
 151 -10 75 63 43 158 c 0
 31 193 26 231 26 273 c 2
167 254 m 2
 167 187 186 135 230 114 c 0
 243 108 258 104 273 104 c 0
 326 104 354 141 367 182 c 0
 372 198 375 214 375 233 c 0
 375 292 352 334 313 353 c 0
 300 359 286 362 270 362 c 0
 218 362 184 333 167 297 c 1
 167 254 l 2
EndSplineSet
EndChar

StartChar: seven
Encoding: 55 55 27
Width: 551
Flags: MW
HStem: 0 21G<102 251 102 102> 597 114<24 526 24 377>
LayerCount: 2
Fore
SplineSet
24 597 m 1
 24 711 l 1
 526 711 l 1
 526 632 l 1
 251 0 l 1
 102 0 l 1
 377 597 l 1
 24 597 l 1
EndSplineSet
Substitution2: "<21,0> Lower Case Numbers lookup 2 subtable" seven.onum
EndChar

StartChar: eight
Encoding: 56 56 28
Width: 528
Flags: MW
HStem: -10 114<234 282.5> 307 114<238 292 238 295.5> 607 114<248.5 292>
VStem: 24 142<178 236.5 174 238> 40 141<487.5 543 487.5 573> 349 141<487.5 538 483.5 542.5> 363 142<174 236.5>
LayerCount: 2
Fore
SplineSet
24 195 m 0xf2
 24 281 75 337 136 366 c 1
 83 394 40 445 40 522 c 0
 40 624 96 683 174 708 c 0
 201 717 232 721 265 721 c 0
 368 721 442 679 474 607 c 0
 485 582 490 554 490 522 c 0xec
 490 445 446 394 393 366 c 1
 455 336 505 282 505 195 c 0
 505 88 444 28 361 3 c 0
 332 -6 300 -10 265 -10 c 0
 156 -10 78 32 42 106 c 0
 30 131 24 161 24 195 c 0xf2
166 205 m 0xf2
 166 143 203 104 265 104 c 0
 327 104 363 143 363 205 c 0
 363 268 327 307 264 307 c 0
 202 307 166 268 166 205 c 0xf2
181 515 m 0xec
 181 460 211 421 265 421 c 0
 319 421 349 460 349 515 c 0
 349 570 319 607 265 607 c 0
 210 607 181 571 181 515 c 0xec
EndSplineSet
EndChar

StartChar: nine
Encoding: 57 57 29
Width: 530
Flags: MW
HStem: -7 118<130 140 140 141 130 140> 230 108<230 259.5> 607 114<244.5 269>
VStem: 24 141<452 505 435 526.5> 362 141<398 431 289 456 289 489.5>
LayerCount: 2
Fore
SplineSet
24 469 m 0
 24 584 83 664 164 701 c 0
 193 714 226 721 263 721 c 0
 386 721 456 646 486 550 c 0
 497 514 503 474 503 431 c 2
 503 381 l 2
 503 197 432 75 300 21 c 0
 255 2 202 -7 141 -7 c 2
 130 -7 l 1
 130 111 l 1
 140 111 l 2
 271 111 351 163 360 284 c 1
 331 255 287 230 232 230 c 0
 126 230 63 292 38 374 c 0
 29 403 24 435 24 469 c 0
165 471 m 0
 165 399 194 338 266 338 c 0
 312 338 347 366 362 398 c 1
 362 456 l 2
 362 523 345 576 302 598 c 0
 290 604 276 607 262 607 c 0
 194 607 165 539 165 471 c 0
EndSplineSet
Substitution2: "<21,0> Lower Case Numbers lookup 2 subtable" nine.onum
EndChar

StartChar: colon
Encoding: 58 58 30
Width: 219
Flags: MW
HStem: -5 150<86.5 133.5> 395 150<86.5 133.5>
VStem: 31 159<46 92 446 492>
LayerCount: 2
Fore
SplineSet
31 69 m 0
 31 115 63 145 110 145 c 0
 157 145 190 116 190 69 c 0
 190 22 157 -5 110 -5 c 0
 63 -5 31 23 31 69 c 0
31 469 m 0
 31 515 63 545 110 545 c 0
 157 545 190 516 190 469 c 0
 190 422 157 395 110 395 c 0
 63 395 31 423 31 469 c 0
EndSplineSet
EndChar

StartChar: semicolon
Encoding: 59 59 31
Width: 234
Flags: MW
HStem: 395 150<102.5 149.5>
VStem: 47 159<446 492> 73 119<17 24 -9.5 120 -9.5 120>
LayerCount: 2
Fore
SplineSet
22 -140 m 1xa0
 46 -94 73 -53 73 17 c 2
 73 120 l 1
 193 120 l 1
 192 24 l 2
 192 -43 164 -96 134 -136 c 0
 122 -152 110 -166 96 -178 c 1
 22 -140 l 1xa0
47 469 m 0xc0
 47 515 79 545 126 545 c 0
 173 545 206 516 206 469 c 0
 206 422 173 395 126 395 c 0
 79 395 47 423 47 469 c 0xc0
EndSplineSet
EndChar

StartChar: less
Encoding: 60 60 32
Width: 484
Flags: MW
HStem: 519 20G<451 451>
LayerCount: 2
Fore
SplineSet
30 245 m 1
 30 360 l 1
 451 539 l 1
 451 402 l 1
 172 302 l 1
 451 204 l 1
 451 67 l 1
 30 245 l 1
EndSplineSet
EndChar

StartChar: equal
Encoding: 61 61 33
Width: 510
Flags: MW
HStem: 153 115<36 473 36 473> 364 115<36 473 36 473>
LayerCount: 2
Fore
SplineSet
36 153 m 1
 36 268 l 1
 473 268 l 1
 473 153 l 1
 36 153 l 1
36 364 m 1
 36 479 l 1
 473 479 l 1
 473 364 l 1
 36 364 l 1
EndSplineSet
EndChar

StartChar: greater
Encoding: 62 62 34
Width: 490
Flags: MW
HStem: 518 20G<34 34>
LayerCount: 2
Fore
SplineSet
34 66 m 1
 34 203 l 1
 317 303 l 1
 34 402 l 1
 34 538 l 1
 459 360 l 1
 459 245 l 1
 34 66 l 1
EndSplineSet
EndChar

StartChar: question
Encoding: 63 63 35
Width: 484
Flags: MW
HStem: -6 150<213 255.5> 605 116<217 268.5>
VStem: 153 158<62.5 91> 167 125<218 250> 318 142<517 550>
LayerCount: 2
Fore
SplineSet
20 522 m 1xd8
 20 654 111 721 242 721 c 0
 373 721 460 659 460 529 c 0
 460 483 444 450 424 422 c 0
 401 389 370 363 340 335 c 0
 318 314 300 290 295 253 c 0
 294 242 293 231 292 218 c 1
 167 218 l 1
 167 282 178 330 206 366 c 0
 238 407 293 437 312 490 c 0
 316 500 318 511 318 523 c 0
 318 577 295 605 242 605 c 0
 192 605 162 573 162 522 c 1
 20 522 l 1xd8
153 68 m 0xe8
 153 114 186 144 232 144 c 0
 279 144 311 115 311 68 c 0
 311 21 279 -6 232 -6 c 0
 194 -6 171 13 159 39 c 0
 155 48 153 57 153 68 c 0xe8
EndSplineSet
EndChar

StartChar: at
Encoding: 64 64 36
Width: 864
Flags: MW
HStem: -221 85<397.528 453.528 397.528 456.028> -10 78<620.528 637.028> -9 88<383.028 408.528> 397 86<451.528 482.028> 612 79<424.528 522.028 424.528 535.028>
VStem: 26.5283 96
LayerCount: 2
Fore
SplineSet
26.5283203125 226 m 0xdc
 34.5283203125 436 132.528320312 587 283.528320312 656 c 0
 334.528320312 679 392.528320312 691 456.528320312 691 c 0
 587.528320312 691 683.528320312 644 746.528320312 573 c 0
 809.528320312 501 844.528320312 396 838.528320312 262 c 0
 834.528320312 137 786.528320312 36 691.528320312 1 c 0
 671.528320312 -6 649.528320312 -10 624.528320312 -10 c 0xdc
 565.528320312 -10 525.528320312 17 506.528320312 60 c 1
 479.528320312 22 438.528320312 -9 378.528320312 -9 c 0xbc
 267.528320312 -9 229.528320312 93 238.528320312 210 c 1
 251.528320312 325 299.528320312 422 384.528320312 464 c 0
 410.528320312 477 437.528320312 483 465.528320312 483 c 0
 537.528320312 483 574.528320312 459 615.528320312 430 c 1
 590.528320312 148 l 2
 584.528320312 102 598.528320312 68 642.528320312 68 c 0
 680.528320312 68 702.528320312 97 718.528320312 124 c 0
 755.528320312 189 759.528320312 319 738.528320312 404 c 0
 706.528320312 533 615.528320312 612 454.528320312 612 c 0
 345.528320312 612 268.528320312 565 216.528320312 503 c 0
 161.528320312 437 127.528320312 340 122.528320312 226 c 0
 114.528320312 54 169.528320312 -63 289.528320312 -112 c 0
 328.528320312 -128 372.528320312 -136 422.528320312 -136 c 0
 484.528320312 -136 540.528320312 -122 584.528320312 -103 c 1
 602.528320312 -178 l 1
 558.528320312 -207 491.528320312 -221 420.528320312 -221 c 0
 148.528320312 -221 16.5283203125 -53 26.5283203125 226 c 0xdc
347.528320312 210 m 0
 342.528320312 141 353.528320312 79 412.528320312 79 c 0xbc
 459.528320312 79 479.528320312 123 493.528320312 160 c 1
 513.528320312 391 l 1
 501.528320312 395 489.528320312 397 474.528320312 397 c 0
 383.528320312 397 356.528320312 306 347.528320312 210 c 0
EndSplineSet
EndChar

StartChar: A
Encoding: 65 65 37
Width: 708
Flags: MW
HStem: 0 21G<20 20 20 176 531 531 531 687> 146 119<265 442 265 482 225 442> 691 20G<285 421 421 421>
LayerCount: 2
Fore
SplineSet
20 0 m 1
 285 711 l 1
 421 711 l 1
 687 0 l 1
 531 0 l 1
 482 146 l 1
 225 146 l 1
 176 0 l 1
 20 0 l 1
265 265 m 1
 442 265 l 1
 353 531 l 1
 265 265 l 1
EndSplineSet
Substitution2: "<3,3> Small Caps in Latin lookup 0 subtable" A.smcp
EndChar

StartChar: B
Encoding: 66 66 38
Width: 595
Flags: MW
HStem: 0 118<182 307 182 307> 310 103<182 290 182 313 182 290> 592 119<182 284 182 182>
VStem: 35 147<118 118 118 310 413 592> 401 147<477 532.5 477 536> 417 147<178.5 244>
LayerCount: 2
Fore
SplineSet
35 0 m 1xf4
 35 711 l 1
 284 711 l 2
 402 711 491 680 530 602 c 0
 542 578 548 549 548 516 c 0xf8
 548 438 504 388 446 366 c 1
 516 348 564 295 564 209 c 0
 564 62 460 0 307 0 c 2
 35 0 l 1xf4
182 118 m 1
 307 118 l 2
 372 118 417 147 417 210 c 0xf4
 417 278 382 310 313 310 c 2
 182 310 l 1
 182 118 l 1
182 413 m 1
 290 413 l 2
 356 414 401 438 401 501 c 0xf8
 401 571 357 592 284 592 c 2
 182 592 l 1
 182 413 l 1
EndSplineSet
Substitution2: "<3,3> Small Caps in Latin lookup 0 subtable" B.smcp
EndChar

StartChar: C
Encoding: 67 67 39
Width: 639
Flags: MW
HStem: -10 120<261.5 343> 601 120<300.5 369>
VStem: 28 148<332 378 378 379 271.5 457> 461 147<237 237>
LayerCount: 2
Fore
SplineSet
28 332 m 2
 28 378 l 2
 28 536 92 649 202 697 c 0
 238 713 278 721 323 721 c 0
 496 721 592 625 609 470 c 1
 462 470 l 1
 457 556 415 601 323 601 c 0
 208 601 176 507 176 379 c 2
 176 332 l 2
 176 211 202 110 321 110 c 0
 412 110 456 152 461 237 c 1
 608 237 l 1
 599 118 534 42 438 8 c 0
 404 -4 365 -10 321 -10 c 0
 171 -10 85 75 48 190 c 0
 34 232 28 279 28 332 c 2
EndSplineSet
Substitution2: "<3,3> Small Caps in Latin lookup 0 subtable" C.smcp
EndChar

StartChar: D
Encoding: 68 68 40
Width: 613
Flags: MW
HStem: 0 118<182 253 182 253> 592 119<182 254 182 182>
VStem: 35 147<118 118 118 592> 430 149<339 371 258.5 372 258.5 438>
LayerCount: 2
Fore
SplineSet
35 0 m 1
 35 711 l 1
 254 711 l 2
 412 711 510 626 555 510 c 0
 571 468 579 422 579 371 c 2
 579 339 l 2
 579 178 501 71 385 24 c 0
 345 8 301 0 253 0 c 2
 35 0 l 1
182 118 m 1
 253 118 l 2
 378 118 430 208 430 339 c 2
 430 372 l 2
 430 504 380 592 254 592 c 2
 182 592 l 1
 182 118 l 1
EndSplineSet
Substitution2: "<3,3> Small Caps in Latin lookup 0 subtable" D.smcp
EndChar

StartChar: E
Encoding: 69 69 41
Width: 541
Flags: MW
HStem: 0 118<182 512 182 512> 308 115<182 463 182 463> 592 119<182 511 182 182>
VStem: 35 147<118 308 423 592>
LayerCount: 2
Fore
SplineSet
35 0 m 1
 35 711 l 1
 511 711 l 1
 511 592 l 1
 182 592 l 1
 182 423 l 1
 463 423 l 1
 463 308 l 1
 182 308 l 1
 182 118 l 1
 512 118 l 1
 512 0 l 1
 35 0 l 1
EndSplineSet
Substitution2: "<3,3> Small Caps in Latin lookup 0 subtable" E.smcp
EndChar

StartChar: F
Encoding: 70 70 42
Width: 523
Flags: MW
HStem: 0 21G<35 35 35 182> 291 118<182 463 182 463> 592 119<182 498 182 182>
VStem: 35 147<0 291 409 592>
LayerCount: 2
Fore
SplineSet
35 0 m 1
 35 711 l 1
 498 711 l 1
 498 592 l 1
 182 592 l 1
 182 409 l 1
 463 409 l 1
 463 291 l 1
 182 291 l 1
 182 0 l 1
 35 0 l 1
EndSplineSet
Substitution2: "<3,3> Small Caps in Latin lookup 0 subtable" F.smcp
EndChar

StartChar: G
Encoding: 71 71 43
Width: 645
Flags: MW
HStem: -10 118<282.5 366.5> 266 108<328 461 328 608> 603 118<303.5 372>
VStem: 28 149<334 376 376 377 268 457> 461 147<143 266 266 266>
LayerCount: 2
Fore
SplineSet
28 334 m 2
 28 376 l 2
 28 538 89 650 203 698 c 0
 240 713 281 721 326 721 c 0
 497 721 590 637 608 485 c 1
 465 485 l 1
 454 558 414 603 330 603 c 0
 214 603 177 504 177 377 c 2
 177 334 l 2
 177 202 221 108 344 108 c 0
 392 108 440 117 461 143 c 1
 461 266 l 1
 328 266 l 1
 328 374 l 1
 608 374 l 1
 608 90 l 1
 608 -5 l 1
 497 -5 l 1
 497 16 l 1
 451 -1 397 -10 336 -10 c 0
 183 -10 90 72 50 188 c 0
 35 230 28 279 28 334 c 2
EndSplineSet
Substitution2: "<3,3> Small Caps in Latin lookup 0 subtable" G.smcp
EndChar

StartChar: H
Encoding: 72 72 44
Width: 607
Flags: MW
HStem: 0 21G<35 35 35 182 421 421 421 567> 302 125<182 421 182 421> 691 20G<35 182 182 182 421 567 567 567>
VStem: 35 147<0 302 427 711> 421 146<0 302 302 302 427 711 0 711>
LayerCount: 2
Fore
SplineSet
35 0 m 1
 35 711 l 1
 182 711 l 1
 182 427 l 1
 421 427 l 1
 421 711 l 1
 567 711 l 1
 567 0 l 1
 421 0 l 1
 421 302 l 1
 182 302 l 1
 182 0 l 1
 35 0 l 1
EndSplineSet
Substitution2: "<3,3> Small Caps in Latin lookup 0 subtable" H.smcp
EndChar

StartChar: I
Encoding: 73 73 45
Width: 221
Flags: MW
HStem: 0 21G<35 35 35 181> 691 20G<35 181 181 181>
VStem: 35 146<0 711 0 711>
LayerCount: 2
Fore
SplineSet
35 0 m 1
 35 711 l 1
 181 711 l 1
 181 0 l 1
 35 0 l 1
EndSplineSet
Substitution2: "<3,3> Small Caps in Latin lookup 0 subtable" I.smcp
EndChar

StartChar: J
Encoding: 74 74 46
Width: 540
Flags: MW
HStem: -10 118<229.5 279> 691 20G<354 501 501 501>
VStem: 24 147<191 210> 354 147<219 711>
LayerCount: 2
Fore
SplineSet
24 210 m 1
 171 210 l 1
 171 144 197 108 262 108 c 0
 323 108 354 155 354 219 c 2
 354 711 l 1
 501 711 l 1
 501 219 l 2
 501 108 439 36 356 6 c 0
 327 -4 296 -10 262 -10 c 0
 152 -10 75 34 42 112 c 0
 30 139 24 172 24 210 c 1
EndSplineSet
Substitution2: "<3,3> Small Caps in Latin lookup 0 subtable" J.smcp
EndChar

StartChar: K
Encoding: 75 75 47
Width: 630
Flags: MW
HStem: 0 21G<35 35 35 182 427 427 427 610> 691 20G<35 182 182 182 413 595 595 595>
VStem: 35 147<0 315 398 711>
LayerCount: 2
Fore
SplineSet
35 0 m 1
 35 711 l 1
 182 711 l 1
 182 398 l 1
 413 711 l 1
 595 711 l 1
 324 358 l 1
 610 0 l 1
 427 0 l 1
 182 315 l 1
 182 0 l 1
 35 0 l 1
EndSplineSet
Substitution2: "<3,3> Small Caps in Latin lookup 0 subtable" K.smcp
EndChar

StartChar: L
Encoding: 76 76 48
Width: 522
Flags: MW
HStem: 0 118<182 493 182 493> 691 20G<35 182 182 182>
VStem: 35 147<118 711 118 711 118 711>
LayerCount: 2
Fore
SplineSet
35 0 m 1
 35 711 l 1
 182 711 l 1
 182 118 l 1
 493 118 l 1
 493 0 l 1
 35 0 l 1
EndSplineSet
Substitution2: "<3,3> Small Caps in Latin lookup 0 subtable" L.smcp
EndChar

StartChar: M
Encoding: 77 77 49
Width: 824
Flags: MW
HStem: 0 21G<35 35 35 182 359 359 359 459 637 637 637 784> 691 20G<35 227 227 227 591 784 784 784>
VStem: 35 132<529 529 529 711> 35 147<0 194 0 711> 637 147<0 194 194 194> 651 133<530 530>
LayerCount: 2
Fore
SplineSet
35 0 m 1xd0
 35 711 l 1
 227 711 l 1
 410 195 l 1
 591 711 l 1
 784 711 l 1xe4
 784 0 l 1
 637 0 l 1
 637 194 l 1xc8
 651 530 l 1
 459 0 l 1
 359 0 l 1
 167 529 l 1xe4
 182 194 l 1
 182 0 l 1
 35 0 l 1xd0
EndSplineSet
Substitution2: "<3,3> Small Caps in Latin lookup 0 subtable" M.smcp
EndChar

StartChar: N
Encoding: 78 78 50
Width: 654
Flags: MW
HStem: 0 21G<35 35 35 182 467 467 467 614> 691 20G<35 182 182 182 468 614 614 614>
VStem: 35 147<0 468 0 711> 468 146<242 711 0 711>
LayerCount: 2
Fore
SplineSet
35 0 m 1
 35 711 l 1
 182 711 l 1
 468 242 l 1
 468 711 l 1
 614 711 l 1
 614 0 l 1
 467 0 l 1
 182 468 l 1
 182 0 l 1
 35 0 l 1
EndSplineSet
Substitution2: "<3,3> Small Caps in Latin lookup 0 subtable" N.smcp
EndChar

StartChar: O
Encoding: 79 79 51
Width: 666
Flags: MW
HStem: -10 120<319.5 354.5> 600 121<308.5 380 308.5 388.5>
VStem: 28 148<339 371 371 372 289 452.5> 485 148<339 371 257 372 257 435>
LayerCount: 2
Fore
SplineSet
28 339 m 2
 28 371 l 2
 28 534 95 646 208 696 c 0
 245 712 286 721 331 721 c 0
 429 721 501 681 549 627 c 0
 601 568 633 481 633 371 c 2
 633 339 l 2
 633 175 567 64 454 14 c 0
 417 -2 377 -10 332 -10 c 0
 235 -10 161 29 113 83 c 0
 61 141 28 230 28 339 c 2
176 339 m 2
 176 239 201 159 266 125 c 0
 285 115 307 110 332 110 c 0
 446 110 485 214 485 339 c 2
 485 372 l 2
 485 498 446 600 331 600 c 0
 217 600 176 498 176 372 c 2
 176 339 l 2
EndSplineSet
Substitution2: "<3,3> Small Caps in Latin lookup 0 subtable" O.smcp
EndChar

StartChar: P
Encoding: 80 80 52
Width: 609
Flags: MW
HStem: 0 21G<35 35 35 182> 250 119<182 313 182 313> 592 119<182 313 182 182>
VStem: 35 147<0 250 369 592> 432 148<439 492.5 418 511.5>
LayerCount: 2
Fore
SplineSet
35 0 m 1
 35 711 l 1
 313 711 l 2
 438 711 525 658 562 570 c 0
 574 541 580 509 580 476 c 0
 580 360 515 295 426 266 c 0
 393 255 355 250 313 250 c 2
 182 250 l 1
 182 0 l 1
 35 0 l 1
182 369 m 1
 313 369 l 2
 386 369 432 403 432 475 c 0
 432 548 387 592 313 592 c 2
 182 592 l 1
 182 369 l 1
EndSplineSet
Substitution2: "<3,3> Small Caps in Latin lookup 0 subtable" P.smcp
EndChar

StartChar: Q
Encoding: 81 81 53
Width: 666
Flags: MW
HStem: -10 120<319.5 332> 600 121<308.5 380 308.5 388.5>
VStem: 28 148<339 371 371 372 289 452.5> 485 148<339 371 272 372 272 435>
LayerCount: 2
Fore
SplineSet
28 339 m 2
 28 371 l 2
 28 534 95 646 208 696 c 0
 245 712 286 721 331 721 c 0
 429 721 501 681 549 627 c 0
 601 568 633 481 633 371 c 2
 633 339 l 2
 633 205 587 107 512 48 c 1
 630 -44 l 1
 537 -127 l 1
 385 -5 l 1
 368 -8 350 -9 332 -10 c 0
 234 -10 162 30 113 84 c 0
 60 142 28 229 28 339 c 2
176 339 m 2
 176 239 201 159 266 125 c 0
 285 115 307 110 332 110 c 0
 446 110 485 214 485 339 c 2
 485 372 l 2
 485 498 446 600 331 600 c 0
 217 600 176 498 176 372 c 2
 176 339 l 2
EndSplineSet
Substitution2: "<3,3> Small Caps in Latin lookup 0 subtable" Q.smcp
EndChar

StartChar: R
Encoding: 82 82 54
Width: 611
Flags: MW
HStem: 0 21G<35 35 35 182 432 432 432 589> 260 119<182 299 182 300> 592 119<182 300 182 182>
VStem: 35 147<0 260 379 592> 416 146<449 513.5 441 519.5>
LayerCount: 2
Fore
SplineSet
35 0 m 1
 35 711 l 1
 300 711 l 2
 420 711 507 672 544 589 c 0
 556 562 562 531 562 496 c 0
 562 386 510 332 435 297 c 1
 589 7 l 1
 589 0 l 1
 432 0 l 1
 299 260 l 1
 182 260 l 1
 182 0 l 1
 35 0 l 1
182 379 m 1
 300 379 l 2
 371 379 416 414 416 484 c 0
 416 555 374 592 300 592 c 2
 182 592 l 1
 182 379 l 1
EndSplineSet
Substitution2: "<3,3> Small Caps in Latin lookup 0 subtable" R.smcp
EndChar

StartChar: S
Encoding: 83 83 55
Width: 599
Flags: MW
HStem: -10 116<267.5 329.5> 604 117<287.5 339.5>
VStem: 23 147<210.5 224> 45 146<509.5 551 509.5 574> 421 147<157.5 202.5 135.5 212.5>
LayerCount: 2
Fore
SplineSet
23 224 m 1xe8
 170 224 l 1xe8
 170 138 225 106 310 106 c 0
 371 106 421 128 421 187 c 0
 421 238 390 256 352 273 c 0
 334 281 311 289 282 298 c 0
 192 327 104 364 63 441 c 0
 51 464 45 491 45 522 c 0
 45 626 119 681 201 706 c 0
 233 716 268 721 307 721 c 0
 426 721 511 670 549 589 c 0
 561 562 568 533 568 501 c 1
 422 501 l 1
 422 570 375 604 304 604 c 0
 242 604 191 581 191 521 c 0xd8
 191 498 203 478 227 462 c 0
 251 446 286 432 332 418 c 0
 427 389 517 350 553 266 c 0
 563 243 568 217 568 188 c 0
 568 83 501 28 417 4 c 0
 385 -5 349 -10 310 -10 c 0
 173 -10 71 49 35 151 c 0
 27 173 23 197 23 224 c 1xe8
EndSplineSet
Substitution2: "<3,3> Small Caps in Latin lookup 0 subtable" S.smcp
EndChar

StartChar: T
Encoding: 84 84 56
Width: 627
Flags: MW
HStem: 0 21G<237 384 237 237> 592 119<23 602 23 237 384 384 384 602>
VStem: 237 147<0 592 0 592>
LayerCount: 2
Fore
SplineSet
23 592 m 1
 23 711 l 1
 602 711 l 1
 602 592 l 1
 384 592 l 1
 384 0 l 1
 237 0 l 1
 237 592 l 1
 23 592 l 1
EndSplineSet
Substitution2: "<3,3> Small Caps in Latin lookup 0 subtable" T.smcp
EndChar

StartChar: U
Encoding: 85 85 57
Width: 616
Flags: MW
HStem: -10 118<263 324.5> 691 20G<33 179 179 179 431 578 578 578>
VStem: 33 146<242 711> 431 147<242 711>
LayerCount: 2
Fore
SplineSet
33 242 m 2
 33 711 l 1
 179 711 l 1
 179 242 l 2
 179 154 221 108 305 108 c 0
 390 108 431 154 431 242 c 2
 431 711 l 1
 578 711 l 1
 578 242 l 2
 578 114 511 37 414 6 c 0
 381 -5 344 -10 305 -10 c 0
 177 -10 92 43 53 133 c 0
 40 164 33 201 33 242 c 2
EndSplineSet
Substitution2: "<3,3> Small Caps in Latin lookup 0 subtable" U.smcp
EndChar

StartChar: V
Encoding: 86 86 58
Width: 689
Flags: MW
HStem: 0 21G<267 420 267 267> 691 20G<20 183 183 183 504 667 667 667>
LayerCount: 2
Fore
SplineSet
20 711 m 1
 183 711 l 1
 343 176 l 1
 504 711 l 1
 667 711 l 1
 420 0 l 1
 267 0 l 1
 20 711 l 1
EndSplineSet
Substitution2: "<3,3> Small Caps in Latin lookup 0 subtable" V.smcp
EndChar

StartChar: W
Encoding: 87 87 59
Width: 886
Flags: MW
HStem: 0 21G<179 326 179 179 558 705 558 558> 691 20G<21 167 167 167 380 504 504 504 717 863 863 863>
LayerCount: 2
Fore
SplineSet
21 711 m 1
 167 711 l 1
 263 206 l 1
 380 711 l 1
 504 711 l 1
 621 205 l 1
 717 711 l 1
 863 711 l 1
 705 0 l 1
 558 0 l 1
 442 476 l 1
 326 0 l 1
 179 0 l 1
 21 711 l 1
EndSplineSet
Substitution2: "<3,3> Small Caps in Latin lookup 0 subtable" W.smcp
EndChar

StartChar: X
Encoding: 88 88 60
Width: 654
Flags: MW
HStem: 0 21G<19 19 19 189 463 463 463 633> 691 20G<24 193 193 193 459 628 628 628>
LayerCount: 2
Fore
SplineSet
19 0 m 1
 231 358 l 1
 24 711 l 1
 193 711 l 1
 326 466 l 1
 459 711 l 1
 628 711 l 1
 421 358 l 1
 633 0 l 1
 463 0 l 1
 326 249 l 1
 189 0 l 1
 19 0 l 1
EndSplineSet
Substitution2: "<3,3> Small Caps in Latin lookup 0 subtable" X.smcp
EndChar

StartChar: Y
Encoding: 89 89 61
Width: 658
Flags: MW
HStem: 0 21G<253 402 253 253> 691 20G<20 181 181 181 476 636 636 636>
VStem: 253 149<0 258 0 258>
LayerCount: 2
Fore
SplineSet
20 711 m 1
 181 711 l 1
 328 391 l 1
 476 711 l 1
 636 711 l 1
 402 258 l 1
 402 0 l 1
 253 0 l 1
 253 258 l 1
 20 711 l 1
EndSplineSet
Substitution2: "<3,3> Small Caps in Latin lookup 0 subtable" Y.smcp
EndChar

StartChar: Z
Encoding: 90 90 62
Width: 596
Flags: MW
HStem: 0 118<210 568 210 568> 592 119<27 378 27 560>
LayerCount: 2
Fore
SplineSet
27 0 m 1
 27 86 l 1
 378 592 l 1
 27 592 l 1
 27 711 l 1
 560 711 l 1
 560 627 l 1
 210 118 l 1
 568 118 l 1
 568 0 l 1
 27 0 l 1
EndSplineSet
Substitution2: "<3,3> Small Caps in Latin lookup 0 subtable" Z.smcp
EndChar

StartChar: bracketleft
Encoding: 91 91 63
Width: 269
Flags: MW
HStem: -166 109<178 248 178 248> 718 109<178 248 178 178>
VStem: 37 141<-57 718 -57 827 -57 827> 37 211<-166 -57 718 827>
LayerCount: 2
Fore
SplineSet
37 -166 m 1xd0
 37 827 l 1
 248 827 l 1
 248 718 l 1xd0
 178 718 l 1
 178 -57 l 1xe0
 248 -57 l 1
 248 -166 l 1
 37 -166 l 1xd0
EndSplineSet
EndChar

StartChar: backslash
Encoding: 92 92 64
Width: 480
Flags: MW
HStem: 691 20G<20 164 164 164>
LayerCount: 2
Fore
SplineSet
20 711 m 1
 164 711 l 1
 461 -61 l 1
 316 -61 l 1
 20 711 l 1
EndSplineSet
EndChar

StartChar: bracketright
Encoding: 93 93 65
Width: 270
Flags: MW
HStem: -166 109<21 91 21 232 21 91> 718 109<21 91 21 232>
VStem: 21 211<-166 -57 -57 -57 718 827 -166 827> 91 141<-57 718 718 718>
LayerCount: 2
Fore
SplineSet
21 -57 m 1xe0
 91 -57 l 1
 91 718 l 1xd0
 21 718 l 1
 21 827 l 1
 232 827 l 1
 232 -166 l 1
 21 -166 l 1
 21 -57 l 1xe0
EndSplineSet
EndChar

StartChar: asciicircum
Encoding: 94 94 66
Width: 444
Flags: MW
HStem: 691 20G<170 273 273 273>
LayerCount: 2
Fore
SplineSet
24 356 m 1
 170 711 l 1
 273 711 l 1
 419 356 l 1
 307 356 l 1
 222 579 l 1
 137 356 l 1
 24 356 l 1
EndSplineSet
EndChar

StartChar: underscore
Encoding: 95 95 67
Width: 518
Flags: MW
HStem: -110 110<36 481 36 481>
LayerCount: 2
Fore
SplineSet
36 0 m 1
 481 0 l 1
 481 -110 l 1
 36 -110 l 1
 36 0 l 1
EndSplineSet
EndChar

StartChar: grave
Encoding: 96 96 68
Width: 311
Flags: MW
HStem: 599 151<163 182 28 279 163 163>
VStem: 28 251<599 750>
LayerCount: 2
Fore
SplineSet
28 750 m 1
 182 750 l 1
 279 599 l 1
 163 599 l 1
 28 750 l 1
EndSplineSet
EndChar

StartChar: a
Encoding: 97 97 69
Width: 521
Flags: MW
HStem: -10 108<216.5 236> 0 21G<352 495 352 352> 240 83<269 274 274 332> 434 104<232 280.5>
VStem: 25 141<140.5 188.5 140.5 213.5> 332 142<149 240 240 240 323 352>
LayerCount: 2
Fore
SplineSet
25 148 m 0xbc
 25 279 135 323 269 323 c 2
 332 323 l 1
 332 353 l 2
 332 404 307 434 254 434 c 0
 210 434 178 412 178 370 c 1
 37 370 l 1
 37 423 66 462 98 488 c 0
 137 519 193 538 262 538 c 0
 360 538 427 501 458 433 c 0
 469 410 474 383 474 352 c 2
 474 128 l 2
 474 79 480 41 495 8 c 1
 495 0 l 1
 352 0 l 1x7c
 345 13 341 28 338 47 c 1
 310 14 267 -10 205 -10 c 0
 124 -10 66 30 39 85 c 0
 30 104 25 125 25 148 c 0xbc
166 159 m 0
 166 122 197 98 236 98 c 0xbc
 281 98 316 120 332 149 c 1
 332 240 l 1
 274 240 l 2
 213 240 166 218 166 159 c 0
EndSplineSet
Substitution2: "<3,3> Small Caps in Latin lookup 0 subtable" A.smcp
EndChar

StartChar: b
Encoding: 98 98 70
Width: 546
Flags: MW
HStem: -10 114<274.5 312.5 246 324> 0 21G<36 36 36 163> 423 115<276 311> 730 20G<36 177 177 177>
VStem: 36 127<0 750> 36 141<160 160 160 368 481 750> 371 141<259 270 199 311>
LayerCount: 2
Fore
SplineSet
36 0 m 1x7a
 36 750 l 1
 177 750 l 1
 177 481 l 1
 206 515 246 538 306 538 c 0
 417 538 477 468 500 378 c 0
 508 345 512 309 512 270 c 2
 512 259 l 2
 512 139 476 50 397 10 c 0
 371 -3 341 -10 307 -10 c 0xb6
 242 -10 200 18 170 56 c 1
 163 0 l 1
 36 0 l 1x7a
177 160 m 1
 193 126 221 104 271 104 c 0
 354 104 371 175 371 259 c 2
 371 270 l 2
 371 352 352 423 270 423 c 0
 220 423 194 403 177 368 c 1
 177 160 l 1
EndSplineSet
Substitution2: "<3,3> Small Caps in Latin lookup 0 subtable" B.smcp
EndChar

StartChar: c
Encoding: 99 99 71
Width: 523
Flags: MW
HStem: -10 114<228 296.5 228 304.5> 424 114<250.5 296>
VStem: 28 141<257 271 215.5 332> 359 132<152.5 183 332 347.5>
LayerCount: 2
Fore
SplineSet
28 257 m 2
 28 271 l 2
 28 393 78 479 164 518 c 0
 194 532 230 538 271 538 c 0
 375 538 443 491 474 418 c 0
 485 392 491 363 491 332 c 1
 359 332 l 1
 359 386 323 424 269 424 c 0
 187 424 169 353 169 271 c 2
 169 257 l 2
 169 174 186 104 270 104 c 0
 323 104 356 133 359 183 c 1
 491 183 l 1
 491 122 461 74 427 44 c 0
 391 12 337 -10 272 -10 c 0
 147 -10 73 57 43 152 c 0
 33 184 28 220 28 257 c 2
EndSplineSet
Substitution2: "<3,3> Small Caps in Latin lookup 0 subtable" C.smcp
EndChar

StartChar: d
Encoding: 100 100 72
Width: 544
Flags: MW
HStem: -10 114<230.5 266.5> 0 21G<377 504 377 377> 423 115<231 265 218.5 295> 730 20G<363 504 504 504>
VStem: 28 141<258 268 218 327.5> 363 141<160 368 368 368 480 750 0 750> 377 127<0 750>
LayerCount: 2
Fore
SplineSet
28 258 m 2xba
 28 268 l 2
 28 387 68 478 147 518 c 0
 173 531 202 538 235 538 c 0
 295 538 334 514 363 480 c 1
 363 750 l 1
 504 750 l 1xbc
 504 0 l 1
 377 0 l 1x7a
 370 56 l 1
 339 18 299 -10 234 -10 c 0
 163 -10 114 23 82 66 c 0
 48 112 28 179 28 258 c 2xba
169 258 m 2
 169 178 191 104 270 104 c 0
 318 104 347 127 363 160 c 1
 363 368 l 1
 347 401 319 423 271 423 c 0
 191 423 169 348 169 268 c 2
 169 258 l 2
EndSplineSet
Substitution2: "<3,3> Small Caps in Latin lookup 0 subtable" D.smcp
EndChar

StartChar: e
Encoding: 101 101 73
Width: 541
Flags: MW
HStem: -10 114<262 329.5 262 339> 218 96<173 369 173 508 171 369> 424 114<256 304.5>
VStem: 28 143<218 265 218 327.5> 369 139<218 326 218 356.5>
LayerCount: 2
Fore
SplineSet
28 246 m 2
 28 265 l 2
 28 390 84 479 172 518 c 0
 202 531 237 538 275 538 c 0
 431 538 508 434 508 278 c 2
 508 218 l 1
 171 218 l 1
 179 150 224 104 300 104 c 0
 359 104 400 127 427 163 c 1
 496 85 l 1
 455 29 388 -10 290 -10 c 0
 163 -10 81 55 46 147 c 0
 34 178 28 211 28 246 c 2
173 314 m 1
 369 314 l 1
 369 326 l 2
 369 387 335 424 274 424 c 0
 208 424 180 373 173 314 c 1
EndSplineSet
Substitution2: "<3,3> Small Caps in Latin lookup 0 subtable" E.smcp
EndChar

StartChar: f
Encoding: 102 102 74
Width: 391
Flags: MW
HStem: 0 21G<102 243 102 102> 425 103<23 102 23 102 243 348> 646 114<298.5 309 235.5 323>
VStem: 102 141<0 425 0 425 528 574>
LayerCount: 2
Fore
SplineSet
23 425 m 1
 23 528 l 1
 102 528 l 1
 102 574 l 2
 102 695 175 760 296 760 c 0
 322 760 345 755 367 750 c 1
 366 641 l 1
 354 644 340 645 323 646 c 0
 274 646 243 622 243 574 c 2
 243 528 l 1
 348 528 l 1
 348 425 l 1
 243 425 l 1
 243 0 l 1
 102 0 l 1
 102 425 l 1
 23 425 l 1
EndSplineSet
Substitution2: "<3,3> Small Caps in Latin lookup 0 subtable" F.smcp
EndChar

StartChar: g
Encoding: 103 103 75
Width: 563
Flags: MW
HStem: -214 107<235.5 288.5 235.5 303> 4 107<219 343 253 322> 168 106<262 299 251 310> 431 107<249 288.5 239 298.5> 453 75<474 534 356 535 474 474>
VStem: 18 132<-69.5 -54.5> 44 141<348 358 324 388> 89 102<89.5 152.5> 363 140<348 358 319 382> 392 140<-47 -25>
LayerCount: 2
Fore
SplineSet
18 -79 m 0xec40
 18 -30 47 1 76 22 c 0
 87 30 98 37 111 42 c 1
 98 56 89 76 89 103 c 0xe9
 89 148 118 177 146 195 c 1
 92 222 44 273 44 348 c 2
 44 358 l 2
 44 418 72 460 107 488 c 0
 146 519 204 538 274 538 c 0xf2
 303 538 331 535 356 528 c 1
 534 528 l 1
 535 453 l 1
 474 453 l 1
 491 428 503 398 503 358 c 2
 503 348 l 2
 503 290 476 248 441 220 c 0
 402 188 345 168 275 168 c 0
 249 168 225 171 204 176 c 1
 198 169 191 159 191 146 c 0xe980
 191 115 222 111 253 111 c 2
 343 111 l 2
 452 111 532 66 532 -37 c 0
 532 -89 497 -130 462 -156 c 0
 415 -191 345 -214 261 -214 c 0
 186 -214 125 -201 80 -174 c 0
 47 -155 18 -124 18 -79 c 0xec40
150 -45 m 0xe440
 150 -94 210 -107 261 -107 c 0
 316 -107 362 -96 384 -66 c 0
 389 -59 392 -51 392 -43 c 0
 392 -7 360 4 322 4 c 2
 227 4 l 2
 211 4 195 4 182 7 c 1
 165 -2 150 -20 150 -45 c 0xe440
185 348 m 2xf280
 185 300 227 274 275 274 c 0
 323 274 363 301 363 348 c 2
 363 358 l 2
 363 406 323 431 274 431 c 0
 224 431 185 407 185 358 c 2
 185 348 l 2xf280
EndSplineSet
Substitution2: "<3,3> Small Caps in Latin lookup 0 subtable" G.smcp
EndChar

StartChar: h
Encoding: 104 104 76
Width: 529
Flags: MW
HStem: 0 21G<35 35 35 176 350 350 350 491> 423 115<284.5 296> 730 20G<35 176 176 176>
VStem: 35 141<0 375 471 750> 350 141<0 333 0 334 0 364.5>
LayerCount: 2
Fore
SplineSet
35 0 m 1
 35 750 l 1
 176 750 l 1
 176 471 l 1
 207 509 252 538 317 538 c 0
 442 538 491 460 491 333 c 2
 491 0 l 1
 350 0 l 1
 350 334 l 2
 350 395 326 423 266 423 c 0
 221 423 193 404 176 375 c 1
 176 0 l 1
 35 0 l 1
EndSplineSet
Substitution2: "<3,3> Small Caps in Latin lookup 0 subtable" H.smcp
EndChar

StartChar: i
Encoding: 105 105 77
Width: 221
Flags: MW
HStem: 0 21G<38 38 38 179> 508 20G<38 179 179 179> 592 146<85 131.5>
VStem: 29 158<642 687> 38 141<0 528 0 528>
LayerCount: 2
Fore
SplineSet
29 665 m 0xf0
 29 709 62 738 108 738 c 0
 155 738 187 711 187 665 c 0
 187 619 155 592 108 592 c 0
 62 592 29 619 29 665 c 0xf0
38 0 m 1xe8
 38 528 l 1
 179 528 l 1
 179 0 l 1
 38 0 l 1xe8
EndSplineSet
Substitution2: "<3,3> Small Caps in Latin lookup 0 subtable" I.smcp
EndChar

StartChar: j
Encoding: 106 106 78
Width: 308
Flags: MW
HStem: -213 115<74 84 54 145.5> 508 20G<126 268 268 268> 592 146<171 217>
VStem: 115 158<642 687.5> 126 142<-29 528>
LayerCount: 2
Fore
SplineSet
18 -93 m 1xe8
 32 -96 46 -98 62 -98 c 0
 106 -98 126 -74 126 -29 c 2
 126 528 l 1
 268 528 l 1
 268 -29 l 2
 268 -146 204 -213 87 -213 c 0
 61 -213 39 -210 18 -205 c 1
 18 -93 l 1xe8
115 665 m 0xf0
 115 710 147 738 194 738 c 0
 241 738 273 710 273 665 c 0
 273 619 240 592 194 592 c 0
 148 592 115 619 115 665 c 0xf0
EndSplineSet
Substitution2: "<3,3> Small Caps in Latin lookup 0 subtable" J.smcp
EndChar

StartChar: k
Encoding: 107 107 79
Width: 534
Flags: MW
HStem: 0 21G<35 35 35 176 347 347 347 514> 508 20G<327 493 493 493> 742 20G<35 176 176 176>
VStem: 35 141<0 231 331 762>
LayerCount: 2
Fore
SplineSet
35 0 m 1
 35 762 l 1
 176 762 l 1
 176 331 l 1
 327 528 l 1
 493 528 l 1
 298 283 l 1
 514 0 l 1
 347 0 l 1
 176 231 l 1
 176 0 l 1
 35 0 l 1
EndSplineSet
Substitution2: "<3,3> Small Caps in Latin lookup 0 subtable" K.smcp
EndChar

StartChar: l
Encoding: 108 108 80
Width: 216
Flags: MW
HStem: 0 21G<35 35 35 176> 730 20G<35 176 176 176>
VStem: 35 141<0 750 0 750>
LayerCount: 2
Fore
SplineSet
35 0 m 1
 35 750 l 1
 176 750 l 1
 176 0 l 1
 35 0 l 1
EndSplineSet
Substitution2: "<3,3> Small Caps in Latin lookup 0 subtable" L.smcp
EndChar

StartChar: m
Encoding: 109 109 81
Width: 831
Flags: MW
HStem: 0 21G<35 35 35 176 343 343 343 484 651 651 651 793> 423 115<241 359 584 600.5> 508 20G<35 168 168 168>
VStem: 35 141<0 374 0 528> 343 141<0 335 335 352 0 357> 651 142<0 336 0 366>
LayerCount: 2
Fore
SplineSet
35 0 m 1xdc
 35 528 l 1
 168 528 l 1xbc
 172 469 l 1
 205 509 254 538 324 538 c 0
 394 538 440 509 464 458 c 1
 497 506 545 538 623 538 c 0
 746 538 793 462 793 336 c 2
 793 0 l 1
 651 0 l 1
 651 336 l 2
 651 396 630 423 571 423 c 0
 524 423 498 397 483 363 c 0
 483 361 484 354 484 352 c 2
 484 0 l 1
 343 0 l 1
 343 335 l 2
 343 379 332 412 297 420 c 0
 287 422 276 423 263 423 c 0
 219 423 192 403 176 374 c 1
 176 0 l 1
 35 0 l 1xdc
EndSplineSet
Substitution2: "<3,3> Small Caps in Latin lookup 0 subtable" M.smcp
EndChar

StartChar: n
Encoding: 110 110 82
Width: 529
Flags: MW
HStem: 0 21G<35 35 35 176 350 350 350 491> 423 115<289.5 295.5> 508 20G<35 168 168 168>
VStem: 35 133<0 528 528 528> 35 141<0 373 0 528> 350 141<0 336 0 337 0 367>
LayerCount: 2
Fore
SplineSet
35 0 m 1xcc
 35 528 l 1
 168 528 l 1xb4
 172 467 l 1
 204 508 255 538 324 538 c 0
 446 538 491 460 491 336 c 2
 491 0 l 1
 350 0 l 1
 350 337 l 2
 350 397 325 423 266 423 c 0
 222 423 193 401 176 373 c 1
 176 0 l 1
 35 0 l 1xcc
EndSplineSet
Substitution2: "<3,3> Small Caps in Latin lookup 0 subtable" N.smcp
EndChar

StartChar: o
Encoding: 111 111 83
Width: 563
Flags: MW
HStem: -10 114<237 299> 424 114<258 319>
VStem: 28 141<259 269 217 331.5> 388 141<259 269 196.5 310.5>
LayerCount: 2
Fore
SplineSet
28 259 m 2
 28 269 l 2
 28 394 84 479 172 518 c 0
 203 532 238 538 278 538 c 0
 403 538 480 470 512 376 c 0
 523 343 529 308 529 269 c 2
 529 259 l 2
 529 134 474 49 386 10 c 0
 355 -4 319 -10 279 -10 c 0
 154 -10 76 58 44 152 c 0
 33 185 28 220 28 259 c 2
169 259 m 2
 169 175 195 104 279 104 c 0
 361 104 388 176 388 259 c 2
 388 269 l 2
 388 352 360 424 278 424 c 0
 196 424 169 351 169 269 c 2
 169 259 l 2
EndSplineSet
Substitution2: "<3,3> Small Caps in Latin lookup 0 subtable" O.smcp
EndChar

StartChar: p
Encoding: 112 112 84
Width: 546
Flags: MW
HStem: -203 21G<35 35 35 176> -10 114<276 308.5 245 322.5> 423 115<273 307.5> 508 20G<35 166 166 166>
VStem: 35 141<-203 46 156 373> 370 141<259 270 200 309.5>
LayerCount: 2
Fore
SplineSet
35 -203 m 1xec
 35 528 l 1
 166 528 l 1xdc
 171 477 l 1
 201 513 241 538 305 538 c 0
 416 538 473 469 497 380 c 0
 506 347 511 310 511 270 c 2
 511 259 l 2
 511 141 470 51 394 10 c 0
 369 -4 339 -10 306 -10 c 0
 246 -10 206 14 176 46 c 1
 176 -203 l 1
 35 -203 l 1xec
176 156 m 1
 192 124 221 104 269 104 c 0
 348 104 370 180 370 259 c 2
 370 270 l 2
 370 349 347 423 268 423 c 0xec
 220 423 193 404 176 373 c 1
 176 156 l 1
EndSplineSet
Substitution2: "<3,3> Small Caps in Latin lookup 0 subtable" P.smcp
EndChar

StartChar: q
Encoding: 113 113 85
Width: 544
Flags: MW
HStem: -203 21G<363 504 363 363> -10 114<231 264> 424 114<232.5 268.5 219 295.5> 508 20G<380 504 504 504>
VStem: 28 141<259 269 218.5 328> 363 141<-203 45 45 45 156 374 374 374>
LayerCount: 2
Fore
SplineSet
28 259 m 2xdc
 28 269 l 2
 28 387 68 478 146 518 c 0
 172 531 202 538 236 538 c 0xec
 301 538 342 511 371 473 c 1
 380 528 l 1
 504 528 l 1
 504 -203 l 1
 363 -203 l 1
 363 45 l 1
 335 13 293 -10 235 -10 c 0
 124 -10 67 64 42 152 c 0
 33 185 28 220 28 259 c 2xdc
169 259 m 2
 169 178 191 104 271 104 c 0
 319 104 346 124 363 156 c 1
 363 374 l 1
 346 405 319 424 272 424 c 0
 193 424 169 349 169 269 c 2
 169 259 l 2
EndSplineSet
Substitution2: "<3,3> Small Caps in Latin lookup 0 subtable" Q.smcp
EndChar

StartChar: r
Encoding: 114 114 86
Width: 365
Flags: MW
HStem: 0 21G<35 35 35 176> 400 138<261 288.5> 508 20G<35 169 169 169>
VStem: 35 137<465 465 465 528 465 528> 35 141<0 346 0 528>
LayerCount: 2
Fore
SplineSet
35 0 m 1xc8
 35 528 l 1
 169 528 l 1
 172 465 l 1xb0
 195 505 232 538 290 538 c 0
 304 538 323 535 334 532 c 1
 332 396 l 1
 318 397 296 400 281 400 c 0
 226 400 194 382 176 346 c 1
 176 0 l 1
 35 0 l 1xc8
EndSplineSet
Substitution2: "<3,3> Small Caps in Latin lookup 0 subtable" R.smcp
EndChar

StartChar: s
Encoding: 115 115 87
Width: 504
Flags: MW
HStem: -10 100<225.5 275.5 225.5 284> 438 100<228 274>
VStem: 39 136<364.5 399 364.5 399.5> 335 138<126 163>
LayerCount: 2
Fore
SplineSet
22 168 m 1
 156 168 l 1
 159 115 198 90 253 90 c 0
 298 90 335 106 335 146 c 0
 335 180 309 190 281 200 c 0
 267 205 249 209 227 213 c 0
 153 229 84 257 53 314 c 0
 44 331 39 351 39 374 c 0
 39 425 65 463 95 489 c 0
 131 519 184 538 250 538 c 0
 350 538 422 502 455 436 c 0
 465 415 471 393 471 368 c 1
 330 368 l 1
 330 414 299 438 249 438 c 0
 207 438 175 418 175 380 c 0
 175 349 202 337 227 329 c 0
 263 317 317 309 353 297 c 0
 399 282 435 257 457 219 c 0
 467 201 473 178 473 152 c 0
 473 99 445 62 412 37 c 0
 373 8 318 -10 250 -10 c 0
 146 -10 70 34 37 104 c 0
 27 125 22 147 22 168 c 1
EndSplineSet
Substitution2: "<3,3> Small Caps in Latin lookup 0 subtable" S.smcp
EndChar

StartChar: t
Encoding: 116 116 88
Width: 366
Flags: MW
HStem: -10 116<200 303> 425 103<23 100 23 100 241 331>
VStem: 100 141<146 161 161 425 528 658>
LayerCount: 2
Fore
SplineSet
23 425 m 1
 23 528 l 1
 100 528 l 1
 100 658 l 1
 241 658 l 1
 241 528 l 1
 331 528 l 1
 331 425 l 1
 241 425 l 1
 241 161 l 2
 241 122 256 106 295 106 c 0
 311 106 325 107 337 110 c 1
 337 3 l 1
 311 -4 285 -10 251 -10 c 0
 149 -10 100 43 100 146 c 2
 100 425 l 1
 23 425 l 1
EndSplineSet
Substitution2: "<3,3> Small Caps in Latin lookup 0 subtable" T.smcp
EndChar

StartChar: u
Encoding: 117 117 89
Width: 529
Flags: MW
HStem: -10 114<223.5 241.5> 0 21G<357 489 357 357> 508 20G<33 174 174 174 348 489 489 489>
VStem: 33 141<187 528> 348 141<154 528 0 528>
LayerCount: 2
Fore
SplineSet
33 187 m 2xb8
 33 528 l 1
 174 528 l 1
 174 186 l 2
 174 134 198 104 249 104 c 0xb8
 299 104 330 123 348 154 c 1
 348 528 l 1
 489 528 l 1
 489 0 l 1
 357 0 l 1x78
 353 54 l 1
 322 16 275 -10 208 -10 c 0
 87 -10 33 64 33 187 c 2xb8
EndSplineSet
Substitution2: "<3,3> Small Caps in Latin lookup 0 subtable" U.smcp
EndChar

StartChar: v
Encoding: 118 118 90
Width: 536
Flags: MW
HStem: 0 21G<200 334 200 200> 508 20G<21 169 169 169 365 513 513 513>
LayerCount: 2
Fore
SplineSet
21 528 m 1
 169 528 l 1
 267 172 l 1
 365 528 l 1
 513 528 l 1
 334 0 l 1
 200 0 l 1
 21 528 l 1
EndSplineSet
Substitution2: "<3,3> Small Caps in Latin lookup 0 subtable" V.smcp
EndChar

StartChar: w
Encoding: 119 119 91
Width: 750
Flags: MW
HStem: 0 21G<155 273 155 155 473 591 473 473> 508 20G<21 157 157 157 322 424 424 424 590 726 726 726>
LayerCount: 2
Fore
SplineSet
21 528 m 1
 157 528 l 1
 226 192 l 1
 322 528 l 1
 424 528 l 1
 521 192 l 1
 590 528 l 1
 726 528 l 1
 591 0 l 1
 473 0 l 1
 373 333 l 1
 273 0 l 1
 155 0 l 1
 21 528 l 1
EndSplineSet
Substitution2: "<3,3> Small Caps in Latin lookup 0 subtable" W.smcp
EndChar

StartChar: x
Encoding: 120 120 92
Width: 535
Flags: MW
HStem: 0 21G<21 21 21 173 361 361 361 512> 508 20G<28 179 179 179 355 506 506 506>
LayerCount: 2
Fore
SplineSet
21 0 m 1
 178 270 l 1
 28 528 l 1
 179 528 l 1
 266 371 l 1
 355 528 l 1
 506 528 l 1
 356 270 l 1
 512 0 l 1
 361 0 l 1
 267 166 l 1
 173 0 l 1
 21 0 l 1
EndSplineSet
Substitution2: "<3,3> Small Caps in Latin lookup 0 subtable" X.smcp
EndChar

StartChar: y
Encoding: 121 121 93
Width: 542
Flags: MW
HStem: -213 115<94.5 189> 508 20G<20 172 172 172 368 519 519 519>
LayerCount: 2
Fore
SplineSet
20 528 m 1
 172 528 l 1
 270 200 l 1
 368 528 l 1
 519 528 l 1
 308 -79 l 2
 283 -151 239 -213 139 -213 c 0
 115 -213 95 -211 77 -204 c 1
 77 -97 l 1
 84 -97 91 -98 98 -98 c 0
 150 -98 177 -80 190 -41 c 2
 206 -1 l 1
 20 528 l 1
EndSplineSet
Substitution2: "<3,3> Small Caps in Latin lookup 0 subtable" Y.smcp
EndChar

StartChar: z
Encoding: 122 122 94
Width: 495
Flags: MW
HStem: 0 114<207 466 207 466> 414 114<34 276 34 458>
LayerCount: 2
Fore
SplineSet
27 0 m 1
 27 86 l 1
 276 414 l 1
 34 414 l 1
 34 528 l 1
 458 528 l 1
 458 445 l 1
 207 114 l 1
 466 114 l 1
 466 0 l 1
 27 0 l 1
EndSplineSet
Substitution2: "<3,3> Small Caps in Latin lookup 0 subtable" Z.smcp
EndChar

StartChar: braceleft
Encoding: 123 123 95
Width: 334
Flags: MW
HStem: 251 102<23 53.5>
VStem: 110 127<52 151 14.5 181.5 454 553>
LayerCount: 2
Fore
SplineSet
23 251 m 1
 23 353 l 1
 86 353 110 391 110 454 c 2
 110 553 l 2
 110 685 180 750 286 780 c 1
 313 701 l 1
 258 681 237 628 237 553 c 2
 237 454 l 2
 237 379 204 330 150 302 c 1
 203 275 237 225 237 151 c 2
 237 52 l 2
 237 -23 258 -77 313 -97 c 1
 286 -176 l 1
 180 -146 110 -81 110 52 c 2
 110 151 l 2
 110 212 84 251 23 251 c 1
EndSplineSet
EndChar

StartChar: bar
Encoding: 124 124 96
Width: 159
Flags: MW
HStem: 691 20G<36 122 122 122>
VStem: 36 86<-132 711 -132 711>
LayerCount: 2
Fore
SplineSet
36 -132 m 1
 36 711 l 1
 122 711 l 1
 122 -132 l 1
 36 -132 l 1
EndSplineSet
EndChar

StartChar: braceright
Encoding: 125 125 97
Width: 335
Flags: MW
HStem: 251 102<278.5 310>
VStem: 96 127<52 151 -14.5 189.5 454 553>
LayerCount: 2
Fore
SplineSet
20 -97 m 1
 75 -77 96 -22 96 52 c 2
 96 151 l 2
 96 228 132 277 185 302 c 1
 129 328 96 378 96 454 c 2
 96 553 l 2
 96 627 75 681 20 701 c 1
 47 780 l 1
 153 750 223 685 223 553 c 2
 223 454 l 2
 223 391 247 353 310 353 c 1
 310 251 l 1
 247 251 223 214 223 151 c 2
 223 52 l 2
 223 -81 153 -146 47 -176 c 1
 20 -97 l 1
EndSplineSet
EndChar

StartChar: asciitilde
Encoding: 126 126 98
Width: 608
Flags: MW
HStem: 183 116<388.5 425.5> 289 115<181.5 206.5 181.5 207>
VStem: 32 105<203 224 202 248.5> 472 104<365 387 341.5 388>
LayerCount: 2
Fore
SplineSet
32 203 m 1x70
 32 294 66 361 128 390 c 0
 148 399 170 404 193 404 c 0x70
 220 404 244 399 265 388 c 0
 286 377 308 361 331 340 c 0
 352 319 371 299 406 299 c 0
 451 299 472 342 472 388 c 1
 576 387 l 1
 576 296 540 228 479 198 c 0
 459 188 437 183 414 183 c 0xb0
 348 183 312 215 277 248 c 0
 263 261 250 271 238 278 c 0
 226 285 214 289 200 289 c 0
 156 289 137 246 137 202 c 1
 32 203 l 1x70
EndSplineSet
EndChar

StartChar: exclamdown
Encoding: 161 161 100
Width: 217
Flags: MW
HStem: 388 150<90 127.5 86 131.5>
VStem: 29 159<457.5 468.5 440.5 486> 50 118<312 312>
LayerCount: 2
Fore
SplineSet
29 463 m 0xc0
 29 509 63 538 109 538 c 0
 146 538 170 518 182 492 c 0
 186 483 188 474 188 463 c 0
 188 418 154 388 109 388 c 0
 71 388 47 408 35 434 c 0
 31 443 29 452 29 463 c 0xc0
34 -180 m 1
 50 312 l 1
 168 312 l 1xa0
 184 -180 l 1
 34 -180 l 1
EndSplineSet
EndChar

StartChar: cent
Encoding: 162 162 101
Width: 513
Flags: MW
HStem: -120 224<225 293.5 225 318 221 293.5> 424 220<225 293.5>
VStem: 25 141<257 271 215.5 325.5> 221 97<-120 -6 -6 -6 534 644> 356 132<141.5 183 332 345.5>
LayerCount: 2
Fore
SplineSet
25 257 m 2
 25 271 l 2
 25 380 67 459 135 502 c 0
 159 518 188 529 221 534 c 1
 221 644 l 1
 318 644 l 1
 318 534 l 1
 396 520 450 475 475 407 c 0
 483 384 488 359 488 332 c 1
 356 332 l 1
 356 386 321 424 266 424 c 0
 184 424 166 353 166 271 c 2
 166 257 l 2
 166 174 183 104 267 104 c 0
 320 104 353 133 356 183 c 1
 488 183 l 1
 488 100 441 48 386 18 c 0
 365 7 343 -1 318 -5 c 1
 318 -120 l 1
 221 -120 l 1
 221 -6 l 1
 95 15 25 111 25 257 c 2
EndSplineSet
EndChar

StartChar: sterling
Encoding: 163 163 102
Width: 571
Flags: MW
HStem: 0 118<29 74 227 546 29 74> 281 115<27 103 27 103 27 106 254 254 254 401> 602 118<304.5 347>
VStem: 103 147<396 396> 109 148<192 205>
LayerCount: 2
Fore
SplineSet
27 281 m 1xe8
 27 396 l 1
 103 396 l 1
 99 507 l 2
 99 613 152 678 231 706 c 0
 258 716 288 720 321 720 c 0
 427 720 497 676 527 600 c 0
 537 575 542 547 542 517 c 1
 402 517 l 1
 402 572 374 602 320 602 c 0
 270 602 246 561 246 507 c 2
 250 396 l 1xf0
 401 396 l 1
 401 281 l 1
 254 281 l 1
 257 213 l 2
 257 171 247 142 227 118 c 1
 546 118 l 1
 546 0 l 1
 29 0 l 1
 29 118 l 1
 74 118 l 1
 105 126 109 167 109 205 c 2
 106 281 l 1
 27 281 l 1xe8
EndSplineSet
EndChar

StartChar: currency
Encoding: 164 164 103
Width: 662
Flags: MW
HStem: -10 93<299 361 299 367> 510 93<299 343.5>
VStem: 39 90<264.5 329.5 264.5 334> 529 91<264.5 333 262 346>
LayerCount: 2
Fore
SplineSet
22 58 m 1
 87 125 l 1
 59 171 39 226 39 297 c 0
 39 371 60 430 92 475 c 1
 22 547 l 1
 90 617 l 1
 160 546 l 1
 203 578 259 603 330 603 c 0
 401 603 457 578 500 545 c 1
 570 618 l 1
 640 547 l 1
 567 473 l 1
 598 428 620 369 620 297 c 0
 620 227 600 171 572 126 c 1
 640 58 l 1
 570 -13 l 1
 506 52 l 1
 462 17 404 -10 330 -10 c 0
 255 -10 197 16 153 52 c 1
 90 -13 l 1
 22 58 l 1
129 297 m 0
 129 232 155 180 188 145 c 0
 220 111 268 83 330 83 c 0
 392 83 439 111 471 145 c 0
 504 180 529 232 529 297 c 0
 529 395 477 463 408 494 c 0
 384 505 357 510 330 510 c 0
 268 510 220 482 188 448 c 0
 155 413 129 362 129 297 c 0
EndSplineSet
EndChar

StartChar: yen
Encoding: 165 165 104
Width: 633
Flags: MW
HStem: 0 21G<240 387 240 240> 136 85<76 240 76 240 387 543> 277 85<76 203 76 240 76 203 428 543> 691 20G<20 181 181 181 451 612 612 612>
VStem: 240 147<0 136 0 136 221 277 0 277>
LayerCount: 2
Fore
SplineSet
20 711 m 1
 181 711 l 1
 316 415 l 1
 451 711 l 1
 612 711 l 1
 428 362 l 1
 543 362 l 1
 543 277 l 1
 387 277 l 1
 387 221 l 1
 543 221 l 1
 543 136 l 1
 387 136 l 1
 387 0 l 1
 240 0 l 1
 240 136 l 1
 76 136 l 1
 76 221 l 1
 240 221 l 1
 240 277 l 1
 76 277 l 1
 76 362 l 1
 203 362 l 1
 20 711 l 1
EndSplineSet
EndChar

StartChar: brokenbar
Encoding: 166 166 105
Width: 200
Flags: MW
HStem: 691 20G<36 163 163 163>
VStem: 36 127<-132 256 -132 256 341 711>
LayerCount: 2
Fore
SplineSet
36 -132 m 1
 36 256 l 1
 163 256 l 1
 163 -132 l 1
 36 -132 l 1
36 341 m 1
 36 711 l 1
 163 711 l 1
 163 341 l 1
 36 341 l 1
EndSplineSet
EndChar

StartChar: section
Encoding: 167 167 106
Width: 579
Flags: MW
HStem: -221 115<255.5 309> 607 114<271.5 323>
VStem: 25 141<250.5 291.5 250.5 294> 38 141<512 540.5 512 584.5> 401 141<-64.5 -26> 416 139<204.5 244.5>
LayerCount: 2
Fore
SplineSet
24 -17 m 1xc8
 165 -17 l 1
 165 -86 221 -106 290 -106 c 0
 348 -106 401 -90 401 -39 c 0
 401 -13 389 0 371 12 c 0
 340 32 304 42 258 55 c 0
 166 80 79 108 41 184 c 0
 30 205 25 231 25 261 c 0xe8
 25 327 59 368 104 394 c 1
 63 424 38 466 38 535 c 0
 38 634 108 685 187 708 c 0
 218 717 252 721 291 721 c 0
 407 721 492 681 528 601 c 0
 540 575 545 545 545 512 c 1
 404 512 l 1
 404 575 355 607 291 607 c 0
 241 607 202 595 186 563 c 0
 182 554 179 545 179 536 c 0
 179 488 212 475 250 462 c 0
 380 419 555 405 555 235 c 0xd4
 555 169 521 128 476 103 c 1
 517 73 542 31 542 -38 c 0
 542 -137 475 -188 394 -209 c 0
 363 -217 328 -221 290 -221 c 0
 164 -221 67 -180 35 -86 c 0
 28 -66 24 -43 24 -17 c 1xc8
166 275 m 0
 166 226 198 210 237 196 c 0
 273 183 336 168 375 152 c 1
 398 165 416 188 416 221 c 0xe4
 416 268 378 284 341 299 c 0
 304 313 243 328 203 344 c 1
 180 331 166 308 166 275 c 0
EndSplineSet
EndChar

StartChar: dieresis
Encoding: 168 168 107
Width: 439
Flags: MW
HStem: 605 124<81 119 81 119>
VStem: 32 135<648 685.5 648 686> 270 135<648 685.5 648 686>
LayerCount: 2
Fore
SplineSet
32 667 m 0
 32 705 62 729 100 729 c 0
 138 729 167 704 167 667 c 0
 167 629 138 605 100 605 c 0
 61 605 32 628 32 667 c 0
270 667 m 0
 270 705 300 729 338 729 c 0
 376 729 405 704 405 667 c 0
 405 629 376 604 338 604 c 0
 299 604 270 629 270 667 c 0
EndSplineSet
EndChar

StartChar: copyright
Encoding: 169 169 108
Width: 742
Flags: MW
HStem: -10 61<351 416.5 351 424> 138 66<330 394 330 415> 508 66<350.5 393.5> 660 61<355 400>
VStem: 24 60<298.5 402.5 285.5 413.5> 193 76<327 385 292.5 428.5> 451 76<260 291> 657 60<308 414 299.5 420>
LayerCount: 2
Fore
SplineSet
24 356 m 0
 24 471 69 556 126 616 c 0
 166 658 217 690 279 708 c 0
 309 717 339 721 371 721 c 0
 480 721 560 673 616 616 c 0
 674 555 717 472 717 356 c 0
 717 243 674 155 616 95 c 0
 560 37 477 -10 371 -10 c 0
 262 -10 181 37 126 95 c 0
 69 156 24 241 24 356 c 0
84 356 m 0
 84 215 161 119 259 74 c 0
 294 58 331 51 371 51 c 0
 462 51 528 90 574 139 c 0
 622 190 657 260 657 356 c 0
 657 484 595 571 515 620 c 0
 477 643 429 660 371 660 c 0
 282 660 215 620 168 572 c 0
 120 523 84 449 84 356 c 0
193 327 m 2
 193 385 l 2
 193 472 231 533 292 560 c 0
 313 569 337 574 364 574 c 0
 466 574 528 522 528 420 c 1
 452 420 l 1
 452 481 423 508 364 508 c 0
 297 508 269 453 269 385 c 2
 269 327 l 2
 269 258 296 204 364 204 c 0
 424 204 451 229 451 291 c 1
 527 291 l 1
 527 189 466 138 364 138 c 0
 278 138 227 185 205 250 c 0
 197 273 193 299 193 327 c 2
EndSplineSet
EndChar

StartChar: ordfeminine
Encoding: 170 170 109
Width: 368
Flags: MW
HStem: 337 71<151 170> 504 58<192 193 193 242> 648 73<167 205>
VStem: 26 85<435 454.5 435 491.5> 34 84<607 617.5 600 646.5> 242 86<438 504 504 504 562 586>
LayerCount: 2
Fore
SplineSet
26 449 m 0xf4
 26 534 98 562 192 562 c 2
 242 562 l 1
 242 586 l 2
 242 625 224 648 186 648 c 0
 148 648 118 635 118 600 c 1
 34 607 l 1xec
 34 686 107 721 186 721 c 0
 274 721 328 674 328 586 c 2
 328 433 l 2
 328 399 332 372 340 344 c 1
 254 344 l 1
 250 354 247 365 246 377 c 1
 224 354 193 337 147 337 c 0
 73 337 26 376 26 449 c 0xf4
111 451 m 0xf4
 111 419 134 408 168 408 c 0
 196 408 227 424 242 438 c 1
 242 504 l 1
 193 504 l 2
 156 504 128 495 116 471 c 0
 113 464 111 458 111 451 c 0xf4
EndSplineSet
EndChar

StartChar: guillemotleft
Encoding: 171 171 110
Width: 468
Flags: W
LayerCount: 2
Fore
SplineSet
26 251 m 1
 26 261 l 1
 162 451 l 1
 253 451 l 1
 136 256 l 1
 253 61 l 1
 162 61 l 1
 26 251 l 1
214 251 m 1
 214 261 l 1
 350 451 l 1
 441 451 l 1
 324 256 l 1
 441 61 l 1
 350 61 l 1
 214 251 l 1
EndSplineSet
EndChar

StartChar: logicalnot
Encoding: 172 172 111
Width: 477
Flags: MW
HStem: 310 83<33 440 33 343>
VStem: 343 97<183 310 310 310>
LayerCount: 2
Fore
SplineSet
33 310 m 1
 33 393 l 1
 440 393 l 1
 440 183 l 1
 343 183 l 1
 343 310 l 1
 33 310 l 1
EndSplineSet
EndChar

StartChar: uni00AD
Encoding: 173 173 112
Width: 346
Flags: MW
HStem: 248 113<35 310 35 310>
VStem: 35 275<248 361 248 361>
LayerCount: 2
Fore
SplineSet
35 248 m 1
 35 361 l 1
 310 361 l 1
 310 248 l 1
 35 248 l 1
EndSplineSet
EndChar

StartChar: registered
Encoding: 174 174 113
Width: 742
Flags: MW
HStem: -10 61<351 416.5 351 424> 319 65<300 367 367 378 300 367> 504 65<300 364 300 300> 660 61<326.5 400>
VStem: 24 60<298.5 402.5 285.5 413.5> 227 73<154 319 384 504> 447 74<212.5 224 224 251 212.5 275> 454 75<154 162> 657 60<308 373.5 299.5 420>
LayerCount: 2
Fore
SplineSet
24 356 m 0xfc80
 24 471 69 556 126 616 c 0
 181 674 261 721 371 721 c 0
 480 721 560 673 616 616 c 0
 657 573 687 520 704 455 c 0
 712 424 717 391 717 356 c 0
 717 243 674 156 616 96 c 0
 560 38 477 -10 371 -10 c 0
 262 -10 181 38 126 96 c 0
 69 157 24 241 24 356 c 0xfc80
84 356 m 0
 84 215 161 119 259 74 c 0
 294 58 331 51 371 51 c 0
 462 51 528 90 574 139 c 0
 622 190 657 260 657 356 c 0
 657 484 595 571 515 620 c 0
 477 643 429 660 371 660 c 0
 282 660 215 621 168 573 c 0
 120 524 84 449 84 356 c 0
227 154 m 1
 227 569 l 1
 364 569 l 2
 455 569 523 532 523 441 c 0
 523 398 497 373 467 356 c 1
 504 338 521 303 521 251 c 2
 521 224 l 2xfe80
 521 201 522 178 529 162 c 1
 529 154 l 1
 454 154 l 1xfd80
 449 168 447 191 447 210 c 2
 447 251 l 2xfe80
 447 299 427 319 378 319 c 2
 300 319 l 1
 300 154 l 1
 227 154 l 1
300 384 m 1
 367 384 l 2
 408 384 449 401 449 441 c 0
 449 494 418 504 364 504 c 2
 300 504 l 1
 300 384 l 1
EndSplineSet
EndChar

StartChar: macron
Encoding: 175 175 114
AltUni2: 0002c9.ffffffff.0
Width: 427
Flags: MW
HStem: 630 81<68 425 68 425>
LayerCount: 2
Fore
SplineSet
68 630 m 1
 68 711 l 1
 425 711 l 1
 425 630 l 1
 68 630 l 1
EndSplineSet
EndChar

StartChar: degree
Encoding: 176 176 115
Width: 321
Flags: MW
HStem: 453 72<156 169> 648 73<151 178>
VStem: 28 71<576.5 603.5 571.5 617.5> 220 71<568 595.5 555 604>
LayerCount: 2
Fore
SplineSet
28 586 m 0
 28 649 65 690 109 710 c 0
 125 717 142 721 160 721 c 0
 220 721 263 682 281 638 c 0
 288 622 291 605 291 586 c 0
 291 524 255 483 211 464 c 0
 195 457 178 453 160 453 c 0
 99 453 57 491 38 534 c 0
 31 550 28 567 28 586 c 0
99 586 m 0
 99 557 117 539 137 530 c 0
 144 527 152 525 160 525 c 0
 196 525 220 550 220 586 c 0
 220 622 196 648 160 648 c 0
 125 648 99 621 99 586 c 0
EndSplineSet
EndChar

StartChar: plusminus
Encoding: 177 177 116
Width: 501
Flags: MW
HStem: 0 116<39 460 39 460> 343 117<27 190 27 190 314 474>
VStem: 190 124<165 343 165 343 460 628>
LayerCount: 2
Fore
SplineSet
27 343 m 1
 27 460 l 1
 190 460 l 1
 190 628 l 1
 314 628 l 1
 314 460 l 1
 474 460 l 1
 474 343 l 1
 314 343 l 1
 314 165 l 1
 190 165 l 1
 190 343 l 1
 27 343 l 1
39 0 m 1
 39 116 l 1
 460 116 l 1
 460 0 l 1
 39 0 l 1
EndSplineSet
EndChar

StartChar: twosuperior
Encoding: 178 178 117
Width: 366
Flags: MW
HStem: 326 80<166 337 166 337> 636 80<164 194.5>
VStem: 26 100<583 599 583 614.5> 226 100<591 608.5>
LayerCount: 2
Fore
SplineSet
26 583 m 1
 26 646 65 688 113 706 c 0
 132 713 152 716 175 716 c 0
 263 716 326 679 326 595 c 0
 326 542 297 512 267 486 c 0
 254 474 238 462 220 448 c 2
 166 406 l 1
 337 406 l 1
 337 326 l 1
 35 326 l 1
 35 393 l 1
 175 519 l 2
 193 535 206 550 214 563 c 0
 222 576 226 587 226 595 c 0
 226 622 209 636 180 636 c 0
 148 636 126 615 126 583 c 1
 26 583 l 1
EndSplineSet
EndChar

StartChar: threesuperior
Encoding: 179 179 118
Width: 369
Flags: MW
HStem: 320 80<171.5 202 171.5 221> 488 67<136 179 136 179> 635 81<171.5 197>
VStem: 234 100<583 611.5> 241 100<429 459.5 392.5 461>
LayerCount: 2
Fore
SplineSet
26 440 m 1xe8
 127 440 l 1
 127 412 157 400 186 400 c 0
 218 400 241 415 241 443 c 0xe8
 241 479 216 488 179 488 c 2
 136 488 l 1
 136 555 l 1
 179 555 l 2
 212 555 234 568 234 598 c 0
 234 625 211 635 183 635 c 0
 160 635 133 627 133 606 c 1
 33 606 l 1
 33 665 77 696 124 709 c 0
 141 714 160 716 180 716 c 0
 263 716 334 687 334 605 c 0xf0
 334 560 303 536 268 523 c 1
 311 512 341 486 341 433 c 0
 341 352 262 320 180 320 c 0
 116 320 65 343 40 384 c 0
 31 399 26 418 26 440 c 1xe8
EndSplineSet
EndChar

StartChar: acute
Encoding: 180 180 119
Width: 308
Flags: MW
HStem: 599 151<30 280 127 145>
VStem: 30 250<599 750>
LayerCount: 2
Fore
SplineSet
30 599 m 1
 127 750 l 1
 280 750 l 1
 145 599 l 1
 30 599 l 1
EndSplineSet
EndChar

StartChar: mu
Encoding: 181 181 120
Width: 543
Flags: MW
HStem: -203 21G<37 37 37 178> -10 114<246.5 287.5> 0 21G<376 507 376 376> 508 20G<37 178 178 178 366 507 507 507>
VStem: 37 141<-203 12 189 226 226 528> 366 141<156 528 0 528>
LayerCount: 2
Fore
SplineSet
37 -203 m 1xdc
 37 528 l 1
 178 528 l 1
 178 226 l 2
 178 152 195 104 266 104 c 0xdc
 317 104 348 123 366 156 c 1
 366 528 l 1
 507 528 l 1
 507 0 l 1
 376 0 l 1xbc
 373 33 l 1
 347 7 312 -10 263 -10 c 0
 230 -10 201 -3 178 12 c 1
 178 -203 l 1
 37 -203 l 1xdc
EndSplineSet
EndChar

StartChar: paragraph
Encoding: 182 182 121
Width: 582
Flags: MW
HStem: 0 21G<304 411 304 304 438 545 438 438> 691 20G<264 411 411 411 438 545 545 545>
VStem: 24 387<465.5 537.5> 304 107<0 254 254 254> 438 107<0 711 0 711>
LayerCount: 2
Fore
SplineSet
24 482 m 0xe8
 24 593 79 662 161 694 c 0
 191 706 225 711 264 711 c 2
 411 711 l 1
 411 0 l 1
 304 0 l 1
 304 254 l 1xd8
 264 254 l 2
 148 254 70 306 39 391 c 0
 29 419 24 449 24 482 c 0xe8
438 0 m 1
 438 711 l 1
 545 711 l 1
 545 0 l 1
 438 0 l 1
EndSplineSet
EndChar

StartChar: periodcentered
Encoding: 183 183 122
Width: 225
Flags: MW
HStem: 265 151<89 135>
VStem: 32 160<317 363>
LayerCount: 2
Fore
SplineSet
32 340 m 0
 32 386 65 416 112 416 c 0
 159 416 192 387 192 340 c 0
 192 294 158 265 112 265 c 0
 66 265 32 293 32 340 c 0
EndSplineSet
EndChar

StartChar: cedilla
Encoding: 184 184 123
Width: 249
Flags: MW
HStem: -226 82<48 59.5 44 62> -66 69<30 150>
VStem: 99 119<-119 -87.5>
LayerCount: 2
Fore
SplineSet
30 -66 m 1
 45 3 l 1
 150 3 l 1
 145 -25 l 1
 188 -31 218 -59 218 -109 c 0
 218 -172 174 -204 122 -218 c 0
 101 -224 76 -226 48 -226 c 1
 44 -144 l 1
 75 -144 99 -134 99 -104 c 0
 99 -71 67 -69 30 -66 c 1
EndSplineSet
EndChar

StartChar: onesuperior
Encoding: 185 185 124
Width: 253
Flags: MW
HStem: 690 20G<207 216 216 216>
VStem: 116 100<326 594 594 594>
LayerCount: 2
Fore
SplineSet
24 574 m 1
 24 651 l 1
 207 710 l 1
 216 710 l 1
 216 326 l 1
 116 326 l 1
 116 594 l 1
 24 574 l 1
EndSplineSet
EndChar

StartChar: ordmasculine
Encoding: 186 186 125
Width: 391
Flags: MW
HStem: 337 71<166.5 209> 648 73<182 223.5>
VStem: 26 85<510 547 480.5 588.5> 279 85<510 547 469 575.5>
LayerCount: 2
Fore
SplineSet
26 510 m 2
 26 547 l 2
 26 630 65 684 124 708 c 0
 145 717 169 721 195 721 c 0
 278 721 330 678 352 617 c 0
 360 596 364 572 364 547 c 2
 364 510 l 2
 364 428 325 374 266 350 c 0
 245 342 222 337 196 337 c 0
 112 337 61 379 38 440 c 0
 30 461 26 485 26 510 c 2
111 510 m 2
 111 451 137 408 196 408 c 0
 253 408 279 453 279 510 c 2
 279 547 l 2
 279 604 252 648 195 648 c 0
 137 648 111 606 111 547 c 2
 111 510 l 2
EndSplineSet
EndChar

StartChar: guillemotright
Encoding: 187 187 126
Width: 475
Flags: W
LayerCount: 2
Fore
SplineSet
28 61 m 1
 145 255 l 1
 28 451 l 1
 119 451 l 1
 256 260 l 1
 256 251 l 1
 119 61 l 1
 28 61 l 1
220 61 m 1
 337 255 l 1
 220 451 l 1
 311 451 l 1
 448 260 l 1
 448 251 l 1
 311 61 l 1
 220 61 l 1
EndSplineSet
EndChar

StartChar: onequarter
Encoding: 188 188 127
Width: 675
Flags: MW
HStem: 0 21G<509 609 509 509> 78 81<431 509 431 509 609 653>
VStem: 114 100<324 592 592 592> 509 100<0 78 0 78 159 261 261 261 384 385>
LayerCount: 2
Fore
SplineSet
22 572 m 1
 22 649 l 1
 205 708 l 1
 214 708 l 1
 214 324 l 1
 114 324 l 1
 114 592 l 1
 22 572 l 1
128 94 m 1
 475 650 l 1
 544 613 l 1
 196 57 l 1
 128 94 l 1
335 144 m 1
 509 384 l 1
 509 385 l 1
 609 385 l 1
 609 159 l 1
 653 159 l 1
 653 78 l 1
 609 78 l 1
 609 0 l 1
 509 0 l 1
 509 78 l 1
 341 78 l 1
 335 144 l 1
431 159 m 1
 509 159 l 1
 509 261 l 1
 484 226 457 193 431 159 c 1
EndSplineSet
EndChar

StartChar: onehalf
Encoding: 189 189 128
Width: 725
Flags: MW
HStem: 0 80<531 702 531 702> 310 81<528.5 559.5> 691 20G<205 214 214 214>
VStem: 114 100<327 595 595 595> 391 100<257 273 257 289> 591 100<265.5 282.5>
LayerCount: 2
Fore
SplineSet
22 575 m 1
 22 652 l 1
 205 711 l 1
 214 711 l 1
 214 327 l 1
 114 327 l 1
 114 595 l 1
 22 575 l 1
116 94 m 1
 463 650 l 1
 532 613 l 1
 184 57 l 1
 116 94 l 1
391 257 m 1
 391 321 430 361 478 380 c 0
 497 387 517 391 540 391 c 0
 628 391 691 354 691 270 c 0
 691 217 662 186 632 160 c 0
 619 148 603 136 585 122 c 2
 531 80 l 1
 702 80 l 1
 702 0 l 1
 400 0 l 1
 400 67 l 1
 540 193 l 2
 558 209 571 224 579 238 c 0
 587 252 591 262 591 269 c 0
 591 296 574 310 545 310 c 0
 512 310 491 289 491 257 c 1
 391 257 l 1
EndSplineSet
EndChar

StartChar: threequarters
Encoding: 190 190 129
Width: 757
Flags: MW
HStem: 0 21G<591 691 591 591> 78 81<513 591 513 591 691 735> 321 80<168.5 199 168.5 218> 489 66<133 176 133 176> 636 81<168.5 194>
VStem: 231 100<583.5 611.5> 238 100<430 460.5 393.5 462> 591 100<0 78 0 78 159 261 261 261 384 385>
LayerCount: 2
Fore
SplineSet
23 441 m 1xfb
 124 441 l 1
 124 413 154 401 183 401 c 0
 215 401 238 416 238 444 c 0xfb
 238 480 213 489 176 489 c 2
 133 489 l 1
 133 555 l 1
 176 555 l 2
 208 555 231 569 231 598 c 0
 231 625 208 636 180 636 c 0
 157 636 130 628 130 607 c 1
 30 607 l 1
 30 667 74 696 121 710 c 0
 138 715 157 717 177 717 c 0
 259 717 331 687 331 606 c 0xfd
 331 561 300 537 265 524 c 1
 308 513 338 487 338 434 c 0
 338 353 259 321 177 321 c 0
 111 321 62 343 37 385 c 0
 28 400 23 419 23 441 c 1xfb
212 94 m 1
 559 650 l 1
 628 613 l 1
 280 57 l 1
 212 94 l 1
417 144 m 1
 591 384 l 1
 591 385 l 1
 691 385 l 1
 691 159 l 1
 735 159 l 1
 735 78 l 1
 691 78 l 1
 691 0 l 1
 591 0 l 1
 591 78 l 1
 423 78 l 1
 417 144 l 1
513 159 m 1
 591 159 l 1
 591 261 l 1
 566 226 539 193 513 159 c 1
EndSplineSet
EndChar

StartChar: questiondown
Encoding: 191 191 130
Width: 490
Flags: MW
HStem: -188 115<218 268 218 310.5> 389 149<232.5 279.5>
VStem: 26 141<-21 10.5 -21 26.5> 177 158<440 486.5> 192 125<286 314>
LayerCount: 2
Fore
SplineSet
26 3 m 0xe8
 26 50 42 83 63 112 c 0
 87 145 118 173 148 201 c 0
 178 227 192 258 192 314 c 1
 317 314 l 1
 317 223 293 173 245 130 c 0
 217 103 187 79 173 40 c 0
 169 29 167 17 167 4 c 0
 167 -46 194 -73 242 -73 c 0
 294 -73 325 -42 325 11 c 1
 467 11 l 1
 467 -121 376 -188 245 -188 c 0
 113 -188 26 -128 26 3 c 0xe8
177 463 m 0xf0
 177 510 208 538 256 538 c 0
 303 538 335 510 335 463 c 0
 335 417 303 389 256 389 c 0
 209 389 177 417 177 463 c 0xf0
EndSplineSet
EndChar

StartChar: Agrave
Encoding: 192 192 131
Width: 708
Flags: MW
HStem: 0 21G<20 20 20 176 531 531 531 687> 146 119<265 442 265 482 225 442> 691 20G<285 421 421 421> 750 21G<309 425 309 309>
LayerCount: 2
Fore
SplineSet
20 0 m 1
 285 711 l 1
 421 711 l 1
 687 0 l 1
 531 0 l 1
 482 146 l 1
 225 146 l 1
 176 0 l 1
 20 0 l 1
174 901 m 1
 328 901 l 1
 425 750 l 1
 309 750 l 1
 174 901 l 1
265 265 m 1
 442 265 l 1
 353 531 l 1
 265 265 l 1
EndSplineSet
Substitution2: "<3,3> Small Caps in Latin lookup 0 subtable" Agrave.smcp
EndChar

StartChar: Aacute
Encoding: 193 193 132
Width: 708
Flags: MW
HStem: 0 21G<20 20 20 176 531 531 531 687> 146 119<265 442 265 482 225 442> 691 20G<285 421 421 421> 750 21G<287 287 287 402>
LayerCount: 2
Fore
SplineSet
20 0 m 1
 285 711 l 1
 421 711 l 1
 687 0 l 1
 531 0 l 1
 482 146 l 1
 225 146 l 1
 176 0 l 1
 20 0 l 1
265 265 m 1
 442 265 l 1
 353 531 l 1
 265 265 l 1
287 750 m 1
 384 901 l 1
 537 901 l 1
 402 750 l 1
 287 750 l 1
EndSplineSet
Substitution2: "<3,3> Small Caps in Latin lookup 0 subtable" Aacute.smcp
EndChar

StartChar: Acircumflex
Encoding: 194 194 133
Width: 708
Flags: MW
HStem: 0 21G<20 20 20 176 531 531 531 687> 146 119<265 442 265 482 225 442> 691 20G<285 421 421 421> 758 21G<169 169 169 279 430 430 430 542>
LayerCount: 2
Fore
SplineSet
20 0 m 1
 285 711 l 1
 421 711 l 1
 687 0 l 1
 531 0 l 1
 482 146 l 1
 225 146 l 1
 176 0 l 1
 20 0 l 1
169 758 m 1
 169 766 l 1
 314 901 l 1
 396 901 l 1
 542 764 l 1
 542 758 l 1
 430 758 l 1
 355 829 l 1
 279 758 l 1
 169 758 l 1
265 265 m 1
 442 265 l 1
 353 531 l 1
 265 265 l 1
EndSplineSet
Substitution2: "<3,3> Small Caps in Latin lookup 0 subtable" Acircumflex.smcp
EndChar

StartChar: Atilde
Encoding: 195 195 134
Width: 708
Flags: MW
HStem: 0 21G<20 20 20 176 531 531 531 687> 146 119<265 442 265 482 225 442> 691 20G<285 421 421 421> 759 21G<253 253> 764 89<405.5 428 388 436> 806 89<281 300.5>
VStem: 171 82<764 772.5 759 792.5> 457 82<886.5 894 865 900>
LayerCount: 2
Fore
SplineSet
20 0 m 1xe3
 285 711 l 1
 421 711 l 1
 687 0 l 1
 531 0 l 1
 482 146 l 1
 225 146 l 1
 176 0 l 1
 20 0 l 1xe3
171 764 m 1xeb
 171 821 199 864 237 884 c 0
 251 891 266 895 281 895 c 0xe7
 336 895 361 853 415 853 c 0
 441 853 457 873 457 900 c 1
 539 894 l 1
 539 836 510 794 472 774 c 0
 459 767 444 764 428 764 c 0xeb
 383 764 359 786 328 800 c 0
 318 804 307 806 294 806 c 0
 268 806 253 786 253 759 c 1xf7
 171 764 l 1xeb
265 265 m 1
 442 265 l 1
 353 531 l 1
 265 265 l 1
EndSplineSet
Substitution2: "<3,3> Small Caps in Latin lookup 0 subtable" Atilde.smcp
EndChar

StartChar: Adieresis
Encoding: 196 196 135
Width: 708
Flags: MW
HStem: 0 21G<20 20 20 176 531 531 531 687> 146 119<265 442 265 482 225 442> 691 20G<285 421 421 421> 756 124<216 254 216 254>
VStem: 167 135<799 836.5 799 837> 405 135<799 836.5 799 837>
LayerCount: 2
Fore
SplineSet
20 0 m 1
 285 711 l 1
 421 711 l 1
 687 0 l 1
 531 0 l 1
 482 146 l 1
 225 146 l 1
 176 0 l 1
 20 0 l 1
167 818 m 0
 167 856 197 880 235 880 c 0
 273 880 302 855 302 818 c 0
 302 780 273 756 235 756 c 0
 196 756 167 779 167 818 c 0
265 265 m 1
 442 265 l 1
 353 531 l 1
 265 265 l 1
405 818 m 0
 405 856 435 880 473 880 c 0
 511 880 540 855 540 818 c 0
 540 780 511 755 473 755 c 0
 434 755 405 780 405 818 c 0
EndSplineSet
Substitution2: "<3,3> Small Caps in Latin lookup 0 subtable" Adieresis.smcp
EndChar

StartChar: Aring
Encoding: 197 197 136
Width: 708
Flags: MW
HStem: 0 21G<20 20 20 176 531 531 531 687> 146 119<265 442 265 482 225 442> 691 20G<285 421 421 421> 747 46<340 370.5 340 385.5> 898 47<347.5 371>
VStem: 246 56<838 860.5 830.5 869> 408 56<830 860.5>
LayerCount: 2
Fore
SplineSet
20 0 m 1
 285 711 l 1
 421 711 l 1
 687 0 l 1
 531 0 l 1
 482 146 l 1
 225 146 l 1
 176 0 l 1
 20 0 l 1
246 845 m 0
 246 893 277 923 312 937 c 0
 325 942 340 945 355 945 c 0
 416 945 464 906 464 845 c 0
 464 784 416 747 355 747 c 0
 305 747 271 772 255 806 c 0
 249 818 246 831 246 845 c 0
265 265 m 1
 442 265 l 1
 353 531 l 1
 265 265 l 1
302 845 m 0
 302 816 325 793 355 793 c 0
 386 793 408 815 408 845 c 0
 408 876 387 898 355 898 c 0
 323 898 302 876 302 845 c 0
EndSplineSet
Substitution2: "<3,3> Small Caps in Latin lookup 0 subtable" Aring.smcp
EndChar

StartChar: AE
Encoding: 198 198 137
Width: 956
Flags: MW
HStem: 0 115<627 929 627 929> 163 120<327 479 327 484 266 479> 307 115<619 859 619 619> 596 115<607 899 607 607>
VStem: 467 140<562 596>
LayerCount: 2
Fore
SplineSet
19 0 m 1
 403 711 l 1
 899 711 l 1
 899 596 l 1
 607 596 l 1
 614 422 l 1
 859 422 l 1
 859 307 l 1
 619 307 l 1
 627 115 l 1
 929 115 l 1
 929 0 l 1
 491 0 l 1
 484 163 l 1
 266 163 l 1
 185 0 l 1
 19 0 l 1
327 283 m 1
 479 283 l 1
 467 562 l 1
 327 283 l 1
EndSplineSet
EndChar

StartChar: Ccedilla
Encoding: 199 199 138
Width: 639
Flags: MW
HStem: -226 82<273 284.5 269 287> -6 116<268 268> 601 120<300.5 369>
VStem: 28 148<332 378 378 379 271.5 457> 324 119<-119 -87.5> 461 147<237 237>
LayerCount: 2
Fore
SplineSet
28 332 m 2
 28 378 l 2
 28 536 92 649 202 697 c 0
 238 713 278 721 323 721 c 0
 496 721 592 625 609 470 c 1
 462 470 l 1
 457 556 415 601 323 601 c 0
 208 601 176 507 176 379 c 2
 176 332 l 2
 176 211 202 110 321 110 c 0
 412 110 456 152 461 237 c 1
 608 237 l 1
 599 118 534 42 438 8 c 0
 418 1 396 -4 373 -7 c 1
 370 -25 l 1
 413 -31 443 -59 443 -109 c 0
 443 -172 398 -204 346 -218 c 0
 325 -224 301 -226 273 -226 c 1
 269 -144 l 1
 300 -144 324 -134 324 -104 c 0
 324 -71 292 -69 255 -66 c 1
 268 -6 l 1
 150 12 80 89 48 190 c 0
 34 232 28 279 28 332 c 2
EndSplineSet
Substitution2: "<3,3> Small Caps in Latin lookup 0 subtable" Ccedilla.smcp
EndChar

StartChar: Egrave
Encoding: 200 200 139
Width: 541
Flags: MW
HStem: 0 118<182 512 182 512> 308 115<182 463 182 463> 592 119<182 511 182 182> 752 21G<236 352 236 236>
VStem: 35 147<118 308 423 592>
LayerCount: 2
Fore
SplineSet
35 0 m 1
 35 711 l 1
 511 711 l 1
 511 592 l 1
 182 592 l 1
 182 423 l 1
 463 423 l 1
 463 308 l 1
 182 308 l 1
 182 118 l 1
 512 118 l 1
 512 0 l 1
 35 0 l 1
101 903 m 1
 255 903 l 1
 352 752 l 1
 236 752 l 1
 101 903 l 1
EndSplineSet
Substitution2: "<3,3> Small Caps in Latin lookup 0 subtable" Egrave.smcp
EndChar

StartChar: Eacute
Encoding: 201 201 140
Width: 541
Flags: MW
HStem: 0 118<182 512 182 512> 308 115<182 463 182 463> 592 119<182 511 182 182> 752 21G<214 214 214 329>
VStem: 35 147<118 308 423 592>
LayerCount: 2
Fore
SplineSet
35 0 m 1
 35 711 l 1
 511 711 l 1
 511 592 l 1
 182 592 l 1
 182 423 l 1
 463 423 l 1
 463 308 l 1
 182 308 l 1
 182 118 l 1
 512 118 l 1
 512 0 l 1
 35 0 l 1
214 752 m 1
 311 903 l 1
 464 903 l 1
 329 752 l 1
 214 752 l 1
EndSplineSet
Substitution2: "<3,3> Small Caps in Latin lookup 0 subtable" Eacute.smcp
EndChar

StartChar: Ecircumflex
Encoding: 202 202 141
Width: 541
Flags: MW
HStem: 0 118<182 512 182 512> 308 115<182 463 182 463> 592 119<182 511 182 182> 760 21G<96 96 96 206 357 357 357 469>
VStem: 35 147<118 308 423 592>
LayerCount: 2
Fore
SplineSet
35 0 m 1
 35 711 l 1
 511 711 l 1
 511 592 l 1
 182 592 l 1
 182 423 l 1
 463 423 l 1
 463 308 l 1
 182 308 l 1
 182 118 l 1
 512 118 l 1
 512 0 l 1
 35 0 l 1
96 760 m 1
 96 768 l 1
 241 903 l 1
 323 903 l 1
 469 766 l 1
 469 760 l 1
 357 760 l 1
 282 831 l 1
 206 760 l 1
 96 760 l 1
EndSplineSet
Substitution2: "<3,3> Small Caps in Latin lookup 0 subtable" Ecircumflex.smcp
EndChar

StartChar: Edieresis
Encoding: 203 203 142
Width: 541
Flags: MW
HStem: 0 118<182 512 182 512> 308 115<182 463 182 463> 592 119<182 511 182 182> 758 124<144 182 144 182>
VStem: 35 147<118 308 423 592> 95 135<801 838.5 801 839> 333 135<801 838.5 801 839>
LayerCount: 2
Fore
SplineSet
35 0 m 1xfa
 35 711 l 1
 511 711 l 1
 511 592 l 1
 182 592 l 1
 182 423 l 1
 463 423 l 1
 463 308 l 1
 182 308 l 1
 182 118 l 1
 512 118 l 1
 512 0 l 1
 35 0 l 1xfa
95 820 m 0xf6
 95 858 125 882 163 882 c 0
 201 882 230 857 230 820 c 0
 230 782 201 758 163 758 c 0
 124 758 95 781 95 820 c 0xf6
333 820 m 0
 333 858 363 882 401 882 c 0
 439 882 468 857 468 820 c 0
 468 782 439 757 401 757 c 0
 362 757 333 782 333 820 c 0
EndSplineSet
Substitution2: "<3,3> Small Caps in Latin lookup 0 subtable" Edieresis.smcp
EndChar

StartChar: Igrave
Encoding: 204 204 143
Width: 312
Flags: MW
HStem: 0 21G<126 126 126 272> 691 20G<126 272 272 272> 752 21G<153 269 153 153>
VStem: 126 146<0 711 0 711>
LayerCount: 2
Fore
SplineSet
18 903 m 1
 172 903 l 1
 269 752 l 1
 153 752 l 1
 18 903 l 1
126 0 m 1
 126 711 l 1
 272 711 l 1
 272 0 l 1
 126 0 l 1
EndSplineSet
Substitution2: "<3,3> Small Caps in Latin lookup 0 subtable" Igrave.smcp
EndChar

StartChar: Iacute
Encoding: 205 205 144
Width: 309
Flags: MW
HStem: 0 21G<35 35 35 181> 691 20G<35 181 181 181> 752 21G<39 39 39 154>
VStem: 35 146<0 711 0 711>
LayerCount: 2
Fore
SplineSet
35 0 m 1
 35 711 l 1
 181 711 l 1
 181 0 l 1
 35 0 l 1
39 752 m 1
 136 903 l 1
 289 903 l 1
 154 752 l 1
 39 752 l 1
EndSplineSet
Substitution2: "<3,3> Small Caps in Latin lookup 0 subtable" Iacute.smcp
EndChar

StartChar: Icircumflex
Encoding: 206 206 145
Width: 411
Flags: MW
HStem: 0 21G<131 131 131 277> 691 20G<131 277 277 277> 760 21G<18 18 18 128 279 279 279 391>
VStem: 131 146<0 711 0 711>
LayerCount: 2
Fore
SplineSet
18 760 m 1
 18 768 l 1
 163 903 l 1
 245 903 l 1
 391 766 l 1
 391 760 l 1
 279 760 l 1
 204 831 l 1
 128 760 l 1
 18 760 l 1
131 0 m 1
 131 711 l 1
 277 711 l 1
 277 0 l 1
 131 0 l 1
EndSplineSet
Substitution2: "<3,3> Small Caps in Latin lookup 0 subtable" Icircumflex.smcp
EndChar

StartChar: Idieresis
Encoding: 207 207 146
Width: 411
Flags: MW
HStem: 0 21G<132 132 132 278> 691 20G<132 278 278 278> 758 124<67 105 67 105>
VStem: 18 135<801 838.5 801 839> 132 146<0 711 0 711> 256 135<801 838.5 801 839>
LayerCount: 2
Fore
SplineSet
18 820 m 0xf0
 18 858 48 882 86 882 c 0
 124 882 153 857 153 820 c 0
 153 782 124 758 86 758 c 0
 47 758 18 781 18 820 c 0xf0
132 0 m 1xe8
 132 711 l 1
 278 711 l 1
 278 0 l 1
 132 0 l 1xe8
256 820 m 0xe4
 256 858 286 882 324 882 c 0
 362 882 391 857 391 820 c 0
 391 782 362 757 324 757 c 0
 285 757 256 782 256 820 c 0xe4
EndSplineSet
Substitution2: "<3,3> Small Caps in Latin lookup 0 subtable" Idieresis.smcp
EndChar

StartChar: Eth
Encoding: 208 208 147
Width: 675
Flags: MW
HStem: 0 118<244 314 244 314> 313 90<24 97 24 97 244 365> 592 119<244 316 244 244>
VStem: 97 147<118 118 118 313 403 592> 492 149<339 371 259 372 259 437.5>
LayerCount: 2
Fore
SplineSet
24 313 m 1
 24 403 l 1
 97 403 l 1
 97 711 l 1
 316 711 l 2
 474 711 573 626 617 510 c 0
 633 468 641 422 641 371 c 2
 641 339 l 2
 641 179 562 71 447 24 c 0
 407 8 363 0 314 0 c 2
 97 0 l 1
 97 313 l 1
 24 313 l 1
244 118 m 1
 314 118 l 2
 439 118 492 208 492 339 c 2
 492 372 l 2
 492 503 441 592 316 592 c 2
 244 592 l 1
 244 403 l 1
 365 403 l 1
 365 313 l 1
 244 313 l 1
 244 118 l 1
EndSplineSet
Substitution2: "<3,3> Small Caps in Latin lookup 0 subtable" Eth.smcp
EndChar

StartChar: Ntilde
Encoding: 209 209 148
Width: 654
Flags: MW
HStem: 0 21G<35 35 35 182 467 467 467 614> 691 20G<35 182 182 182 468 614 614 614> 759 21G<224 224> 764 89<376.5 399 359 407> 806 89<252 271.5>
VStem: 35 147<0 468 0 711> 142 82<764 772.5 759 792.5> 428 82<886.5 894 865 900> 468 146<242 711 0 711>
LayerCount: 2
Fore
SplineSet
35 0 m 1xc480
 35 711 l 1
 182 711 l 1
 468 242 l 1
 468 711 l 1
 614 711 l 1
 614 0 l 1
 467 0 l 1
 182 468 l 1
 182 0 l 1
 35 0 l 1xc480
142 764 m 1xd3
 142 821 170 864 208 884 c 0
 222 891 237 895 252 895 c 0xcb
 307 895 332 853 386 853 c 0
 412 853 428 873 428 900 c 1
 510 894 l 1
 510 836 481 794 443 774 c 0
 430 767 415 764 399 764 c 0xd3
 354 764 330 786 299 800 c 0
 289 804 278 806 265 806 c 0
 239 806 224 786 224 759 c 1xeb
 142 764 l 1xd3
EndSplineSet
Substitution2: "<3,3> Small Caps in Latin lookup 0 subtable" Ntilde.smcp
EndChar

StartChar: Ograve
Encoding: 210 210 149
Width: 666
Flags: MW
HStem: -10 120<319.5 354.5> 600 121<308.5 380 308.5 388.5> 750 21G<285 401 285 285>
VStem: 28 148<339 371 371 372 289 452.5> 485 148<339 371 257 372 257 435>
LayerCount: 2
Fore
SplineSet
28 339 m 2
 28 371 l 2
 28 534 95 646 208 696 c 0
 245 712 286 721 331 721 c 0
 429 721 501 681 549 627 c 0
 601 568 633 481 633 371 c 2
 633 339 l 2
 633 175 567 64 454 14 c 0
 417 -2 377 -10 332 -10 c 0
 235 -10 161 30 113 84 c 0
 61 142 28 230 28 339 c 2
150 901 m 1
 304 901 l 1
 401 750 l 1
 285 750 l 1
 150 901 l 1
176 339 m 2
 176 239 201 159 266 125 c 0
 285 115 307 110 332 110 c 0
 446 110 485 214 485 339 c 2
 485 372 l 2
 485 498 446 600 331 600 c 0
 217 600 176 498 176 372 c 2
 176 339 l 2
EndSplineSet
Substitution2: "<3,3> Small Caps in Latin lookup 0 subtable" Ograve.smcp
EndChar

StartChar: Oacute
Encoding: 211 211 150
Width: 666
Flags: MW
HStem: -10 120<319.5 354.5> 600 121<308.5 380 308.5 388.5> 750 21G<263 263 263 378>
VStem: 28 148<339 371 371 372 289 452.5> 485 148<339 371 257 372 257 435>
LayerCount: 2
Fore
SplineSet
28 339 m 2
 28 371 l 2
 28 534 95 646 208 696 c 0
 245 712 286 721 331 721 c 0
 429 721 501 681 549 627 c 0
 601 568 633 481 633 371 c 2
 633 339 l 2
 633 175 567 64 454 14 c 0
 417 -2 377 -10 332 -10 c 0
 235 -10 161 30 113 84 c 0
 61 142 28 230 28 339 c 2
176 339 m 2
 176 239 201 159 266 125 c 0
 285 115 307 110 332 110 c 0
 446 110 485 214 485 339 c 2
 485 372 l 2
 485 498 446 600 331 600 c 0
 217 600 176 498 176 372 c 2
 176 339 l 2
263 750 m 1
 360 901 l 1
 513 901 l 1
 378 750 l 1
 263 750 l 1
EndSplineSet
Substitution2: "<3,3> Small Caps in Latin lookup 0 subtable" Oacute.smcp
EndChar

StartChar: Ocircumflex
Encoding: 212 212 151
Width: 666
Flags: MW
HStem: -10 120<319.5 354.5> 600 121<308.5 380 308.5 388.5> 758 21G<145 145 145 255 406 406 406 518>
VStem: 28 148<339 371 371 372 289 452.5> 485 148<339 371 257 372 257 435>
LayerCount: 2
Fore
SplineSet
28 339 m 2
 28 371 l 2
 28 534 95 646 208 696 c 0
 245 712 286 721 331 721 c 0
 429 721 501 681 549 627 c 0
 601 568 633 481 633 371 c 2
 633 339 l 2
 633 175 567 64 454 14 c 0
 417 -2 377 -10 332 -10 c 0
 235 -10 161 30 113 84 c 0
 61 142 28 230 28 339 c 2
145 758 m 1
 145 766 l 1
 290 901 l 1
 372 901 l 1
 518 764 l 1
 518 758 l 1
 406 758 l 1
 331 829 l 1
 255 758 l 1
 145 758 l 1
176 339 m 2
 176 239 201 159 266 125 c 0
 285 115 307 110 332 110 c 0
 446 110 485 214 485 339 c 2
 485 372 l 2
 485 498 446 600 331 600 c 0
 217 600 176 498 176 372 c 2
 176 339 l 2
EndSplineSet
Substitution2: "<3,3> Small Caps in Latin lookup 0 subtable" Ocircumflex.smcp
EndChar

StartChar: Otilde
Encoding: 213 213 152
Width: 666
Flags: MW
HStem: -10 120<319.5 354.5> 600 121<308.5 380 308.5 388.5> 759 21G<229 229> 764 89<381.5 404 378 412> 806 89<257 271 249.5 276.5>
VStem: 28 148<339 371 371 372 289 452.5> 147 82<764 772.5 759 792.5> 433 82<886.5 894 865 900> 485 148<339 371 257 372 257 435>
LayerCount: 2
Fore
SplineSet
28 339 m 2xc480
 28 371 l 2
 28 534 95 646 208 696 c 0
 245 712 286 721 331 721 c 0
 429 721 501 681 549 627 c 0
 601 568 633 481 633 371 c 2
 633 339 l 2
 633 175 567 64 454 14 c 0
 417 -2 377 -10 332 -10 c 0
 235 -10 161 30 113 84 c 0
 61 142 28 230 28 339 c 2xc480
147 764 m 1xd3
 147 821 176 864 214 884 c 0
 228 891 242 895 257 895 c 0xcb
 285 895 306 883 326 874 c 0
 345 865 365 853 391 853 c 0
 417 853 433 873 433 900 c 1
 515 894 l 1
 515 836 486 794 448 774 c 0
 435 767 420 764 404 764 c 0xd3
 359 764 335 786 304 800 c 0
 294 804 283 806 270 806 c 0
 244 806 229 786 229 759 c 1xeb
 147 764 l 1xd3
176 339 m 2xc480
 176 239 201 159 266 125 c 0
 285 115 307 110 332 110 c 0
 446 110 485 214 485 339 c 2
 485 372 l 2
 485 498 446 600 331 600 c 0
 217 600 176 498 176 372 c 2
 176 339 l 2xc480
EndSplineSet
Substitution2: "<3,3> Small Caps in Latin lookup 0 subtable" Otilde.smcp
EndChar

StartChar: Odieresis
Encoding: 214 214 153
Width: 666
Flags: MW
HStem: -10 120<319.5 354.5> 600 121<308.5 380 308.5 388.5> 756 124<192 230 192 230>
VStem: 28 148<339 371 371 372 289 452.5> 143 135<799 836.5 799 837> 381 135<799 836.5 799 837> 485 148<339 371 257 372 257 435>
LayerCount: 2
Fore
SplineSet
28 339 m 2xf2
 28 371 l 2
 28 534 95 646 208 696 c 0
 245 712 286 721 331 721 c 0
 429 721 501 681 549 627 c 0
 601 568 633 481 633 371 c 2
 633 339 l 2
 633 175 567 64 454 14 c 0
 417 -2 377 -10 332 -10 c 0
 235 -10 161 30 113 84 c 0
 61 142 28 230 28 339 c 2xf2
143 818 m 0xe8
 143 856 173 880 211 880 c 0
 249 880 278 855 278 818 c 0
 278 780 249 756 211 756 c 0
 172 756 143 779 143 818 c 0xe8
176 339 m 2xf2
 176 239 201 159 266 125 c 0
 285 115 307 110 332 110 c 0
 446 110 485 214 485 339 c 2
 485 372 l 2
 485 498 446 600 331 600 c 0
 217 600 176 498 176 372 c 2
 176 339 l 2xf2
381 818 m 0xe4
 381 856 411 880 449 880 c 0
 487 880 516 855 516 818 c 0
 516 780 487 755 449 755 c 0
 410 755 381 780 381 818 c 0xe4
EndSplineSet
Substitution2: "<3,3> Small Caps in Latin lookup 0 subtable" Odieresis.smcp
EndChar

StartChar: multiply
Encoding: 215 215 154
Width: 511
Flags: W
LayerCount: 2
Fore
SplineSet
22 182 m 1
 172 335 l 1
 22 488 l 1
 105 570 l 1
 253 418 l 1
 402 570 l 1
 485 488 l 1
 335 335 l 1
 485 182 l 1
 402 100 l 1
 253 251 l 1
 105 100 l 1
 22 182 l 1
EndSplineSet
EndChar

StartChar: Oslash
Encoding: 216 216 155
Width: 667
Flags: MW
HStem: -10 120<316.5 354.5> 600 121<308.5 331> 721 20G
VStem: 28 149<339 371 371 372 311 452> 485 149<339 371 257.5 372 257.5 396.5>
LayerCount: 2
Fore
SplineSet
28 339 m 2xb8
 28 371 l 2
 28 533 97 646 209 696 c 0
 246 712 286 721 331 721 c 0xd8
 393 721 445 705 485 680 c 1
 521 741 l 1
 612 741 l 1
 546 630 l 1
 601 570 634 484 634 371 c 2
 634 339 l 2
 634 176 568 64 455 14 c 0
 418 -2 377 -10 332 -10 c 0
 279 -10 231 1 188 24 c 1
 147 -46 l 1
 55 -46 l 1
 125 71 l 1
 65 131 28 221 28 339 c 2xb8
177 339 m 2
 177 283 185 237 201 200 c 1
 420 569 l 1
 396 589 366 599 331 600 c 0
 217 600 177 497 177 372 c 2
 177 339 l 2
253 133 m 1
 275 118 301 110 332 110 c 0
 446 110 485 214 485 339 c 2
 485 372 l 2
 485 421 479 462 467 496 c 1
 253 133 l 1
EndSplineSet
EndChar

StartChar: Ugrave
Encoding: 217 217 156
Width: 616
Flags: MW
HStem: -10 118<263 324.5> 691 20G<33 179 179 179 431 578 578 578> 750 21G<258 374 258 258>
VStem: 33 146<242 711> 431 147<242 711>
LayerCount: 2
Fore
SplineSet
33 242 m 2
 33 711 l 1
 179 711 l 1
 179 242 l 2
 179 154 221 108 305 108 c 0
 390 108 431 154 431 242 c 2
 431 711 l 1
 578 711 l 1
 578 242 l 2
 578 114 511 37 414 6 c 0
 381 -5 344 -10 305 -10 c 0
 177 -10 92 43 53 133 c 0
 40 164 33 201 33 242 c 2
123 901 m 1
 277 901 l 1
 374 750 l 1
 258 750 l 1
 123 901 l 1
EndSplineSet
Substitution2: "<3,3> Small Caps in Latin lookup 0 subtable" Ugrave.smcp
EndChar

StartChar: Uacute
Encoding: 218 218 157
Width: 616
Flags: MW
HStem: -10 118<263 324.5> 691 20G<33 179 179 179 431 578 578 578> 750 21G<235 235 235 350>
VStem: 33 146<242 711> 431 147<242 711>
LayerCount: 2
Fore
SplineSet
33 242 m 2
 33 711 l 1
 179 711 l 1
 179 242 l 2
 179 154 221 108 305 108 c 0
 390 108 431 154 431 242 c 2
 431 711 l 1
 578 711 l 1
 578 242 l 2
 578 114 511 37 414 6 c 0
 381 -5 344 -10 305 -10 c 0
 177 -10 92 43 53 133 c 0
 40 164 33 201 33 242 c 2
235 750 m 1
 332 901 l 1
 485 901 l 1
 350 750 l 1
 235 750 l 1
EndSplineSet
Substitution2: "<3,3> Small Caps in Latin lookup 0 subtable" Uacute.smcp
EndChar

StartChar: Ucircumflex
Encoding: 219 219 158
Width: 616
Flags: MW
HStem: -10 118<263 324.5> 691 20G<33 179 179 179 431 578 578 578> 758 21G<118 118 118 228 379 379 379 491>
VStem: 33 146<242 711> 431 147<242 711>
LayerCount: 2
Fore
SplineSet
33 242 m 2
 33 711 l 1
 179 711 l 1
 179 242 l 2
 179 154 221 108 305 108 c 0
 390 108 431 154 431 242 c 2
 431 711 l 1
 578 711 l 1
 578 242 l 2
 578 114 511 37 414 6 c 0
 381 -5 344 -10 305 -10 c 0
 177 -10 92 43 53 133 c 0
 40 164 33 201 33 242 c 2
118 758 m 1
 118 766 l 1
 263 901 l 1
 345 901 l 1
 491 764 l 1
 491 758 l 1
 379 758 l 1
 304 829 l 1
 228 758 l 1
 118 758 l 1
EndSplineSet
Substitution2: "<3,3> Small Caps in Latin lookup 0 subtable" Ucircumflex.smcp
EndChar

StartChar: Udieresis
Encoding: 220 220 159
Width: 616
Flags: MW
HStem: -10 118<263 324.5> 691 20G<33 179 179 179 431 578 578 578> 756 124<165 203 165 203>
VStem: 33 146<242 711> 116 135<799 836.5 799 837> 354 135<799 836.5 799 837> 431 147<242 711>
LayerCount: 2
Fore
SplineSet
33 242 m 2xf2
 33 711 l 1
 179 711 l 1
 179 242 l 2
 179 154 221 108 305 108 c 0
 390 108 431 154 431 242 c 2
 431 711 l 1
 578 711 l 1
 578 242 l 2
 578 114 511 37 414 6 c 0
 381 -5 344 -10 305 -10 c 0
 177 -10 92 43 53 133 c 0
 40 164 33 201 33 242 c 2xf2
116 818 m 0xe8
 116 856 146 880 184 880 c 0
 222 880 251 855 251 818 c 0
 251 780 222 756 184 756 c 0
 145 756 116 779 116 818 c 0xe8
354 818 m 0xe4
 354 856 384 880 422 880 c 0
 460 880 489 855 489 818 c 0
 489 780 460 755 422 755 c 0
 383 755 354 780 354 818 c 0xe4
EndSplineSet
Substitution2: "<3,3> Small Caps in Latin lookup 0 subtable" Udieresis.smcp
EndChar

StartChar: Yacute
Encoding: 221 221 160
Width: 656
Flags: MW
HStem: 0 21G<252 401 252 252> 691 20G<19 180 180 180 475 635 635 635> 750 21G<260 260 260 375>
VStem: 252 149<0 258 0 258>
LayerCount: 2
Fore
SplineSet
19 711 m 1
 180 711 l 1
 327 391 l 1
 475 711 l 1
 635 711 l 1
 401 258 l 1
 401 0 l 1
 252 0 l 1
 252 258 l 1
 19 711 l 1
260 750 m 1
 357 901 l 1
 510 901 l 1
 375 750 l 1
 260 750 l 1
EndSplineSet
Substitution2: "<3,3> Small Caps in Latin lookup 0 subtable" Yacute.smcp
EndChar

StartChar: Thorn
Encoding: 222 222 161
Width: 578
Flags: MW
HStem: 0 21G<35 35 35 176> 140 114<176 285 176 285> 467 114<176 285 176 285> 691 20G<35 176 176 176>
VStem: 35 141<0 140 254 467 581 711> 406 141<324 376 304.5 394>
LayerCount: 2
Fore
SplineSet
35 0 m 1
 35 711 l 1
 176 711 l 1
 176 581 l 1
 285 581 l 2
 407 581 493 533 530 448 c 0
 542 421 547 392 547 360 c 0
 547 249 482 185 397 156 c 0
 364 145 327 140 285 140 c 2
 176 140 l 1
 176 0 l 1
 35 0 l 1
176 254 m 1
 285 254 l 2
 357 254 406 289 406 359 c 0
 406 429 357 467 285 467 c 2
 176 467 l 1
 176 254 l 1
EndSplineSet
EndChar

StartChar: germandbls
Encoding: 223 223 162
Width: 596
Flags: MW
HStem: -10 114<325.5 369.5 325.5 413> 0 21G<35 35 35 176> 648 113<224.5 279>
VStem: 35 141<0 536 0 538 0 611.5> 279 141<391 423 391 438.5> 333 139<559.5 595.5 559.5 596> 426 141<148 183.5 109.5 185.5>
LayerCount: 2
Fore
SplineSet
35 0 m 1x74
 35 538 l 2
 35 685 120 761 266 761 c 0
 360 761 426 724 456 659 c 0
 467 636 472 610 472 581 c 0x74
 472 538 463 511 447 486 c 0
 433 464 420 441 420 405 c 0
 420 377 442 358 458 342 c 0
 493 308 534 276 556 228 c 0
 563 212 567 194 567 173 c 0
 567 46 477 -10 349 -10 c 0
 298 -10 246 -2 213 18 c 1
 240 129 l 1
 265 116 305 104 346 104 c 0
 393 104 426 126 426 170 c 0
 426 201 406 221 388 237 c 0
 343 280 279 313 279 399 c 0xba
 279 478 333 497 333 573 c 0
 333 619 302 648 256 648 c 0
 193 648 176 601 176 536 c 2
 176 0 l 1
 35 0 l 1x74
EndSplineSet
Substitution2: "<3,3> Small Caps in Latin lookup 0 subtable" germandbls.smcp
EndChar

StartChar: agrave
Encoding: 224 224 163
Width: 519
Flags: MW
HStem: -10 108<215.5 235> 0 21G<351 494 351 351> 240 83<268 273 273 331> 434 104<231 279.5> 730 20G<79 233 233 233>
VStem: 24 141<140.5 188.5 140.5 213.5> 331 142<149 240 240 240 323 352>
LayerCount: 2
Fore
SplineSet
24 148 m 0xbe
 24 279 134 323 268 323 c 2
 331 323 l 1
 331 353 l 2
 331 404 306 434 253 434 c 0
 209 434 177 412 177 370 c 1
 36 370 l 1
 36 423 65 462 97 488 c 0
 136 519 192 538 261 538 c 0
 359 538 426 501 457 433 c 0
 468 410 473 383 473 352 c 2
 473 128 l 2
 473 79 479 41 494 8 c 1
 494 0 l 1
 351 0 l 1x7e
 344 13 340 28 337 47 c 1
 309 14 266 -10 204 -10 c 0
 123 -10 65 30 38 85 c 0
 29 104 24 125 24 148 c 0xbe
79 750 m 1
 233 750 l 1
 330 599 l 1
 214 599 l 1
 79 750 l 1
165 159 m 0
 165 122 196 98 235 98 c 0xbe
 280 98 315 120 331 149 c 1
 331 240 l 1
 273 240 l 2
 212 240 165 218 165 159 c 0
EndSplineSet
Substitution2: "<3,3> Small Caps in Latin lookup 0 subtable" Agrave.smcp
EndChar

StartChar: aacute
Encoding: 225 225 164
Width: 519
Flags: MW
HStem: -10 108<215.5 235> 0 21G<351 494 351 351> 240 83<268 273 273 331> 434 104<231 279.5> 730 20G<289 442 442 442>
VStem: 24 141<140.5 188.5 140.5 213.5> 331 142<149 240 240 240 323 352>
LayerCount: 2
Fore
SplineSet
24 148 m 0xbe
 24 279 134 323 268 323 c 2
 331 323 l 1
 331 353 l 2
 331 404 306 434 253 434 c 0
 209 434 177 412 177 370 c 1
 36 370 l 1
 36 423 65 462 97 488 c 0
 136 519 192 538 261 538 c 0
 359 538 426 501 457 433 c 0
 468 410 473 383 473 352 c 2
 473 128 l 2
 473 79 479 41 494 8 c 1
 494 0 l 1
 351 0 l 1x7e
 344 13 340 28 337 47 c 1
 309 14 266 -10 204 -10 c 0
 123 -10 65 30 38 85 c 0
 29 104 24 125 24 148 c 0xbe
165 159 m 0
 165 122 196 98 235 98 c 0xbe
 280 98 315 120 331 149 c 1
 331 240 l 1
 273 240 l 2
 212 240 165 218 165 159 c 0
192 599 m 1
 289 750 l 1
 442 750 l 1
 307 599 l 1
 192 599 l 1
EndSplineSet
Substitution2: "<3,3> Small Caps in Latin lookup 0 subtable" Aacute.smcp
EndChar

StartChar: acircumflex
Encoding: 226 226 165
Width: 519
Flags: MW
HStem: -10 108<215.5 235> 0 21G<351 494 351 351> 240 83<268 273 273 331> 434 104<231 279.5> 730 20G<219 301 301 301>
VStem: 24 141<140.5 188.5 140.5 213.5> 331 142<149 240 240 240 323 352>
LayerCount: 2
Fore
SplineSet
24 148 m 0xbe
 24 279 134 323 268 323 c 2
 331 323 l 1
 331 353 l 2
 331 404 306 434 253 434 c 0
 209 434 177 412 177 370 c 1
 36 370 l 1
 36 423 65 462 97 488 c 0
 136 519 192 538 261 538 c 0
 359 538 426 501 457 433 c 0
 468 410 473 383 473 352 c 2
 473 128 l 2
 473 79 479 41 494 8 c 1
 494 0 l 1
 351 0 l 1x7e
 344 13 340 28 337 47 c 1
 309 14 266 -10 204 -10 c 0
 123 -10 65 30 38 85 c 0
 29 104 24 125 24 148 c 0xbe
74 607 m 1
 74 615 l 1
 219 750 l 1
 301 750 l 1
 447 613 l 1
 447 607 l 1
 335 607 l 1
 260 678 l 1
 184 607 l 1
 74 607 l 1
165 159 m 0
 165 122 196 98 235 98 c 0xbe
 280 98 315 120 331 149 c 1
 331 240 l 1
 273 240 l 2
 212 240 165 218 165 159 c 0
EndSplineSet
Substitution2: "<3,3> Small Caps in Latin lookup 0 subtable" Acircumflex.smcp
EndChar

StartChar: atilde
Encoding: 227 227 166
Width: 519
Flags: MW
HStem: -10 108<215.5 235> 0 21G<351 494 351 351> 240 83<268 273 273 331> 434 104<231 279.5> 614 89<310.5 333 307 341> 656 89<186 200 178.5 205.5> 730 20G<362 362>
VStem: 24 141<140.5 188.5 140.5 213.5> 76 82<614 622.5 609 642.5> 331 142<149 240 240 240 323 352> 362 82<736.5 744 715 750>
LayerCount: 2
Fore
SplineSet
24 148 m 0xb140
 24 279 134 323 268 323 c 2
 331 323 l 1
 331 353 l 2
 331 404 306 434 253 434 c 0
 209 434 177 412 177 370 c 1
 36 370 l 1
 36 423 65 462 97 488 c 0
 136 519 192 538 261 538 c 0
 359 538 426 501 457 433 c 0
 468 410 473 383 473 352 c 2
 473 128 l 2
 473 79 479 41 494 8 c 1
 494 0 l 1
 351 0 l 1x7140
 344 13 340 28 337 47 c 1
 309 14 266 -10 204 -10 c 0
 123 -10 65 30 38 85 c 0
 29 104 24 125 24 148 c 0xb140
76 614 m 1x38a0
 76 671 105 714 143 734 c 0
 157 741 171 745 186 745 c 0x34a0
 214 745 235 733 255 724 c 0
 274 715 294 703 320 703 c 0
 346 703 362 723 362 750 c 1
 444 744 l 1
 444 686 415 644 377 624 c 0
 364 617 349 614 333 614 c 0x3aa0
 288 614 264 636 233 650 c 0
 223 654 212 656 199 656 c 0x34a0
 173 656 158 636 158 609 c 1
 76 614 l 1x38a0
165 159 m 0xb140
 165 122 196 98 235 98 c 0
 280 98 315 120 331 149 c 1
 331 240 l 1
 273 240 l 2
 212 240 165 218 165 159 c 0xb140
EndSplineSet
Substitution2: "<3,3> Small Caps in Latin lookup 0 subtable" Atilde.smcp
EndChar

StartChar: adieresis
Encoding: 228 228 167
Width: 519
Flags: MW
HStem: -10 108<215.5 235> 0 21G<351 494 351 351> 240 83<268 273 273 331> 434 104<231 279.5> 605 124<122 160 122 160>
VStem: 24 141<140.5 188.5 140.5 213.5> 73 135<648 685.5 648 686> 311 135<648 685.5 648 686> 331 142<149 240 240 240 323 352>
LayerCount: 2
Fore
SplineSet
24 148 m 0xbc80
 24 279 134 323 268 323 c 2
 331 323 l 1
 331 353 l 2
 331 404 306 434 253 434 c 0
 209 434 177 412 177 370 c 1
 36 370 l 1
 36 423 65 462 97 488 c 0
 136 519 192 538 261 538 c 0
 359 538 426 501 457 433 c 0
 468 410 473 383 473 352 c 2
 473 128 l 2
 473 79 479 41 494 8 c 1
 494 0 l 1
 351 0 l 1x7c80
 344 13 340 28 337 47 c 1
 309 14 266 -10 204 -10 c 0
 123 -10 65 30 38 85 c 0
 29 104 24 125 24 148 c 0xbc80
73 667 m 0x3a
 73 705 103 729 141 729 c 0
 179 729 208 704 208 667 c 0
 208 629 179 605 141 605 c 0
 102 605 73 628 73 667 c 0x3a
165 159 m 0xbc80
 165 122 196 98 235 98 c 0
 280 98 315 120 331 149 c 1
 331 240 l 1
 273 240 l 2
 212 240 165 218 165 159 c 0xbc80
311 667 m 0x39
 311 705 341 729 379 729 c 0
 417 729 446 704 446 667 c 0
 446 629 417 604 379 604 c 0
 340 604 311 629 311 667 c 0x39
EndSplineSet
Substitution2: "<3,3> Small Caps in Latin lookup 0 subtable" Adieresis.smcp
EndChar

StartChar: aring
Encoding: 229 229 168
Width: 519
Flags: MW
HStem: -10 108<215.5 235> 0 21G<351 494 351 351> 240 83<268 273 273 331> 434 104<231 279.5> 595 46<246 276.5 246 291.5> 746 47<253.5 277>
VStem: 24 141<140.5 188.5 140.5 213.5> 152 56<686 708.5 678.5 717> 314 56<678 708.5> 331 142<149 240 240 240 323 352>
LayerCount: 2
Fore
SplineSet
24 148 m 0xbe40
 24 279 134 323 268 323 c 2
 331 323 l 1
 331 353 l 2
 331 404 306 434 253 434 c 0
 209 434 177 412 177 370 c 1
 36 370 l 1
 36 423 65 462 97 488 c 0
 136 519 192 538 261 538 c 0
 359 538 426 501 457 433 c 0
 468 410 473 383 473 352 c 2
 473 128 l 2
 473 79 479 41 494 8 c 1
 494 0 l 1
 351 0 l 1x7e40
 344 13 340 28 337 47 c 1
 309 14 266 -10 204 -10 c 0
 123 -10 65 30 38 85 c 0
 29 104 24 125 24 148 c 0xbe40
152 693 m 0x3d80
 152 741 183 771 218 785 c 0
 231 790 246 793 261 793 c 0
 322 793 370 754 370 693 c 0
 370 632 322 595 261 595 c 0
 211 595 177 620 161 654 c 0
 155 666 152 679 152 693 c 0x3d80
165 159 m 0xbe40
 165 122 196 98 235 98 c 0
 280 98 315 120 331 149 c 1
 331 240 l 1
 273 240 l 2
 212 240 165 218 165 159 c 0xbe40
208 693 m 0x3d80
 208 664 231 641 261 641 c 0
 292 641 314 663 314 693 c 0
 314 724 293 746 261 746 c 0
 229 746 208 724 208 693 c 0x3d80
EndSplineSet
Substitution2: "<3,3> Small Caps in Latin lookup 0 subtable" Aring.smcp
EndChar

StartChar: ae
Encoding: 230 230 169
Width: 846
Flags: MW
HStem: -10 104<223 264> -10 114<576 642> 220 94<487 673 487 812 486 673> 424 114<250.5 294.5 590 619>
VStem: 25 141<143.5 158.5 132.5 216> 347 139<220 220 220 225 220 225 220 345 220 369.5> 673 139<220 328 220 357>
LayerCount: 2
Fore
SplineSet
25 156 m 0xbe
 25 276 134 317 267 317 c 2
 347 317 l 1
 347 345 l 2
 347 394 319 424 270 424 c 0
 231 424 203 412 189 387 c 0
 185 380 183 372 183 364 c 1
 42 373 l 1
 42 428 71 466 105 491 c 0
 145 520 202 538 271 538 c 0
 340 538 395 519 431 484 c 1
 469 517 520 539 590 538 c 0
 701 538 769 482 797 398 c 0
 807 369 812 336 812 299 c 2
 812 220 l 1
 486 220 l 1
 492 147 536 104 616 104 c 0
 678 104 719 121 760 141 c 1
 798 49 l 1
 752 14 683 -10 601 -10 c 0x7e
 516 -10 455 18 413 62 c 1
 372 18 307 -10 221 -10 c 0
 130 -10 65 24 38 88 c 0
 29 108 25 131 25 156 c 0xbe
166 154 m 0
 166 111 199 94 247 94 c 0xbe
 289 94 324 112 347 133 c 1
 347 225 l 1
 268 225 l 2
 222 225 189 209 173 180 c 0
 168 171 166 163 166 154 c 0
487 314 m 1
 673 314 l 1
 673 328 l 2
 673 386 648 424 590 424 c 0
 522 424 495 375 487 314 c 1
EndSplineSet
EndChar

StartChar: ccedilla
Encoding: 231 231 170
Width: 522
Flags: MW
HStem: -226 82<219 230.5 215 233> 424 114<250.5 296>
VStem: 28 141<257 271 215.5 332> 270 119<-119 -87.5> 359 132<152.5 183 332 347.5>
LayerCount: 2
Fore
SplineSet
28 257 m 2xf0
 28 271 l 2
 28 393 78 479 164 518 c 0
 194 532 230 538 271 538 c 0
 375 538 443 491 474 418 c 0
 485 392 491 363 491 332 c 1
 359 332 l 1xe8
 359 386 323 424 269 424 c 0
 187 424 169 353 169 271 c 2
 169 257 l 2
 169 174 186 104 270 104 c 0xf0
 323 104 356 133 359 183 c 1
 491 183 l 1xe8
 491 122 461 74 427 44 c 0
 400 20 363 2 319 -6 c 1
 316 -25 l 1
 359 -31 389 -59 389 -109 c 0
 389 -172 344 -204 292 -218 c 0
 271 -224 247 -226 219 -226 c 1
 215 -144 l 1
 246 -144 270 -134 270 -104 c 0
 270 -71 238 -69 201 -66 c 1
 214 -5 l 1
 123 13 68 73 43 152 c 0
 33 184 28 220 28 257 c 2xf0
EndSplineSet
Substitution2: "<3,3> Small Caps in Latin lookup 0 subtable" Ccedilla.smcp
EndChar

StartChar: egrave
Encoding: 232 232 171
Width: 540
Flags: MW
HStem: -10 114<261 328.5 261 338> 218 96<172 368 172 507 170 368> 424 114<255 303.5> 730 20G<77 231 231 231>
VStem: 27 143<218 265 218 327.5> 368 139<218 326 218 356.5>
LayerCount: 2
Fore
SplineSet
27 246 m 2
 27 265 l 2
 27 390 84 479 172 518 c 0
 202 531 236 538 274 538 c 0
 430 538 507 434 507 278 c 2
 507 218 l 1
 170 218 l 1
 178 150 223 104 299 104 c 0
 358 104 399 127 426 163 c 1
 495 85 l 1
 454 29 387 -10 289 -10 c 0
 162 -10 80 54 45 146 c 0
 33 177 27 211 27 246 c 2
77 750 m 1
 231 750 l 1
 328 599 l 1
 212 599 l 1
 77 750 l 1
172 314 m 1
 368 314 l 1
 368 326 l 2
 368 387 334 424 273 424 c 0
 207 424 179 373 172 314 c 1
EndSplineSet
Substitution2: "<3,3> Small Caps in Latin lookup 0 subtable" Egrave.smcp
EndChar

StartChar: eacute
Encoding: 233 233 172
Width: 540
Flags: MW
HStem: -10 114<261 328.5 261 338> 218 96<172 368 172 507 170 368> 424 114<255 303.5> 730 20G<286 439 439 439>
VStem: 27 143<218 265 218 327.5> 368 139<218 326 218 356.5>
LayerCount: 2
Fore
SplineSet
27 246 m 2
 27 265 l 2
 27 390 84 479 172 518 c 0
 202 531 236 538 274 538 c 0
 430 538 507 434 507 278 c 2
 507 218 l 1
 170 218 l 1
 178 150 223 104 299 104 c 0
 358 104 399 127 426 163 c 1
 495 85 l 1
 454 29 387 -10 289 -10 c 0
 162 -10 80 54 45 146 c 0
 33 177 27 211 27 246 c 2
172 314 m 1
 368 314 l 1
 368 326 l 2
 368 387 334 424 273 424 c 0
 207 424 179 373 172 314 c 1
189 599 m 1
 286 750 l 1
 439 750 l 1
 304 599 l 1
 189 599 l 1
EndSplineSet
Substitution2: "<3,3> Small Caps in Latin lookup 0 subtable" Eacute.smcp
EndChar

StartChar: ecircumflex
Encoding: 234 234 173
Width: 540
Flags: MW
HStem: -10 114<261 328.5 261 338> 218 96<172 368 172 507 170 368> 424 114<255 303.5> 730 20G<217 299 299 299>
VStem: 27 143<218 265 218 327.5> 368 139<218 326 218 356.5>
LayerCount: 2
Fore
SplineSet
27 246 m 2
 27 265 l 2
 27 390 84 479 172 518 c 0
 202 531 236 538 274 538 c 0
 430 538 507 434 507 278 c 2
 507 218 l 1
 170 218 l 1
 178 150 223 104 299 104 c 0
 358 104 399 127 426 163 c 1
 495 85 l 1
 454 29 387 -10 289 -10 c 0
 162 -10 80 54 45 146 c 0
 33 177 27 211 27 246 c 2
72 607 m 1
 72 615 l 1
 217 750 l 1
 299 750 l 1
 445 613 l 1
 445 607 l 1
 333 607 l 1
 258 678 l 1
 182 607 l 1
 72 607 l 1
172 314 m 1
 368 314 l 1
 368 326 l 2
 368 387 334 424 273 424 c 0
 207 424 179 373 172 314 c 1
EndSplineSet
Substitution2: "<3,3> Small Caps in Latin lookup 0 subtable" Ecircumflex.smcp
EndChar

StartChar: edieresis
Encoding: 235 235 174
Width: 540
Flags: MW
HStem: -10 114<261 328.5 261 338> 218 96<172 368 172 507 170 368> 424 114<255 303.5> 605 124<119 157 119 157>
VStem: 27 143<218 265 218 327.5> 70 135<648 685.5 648 686> 308 135<648 685.5 648 686> 368 139<218 326 218 356.5>
LayerCount: 2
Fore
SplineSet
27 246 m 2xf9
 27 265 l 2
 27 390 84 479 172 518 c 0
 202 531 236 538 274 538 c 0
 430 538 507 434 507 278 c 2
 507 218 l 1
 170 218 l 1
 178 150 223 104 299 104 c 0
 358 104 399 127 426 163 c 1
 495 85 l 1
 454 29 387 -10 289 -10 c 0
 162 -10 80 54 45 146 c 0
 33 177 27 211 27 246 c 2xf9
70 667 m 0xf4
 70 705 100 729 138 729 c 0
 176 729 205 704 205 667 c 0
 205 629 176 605 138 605 c 0
 99 605 70 628 70 667 c 0xf4
172 314 m 1
 368 314 l 1
 368 326 l 2xf1
 368 387 334 424 273 424 c 0
 207 424 179 373 172 314 c 1
308 667 m 0xf2
 308 705 338 729 376 729 c 0
 414 729 443 704 443 667 c 0
 443 629 414 604 376 604 c 0
 337 604 308 629 308 667 c 0xf2
EndSplineSet
Substitution2: "<3,3> Small Caps in Latin lookup 0 subtable" Edieresis.smcp
EndChar

StartChar: igrave
Encoding: 236 236 175
Width: 307
Flags: MW
HStem: 0 21G<126 126 126 268> 508 20G<126 268 268 268>
VStem: 126 142<0 528 0 528>
LayerCount: 2
Fore
SplineSet
18 743 m 1
 172 743 l 1
 269 592 l 1
 153 592 l 1
 18 743 l 1
126 0 m 1
 126 528 l 1
 268 528 l 1
 268 0 l 1
 126 0 l 1
EndSplineSet
Substitution2: "<3,3> Small Caps in Latin lookup 0 subtable" Igrave.smcp
EndChar

StartChar: iacute
Encoding: 237 237 176
Width: 308
Flags: MW
HStem: 0 21G<34 34 34 176> 508 20G<34 176 176 176>
VStem: 34 142<0 528 0 528>
LayerCount: 2
Fore
SplineSet
34 0 m 1
 34 528 l 1
 176 528 l 1
 176 0 l 1
 34 0 l 1
38 592 m 1
 135 743 l 1
 288 743 l 1
 153 592 l 1
 38 592 l 1
EndSplineSet
Substitution2: "<3,3> Small Caps in Latin lookup 0 subtable" Iacute.smcp
EndChar

StartChar: icircumflex
Encoding: 238 238 177
Width: 412
Flags: MW
HStem: 0 21G<132 132 132 274> 508 20G<132 274 274 274>
VStem: 132 142<0 528 0 528>
LayerCount: 2
Fore
SplineSet
19 600 m 1
 19 608 l 1
 164 743 l 1
 246 743 l 1
 392 606 l 1
 392 600 l 1
 280 600 l 1
 205 671 l 1
 129 600 l 1
 19 600 l 1
132 0 m 1
 132 528 l 1
 274 528 l 1
 274 0 l 1
 132 0 l 1
EndSplineSet
Substitution2: "<3,3> Small Caps in Latin lookup 0 subtable" Icircumflex.smcp
EndChar

StartChar: idieresis
Encoding: 239 239 178
Width: 417
Flags: MW
HStem: 0 21G<136 136 136 278> 508 20G<136 278 278 278> 598 124<70 108 70 108>
VStem: 21 135<641 678.5 641 679> 136 142<0 528 0 528> 259 135<641 678.5 641 679>
LayerCount: 2
Fore
SplineSet
21 660 m 0xf0
 21 698 51 722 89 722 c 0
 127 722 156 697 156 660 c 0
 156 622 127 598 89 598 c 0
 50 598 21 621 21 660 c 0xf0
136 0 m 1xe8
 136 528 l 1
 278 528 l 1
 278 0 l 1
 136 0 l 1xe8
259 660 m 0xe4
 259 698 289 722 327 722 c 0
 365 722 394 697 394 660 c 0
 394 622 365 597 327 597 c 0
 288 597 259 622 259 660 c 0xe4
EndSplineSet
Substitution2: "<3,3> Small Caps in Latin lookup 0 subtable" Idieresis.smcp
EndChar

StartChar: eth
Encoding: 240 240 179
Width: 560
Flags: MW
HStem: -10 114<266.5 291> 364 108<240.5 272.5 230.5 303.5> 716 20G<431 431>
VStem: 27 141<212.5 268.5 201 285.5> 384 142<268 282 282 317 215.5 324 215.5 324>
LayerCount: 2
Fore
SplineSet
27 229 m 0
 27 342 74 420 154 454 c 0
 181 466 213 472 248 472 c 0
 297 472 336 456 367 435 c 1
 350 488 322 529 286 564 c 1
 193 504 l 1
 154 560 l 1
 229 607 l 1
 191 631 147 649 100 662 c 1
 144 771 l 1
 221 756 289 726 347 683 c 1
 431 736 l 1
 468 681 l 1
 401 637 l 1
 474 562 526 459 526 317 c 2
 526 282 l 2
 526 149 466 54 374 12 c 0
 343 -2 309 -10 273 -10 c 0
 156 -10 80 52 45 136 c 0
 33 165 27 196 27 229 c 0
168 229 m 0
 168 173 192 133 230 114 c 0
 243 107 258 104 275 104 c 0
 357 104 384 185 384 268 c 2
 384 324 l 1
 363 349 328 364 279 364 c 0
 202 364 168 308 168 229 c 0
EndSplineSet
Substitution2: "<3,3> Small Caps in Latin lookup 0 subtable" Eth.smcp
EndChar

StartChar: ntilde
Encoding: 241 241 180
Width: 527
Flags: MW
HStem: 0 21G<34 34 34 175 349 349 349 490> 423 115<288.5 294.5> 508 20G<34 167 167 167> 614 89<314.5 337 311 345> 656 89<190 204 182.5 209.5> 730 20G<366 366>
VStem: 34 133<0 528 528 528> 34 141<0 373 0 528> 80 82<614 622.5 609 642.5> 349 141<0 336 0 337 0 367> 366 82<736.5 744 715 750>
LayerCount: 2
Fore
SplineSet
34 0 m 1xc140
 34 528 l 1
 167 528 l 1xa2
 171 467 l 1
 203 508 254 538 323 538 c 0
 445 538 490 460 490 336 c 2
 490 0 l 1
 349 0 l 1
 349 337 l 2
 349 397 324 423 265 423 c 0
 221 423 192 401 175 373 c 1
 175 0 l 1
 34 0 l 1xc140
80 614 m 1x90a0
 80 671 109 714 147 734 c 0
 161 741 175 745 190 745 c 0x88a0
 218 745 239 733 259 724 c 0
 278 715 298 703 324 703 c 0
 350 703 366 723 366 750 c 1
 448 744 l 1
 448 686 419 644 381 624 c 0
 368 617 353 614 337 614 c 0x94a0
 292 614 268 636 237 650 c 0
 227 654 216 656 203 656 c 0x88a0
 177 656 162 636 162 609 c 1
 80 614 l 1x90a0
EndSplineSet
Substitution2: "<3,3> Small Caps in Latin lookup 0 subtable" Ntilde.smcp
EndChar

StartChar: ograve
Encoding: 242 242 181
Width: 561
Flags: MW
HStem: -10 114<236 298> 424 114<257 318> 730 20G<96 250 250 250>
VStem: 27 141<259 269 217 331.5> 387 141<259 269 196.5 310.5>
LayerCount: 2
Fore
SplineSet
27 259 m 2
 27 269 l 2
 27 394 83 479 171 518 c 0
 202 532 237 538 277 538 c 0
 402 538 479 470 511 376 c 0
 522 343 528 308 528 269 c 2
 528 259 l 2
 528 134 473 49 385 10 c 0
 354 -4 318 -10 278 -10 c 0
 153 -10 75 58 43 152 c 0
 32 185 27 220 27 259 c 2
96 750 m 1
 250 750 l 1
 347 599 l 1
 231 599 l 1
 96 750 l 1
168 259 m 2
 168 175 194 104 278 104 c 0
 360 104 387 176 387 259 c 2
 387 269 l 2
 387 352 359 424 277 424 c 0
 195 424 168 351 168 269 c 2
 168 259 l 2
EndSplineSet
Substitution2: "<3,3> Small Caps in Latin lookup 0 subtable" Ograve.smcp
EndChar

StartChar: oacute
Encoding: 243 243 182
Width: 561
Flags: MW
HStem: -10 114<236 298> 424 114<257 318> 730 20G<305 458 458 458>
VStem: 27 141<259 269 217 331.5> 387 141<259 269 196.5 310.5>
LayerCount: 2
Fore
SplineSet
27 259 m 2
 27 269 l 2
 27 394 83 479 171 518 c 0
 202 532 237 538 277 538 c 0
 402 538 479 470 511 376 c 0
 522 343 528 308 528 269 c 2
 528 259 l 2
 528 134 473 49 385 10 c 0
 354 -4 318 -10 278 -10 c 0
 153 -10 75 58 43 152 c 0
 32 185 27 220 27 259 c 2
168 259 m 2
 168 175 194 104 278 104 c 0
 360 104 387 176 387 259 c 2
 387 269 l 2
 387 352 359 424 277 424 c 0
 195 424 168 351 168 269 c 2
 168 259 l 2
208 599 m 1
 305 750 l 1
 458 750 l 1
 323 599 l 1
 208 599 l 1
EndSplineSet
Substitution2: "<3,3> Small Caps in Latin lookup 0 subtable" Oacute.smcp
EndChar

StartChar: ocircumflex
Encoding: 244 244 183
Width: 561
Flags: MW
HStem: -10 114<236 298> 424 114<257 318> 730 20G<236 318 318 318>
VStem: 27 141<259 269 217 331.5> 387 141<259 269 196.5 310.5>
LayerCount: 2
Fore
SplineSet
27 259 m 2
 27 269 l 2
 27 394 83 479 171 518 c 0
 202 532 237 538 277 538 c 0
 402 538 479 470 511 376 c 0
 522 343 528 308 528 269 c 2
 528 259 l 2
 528 134 473 49 385 10 c 0
 354 -4 318 -10 278 -10 c 0
 153 -10 75 58 43 152 c 0
 32 185 27 220 27 259 c 2
91 607 m 1
 91 615 l 1
 236 750 l 1
 318 750 l 1
 464 613 l 1
 464 607 l 1
 352 607 l 1
 277 678 l 1
 201 607 l 1
 91 607 l 1
168 259 m 2
 168 175 194 104 278 104 c 0
 360 104 387 176 387 259 c 2
 387 269 l 2
 387 352 359 424 277 424 c 0
 195 424 168 351 168 269 c 2
 168 259 l 2
EndSplineSet
Substitution2: "<3,3> Small Caps in Latin lookup 0 subtable" Ocircumflex.smcp
EndChar

StartChar: otilde
Encoding: 245 245 184
Width: 561
Flags: MW
HStem: -10 114<236 298> 424 114<257 318> 614 89<326.5 349 323 357> 656 89<202 216 194.5 221.5> 730 20G<378 378>
VStem: 27 141<259 269 217 331.5> 92 82<614 622.5 609 642.5> 378 82<736.5 744 715 750> 387 141<259 269 196.5 310.5>
LayerCount: 2
Fore
SplineSet
27 259 m 2xc480
 27 269 l 2
 27 394 83 479 171 518 c 0
 202 532 237 538 277 538 c 0
 402 538 479 470 511 376 c 0
 522 343 528 308 528 269 c 2
 528 259 l 2
 528 134 473 49 385 10 c 0
 354 -4 318 -10 278 -10 c 0
 153 -10 75 58 43 152 c 0
 32 185 27 220 27 259 c 2xc480
92 614 m 1xe3
 92 671 121 714 159 734 c 0
 173 741 187 745 202 745 c 0xd3
 230 745 251 733 271 724 c 0
 290 715 310 703 336 703 c 0
 362 703 378 723 378 750 c 1
 460 744 l 1
 460 686 431 644 393 624 c 0
 380 617 365 614 349 614 c 0xeb
 304 614 280 636 249 650 c 0
 239 654 228 656 215 656 c 0xd3
 189 656 174 636 174 609 c 1
 92 614 l 1xe3
168 259 m 2xc480
 168 175 194 104 278 104 c 0
 360 104 387 176 387 259 c 2
 387 269 l 2
 387 352 359 424 277 424 c 0
 195 424 168 351 168 269 c 2
 168 259 l 2xc480
EndSplineSet
Substitution2: "<3,3> Small Caps in Latin lookup 0 subtable" Otilde.smcp
EndChar

StartChar: odieresis
Encoding: 246 246 185
Width: 561
Flags: MW
HStem: -10 114<236 298> 424 114<257 318> 605 124<138 176 138 176>
VStem: 27 141<259 269 217 331.5> 89 135<648 685.5 648 686> 327 135<648 685.5 648 686> 387 141<259 269 196.5 310.5>
LayerCount: 2
Fore
SplineSet
27 259 m 2xf2
 27 269 l 2
 27 394 83 479 171 518 c 0
 202 532 237 538 277 538 c 0
 402 538 479 470 511 376 c 0
 522 343 528 308 528 269 c 2
 528 259 l 2
 528 134 473 49 385 10 c 0
 354 -4 318 -10 278 -10 c 0
 153 -10 75 58 43 152 c 0
 32 185 27 220 27 259 c 2xf2
89 667 m 0xe8
 89 705 119 729 157 729 c 0
 195 729 224 704 224 667 c 0
 224 629 195 605 157 605 c 0
 118 605 89 628 89 667 c 0xe8
168 259 m 2xf2
 168 175 194 104 278 104 c 0
 360 104 387 176 387 259 c 2
 387 269 l 2
 387 352 359 424 277 424 c 0
 195 424 168 351 168 269 c 2
 168 259 l 2xf2
327 667 m 0xe4
 327 705 357 729 395 729 c 0
 433 729 462 704 462 667 c 0
 462 629 433 604 395 604 c 0
 356 604 327 629 327 667 c 0xe4
EndSplineSet
Substitution2: "<3,3> Small Caps in Latin lookup 0 subtable" Odieresis.smcp
EndChar

StartChar: divide
Encoding: 247 247 186
Width: 566
Flags: MW
HStem: 62 147<256.5 303.5> 279 112<29 531 29 531> 458 148<256.5 303.5>
VStem: 201 159<111.5 158.5 508.5 555.5>
LayerCount: 2
Fore
SplineSet
29 279 m 1
 29 391 l 1
 531 391 l 1
 531 279 l 1
 29 279 l 1
201 135 m 0
 201 182 233 209 280 209 c 0
 327 209 360 182 360 135 c 0
 360 88 327 62 280 62 c 0
 233 62 201 88 201 135 c 0
201 532 m 0
 201 579 233 606 280 606 c 0
 327 606 360 579 360 532 c 0
 360 485 327 458 280 458 c 0
 233 458 201 485 201 532 c 0
EndSplineSet
EndChar

StartChar: oslash
Encoding: 248 248 187
Width: 561
Flags: MW
HStem: -10 114<271.5 298> 424 114<257 283.5>
VStem: 27 141<259 269 239 331.5> 387 141<259 269 196.5 288>
LayerCount: 2
Fore
SplineSet
27 259 m 2
 27 269 l 2
 27 394 83 478 171 517 c 0
 202 531 237 538 277 538 c 0
 310 538 340 533 368 524 c 1
 402 594 l 1
 480 594 l 1
 430 491 l 1
 490 446 528 370 528 269 c 2
 528 259 l 2
 528 134 473 49 385 10 c 0
 354 -4 318 -10 278 -10 c 0
 247 -10 219 -6 192 3 c 1
 157 -69 l 1
 78 -69 l 1
 128 34 l 1
 65 78 27 156 27 259 c 2
168 259 m 2
 168 219 175 184 188 157 c 1
 315 417 l 1
 303 422 290 424 277 424 c 0
 195 424 168 351 168 269 c 2
 168 259 l 2
244 109 m 1
 254 106 265 104 278 104 c 0
 360 104 387 176 387 259 c 2
 387 269 l 2
 387 307 381 338 369 365 c 1
 244 109 l 1
EndSplineSet
EndChar

StartChar: ugrave
Encoding: 249 249 188
Width: 528
Flags: MW
HStem: -10 114<222.5 240.5> 0 21G<356 488 356 356> 508 20G<32 173 173 173 347 488 488 488> 730 20G<80 234 234 234>
VStem: 32 141<187 528> 347 141<154 528 0 528>
LayerCount: 2
Fore
SplineSet
32 187 m 2xbc
 32 528 l 1
 173 528 l 1
 173 186 l 2
 173 134 197 104 248 104 c 0xbc
 298 104 329 123 347 154 c 1
 347 528 l 1
 488 528 l 1
 488 0 l 1
 356 0 l 1x7c
 352 54 l 1
 321 16 274 -10 207 -10 c 0
 86 -10 32 64 32 187 c 2xbc
80 750 m 1
 234 750 l 1
 331 599 l 1
 215 599 l 1
 80 750 l 1
EndSplineSet
Substitution2: "<3,3> Small Caps in Latin lookup 0 subtable" Ugrave.smcp
EndChar

StartChar: uacute
Encoding: 250 250 189
Width: 528
Flags: MW
HStem: -10 114<222.5 240.5> 0 21G<356 488 356 356> 508 20G<32 173 173 173 347 488 488 488> 730 20G<289 442 442 442>
VStem: 32 141<187 528> 347 141<154 528 0 528>
LayerCount: 2
Fore
SplineSet
32 187 m 2xbc
 32 528 l 1
 173 528 l 1
 173 186 l 2
 173 134 197 104 248 104 c 0xbc
 298 104 329 123 347 154 c 1
 347 528 l 1
 488 528 l 1
 488 0 l 1
 356 0 l 1x7c
 352 54 l 1
 321 16 274 -10 207 -10 c 0
 86 -10 32 64 32 187 c 2xbc
192 599 m 1
 289 750 l 1
 442 750 l 1
 307 599 l 1
 192 599 l 1
EndSplineSet
Substitution2: "<3,3> Small Caps in Latin lookup 0 subtable" Uacute.smcp
EndChar

StartChar: ucircumflex
Encoding: 251 251 190
Width: 528
Flags: MW
HStem: -10 114<222.5 240.5> 0 21G<356 488 356 356> 508 20G<32 173 173 173 347 488 488 488> 730 20G<220 302 302 302>
VStem: 32 141<187 528> 347 141<154 528 0 528>
LayerCount: 2
Fore
SplineSet
32 187 m 2xbc
 32 528 l 1
 173 528 l 1
 173 186 l 2
 173 134 197 104 248 104 c 0xbc
 298 104 329 123 347 154 c 1
 347 528 l 1
 488 528 l 1
 488 0 l 1
 356 0 l 1x7c
 352 54 l 1
 321 16 274 -10 207 -10 c 0
 86 -10 32 64 32 187 c 2xbc
75 607 m 1
 75 615 l 1
 220 750 l 1
 302 750 l 1
 448 613 l 1
 448 607 l 1
 336 607 l 1
 261 678 l 1
 185 607 l 1
 75 607 l 1
EndSplineSet
Substitution2: "<3,3> Small Caps in Latin lookup 0 subtable" Ucircumflex.smcp
EndChar

StartChar: udieresis
Encoding: 252 252 191
Width: 527
Flags: MW
HStem: -10 114<222.5 240.5> 0 21G<356 488 356 356> 508 20G<32 173 173 173 347 488 488 488> 605 124<122 160 122 160>
VStem: 32 141<187 528> 73 135<648 685.5 648 686> 311 135<648 685.5 648 686> 347 141<154 528 0 528>
LayerCount: 2
Fore
SplineSet
32 187 m 2xb9
 32 528 l 1
 173 528 l 1
 173 186 l 2
 173 134 197 104 248 104 c 0xb9
 298 104 329 123 347 154 c 1
 347 528 l 1
 488 528 l 1
 488 0 l 1
 356 0 l 1x79
 352 54 l 1
 321 16 274 -10 207 -10 c 0
 86 -10 32 64 32 187 c 2xb9
73 667 m 0x34
 73 705 103 729 141 729 c 0
 179 729 208 704 208 667 c 0
 208 629 179 605 141 605 c 0
 102 605 73 628 73 667 c 0x34
311 667 m 0x32
 311 705 341 729 379 729 c 0
 417 729 446 704 446 667 c 0
 446 629 417 604 379 604 c 0
 340 604 311 629 311 667 c 0x32
EndSplineSet
Substitution2: "<3,3> Small Caps in Latin lookup 0 subtable" Udieresis.smcp
EndChar

StartChar: yacute
Encoding: 253 253 192
Width: 542
Flags: MW
HStem: -213 115<94.5 189> 508 20G<20 172 172 172 368 519 519 519> 730 20G<302 455 455 455>
LayerCount: 2
Fore
SplineSet
20 528 m 1
 172 528 l 1
 270 200 l 1
 368 528 l 1
 519 528 l 1
 308 -79 l 2
 283 -151 239 -213 139 -213 c 0
 115 -213 95 -211 77 -204 c 1
 77 -97 l 1
 84 -97 91 -98 98 -98 c 0
 150 -98 177 -80 190 -41 c 2
 206 -1 l 1
 20 528 l 1
205 599 m 1
 302 750 l 1
 455 750 l 1
 320 599 l 1
 205 599 l 1
EndSplineSet
Substitution2: "<3,3> Small Caps in Latin lookup 0 subtable" Yacute.smcp
EndChar

StartChar: thorn
Encoding: 254 254 193
Width: 545
Flags: MW
HStem: -203 21G<35 35 35 176> -10 114<276.5 308.5 245 322.5> 423 115<275.5 307.5> 730 20G<35 177 177 177>
VStem: 35 142<0 45 155 374 483 750> 370 141<259 270 200 309.5>
LayerCount: 2
Fore
SplineSet
35 -203 m 1
 35 750 l 1
 177 750 l 1
 177 483 l 1
 206 516 246 538 305 538 c 0
 416 538 474 469 498 380 c 0
 507 347 511 310 511 270 c 2
 511 259 l 2
 511 141 471 51 394 10 c 0
 368 -4 339 -10 306 -10 c 0
 247 -10 206 12 177 45 c 1
 177 0 l 1
 176 0 l 1
 176 -203 l 1
 35 -203 l 1
177 155 m 1
 193 123 221 104 269 104 c 0
 348 104 370 180 370 259 c 2
 370 270 l 2
 370 349 347 423 268 423 c 0
 222 423 193 404 177 374 c 1
 177 155 l 1
EndSplineSet
EndChar

StartChar: ydieresis
Encoding: 255 255 194
Width: 542
Flags: MW
HStem: -213 115<94.5 189> 508 20G<20 172 172 172 368 519 519 519> 605 124<134 172 134 172>
VStem: 85 135<648 685.5 648 686> 323 135<648 685.5 648 686>
LayerCount: 2
Fore
SplineSet
20 528 m 1
 172 528 l 1
 270 200 l 1
 368 528 l 1
 519 528 l 1
 308 -79 l 2
 283 -151 239 -213 139 -213 c 0
 115 -213 95 -211 77 -204 c 1
 77 -97 l 1
 84 -97 91 -98 98 -98 c 0
 150 -98 177 -80 190 -41 c 2
 206 -1 l 1
 20 528 l 1
85 667 m 0
 85 705 115 729 153 729 c 0
 191 729 220 704 220 667 c 0
 220 629 191 605 153 605 c 0
 114 605 85 628 85 667 c 0
323 667 m 0
 323 705 353 729 391 729 c 0
 429 729 458 704 458 667 c 0
 458 629 429 604 391 604 c 0
 352 604 323 629 323 667 c 0
EndSplineSet
Substitution2: "<3,3> Small Caps in Latin lookup 0 subtable" Ydieresis.smcp
EndChar

StartChar: Amacron
Encoding: 256 256 195
Width: 708
Flags: MW
HStem: 0 21G<20 20 20 176 531 531 531 687> 146 119<265 442 265 482 225 442> 691 20G<285 421 421 421> 780 81<177 534 177 534>
LayerCount: 2
Fore
SplineSet
20 0 m 1
 285 711 l 1
 421 711 l 1
 687 0 l 1
 531 0 l 1
 482 146 l 1
 225 146 l 1
 176 0 l 1
 20 0 l 1
177 780 m 1
 177 861 l 1
 534 861 l 1
 534 780 l 1
 177 780 l 1
265 265 m 1
 442 265 l 1
 353 531 l 1
 265 265 l 1
EndSplineSet
Substitution2: "<3,3> Small Caps in Latin lookup 0 subtable" Amacron.smcp
EndChar

StartChar: amacron
Encoding: 257 257 196
Width: 519
Flags: MW
HStem: -10 108<215.5 235> 0 21G<351 494 351 351> 240 83<268 273 273 331> 434 104<231 279.5> 630 81<83 440 83 440>
VStem: 24 141<140.5 188.5 140.5 213.5> 331 142<149 240 240 240 323 352>
LayerCount: 2
Fore
SplineSet
24 148 m 0xbe
 24 279 134 323 268 323 c 2
 331 323 l 1
 331 353 l 2
 331 404 306 434 253 434 c 0
 209 434 177 412 177 370 c 1
 36 370 l 1
 36 423 65 462 97 488 c 0
 136 519 192 538 261 538 c 0
 359 538 426 501 457 433 c 0
 468 410 473 383 473 352 c 2
 473 128 l 2
 473 79 479 41 494 8 c 1
 494 0 l 1
 351 0 l 1x7e
 344 13 340 28 337 47 c 1
 309 14 266 -10 204 -10 c 0
 123 -10 65 30 38 85 c 0
 29 104 24 125 24 148 c 0xbe
83 630 m 1
 83 711 l 1
 440 711 l 1
 440 630 l 1
 83 630 l 1
165 159 m 0
 165 122 196 98 235 98 c 0xbe
 280 98 315 120 331 149 c 1
 331 240 l 1
 273 240 l 2
 212 240 165 218 165 159 c 0
EndSplineSet
Substitution2: "<3,3> Small Caps in Latin lookup 0 subtable" Amacron.smcp
EndChar

StartChar: Abreve
Encoding: 258 258 197
Width: 708
Flags: MW
HStem: 0 21G<20 20 20 176 531 531 531 687> 146 119<265 442 265 482 225 442> 691 20G<285 421 421 421> 751 81<334.5 368.5>
VStem: 187 100<885.5 896> 424 101<875.5 896>
LayerCount: 2
Fore
SplineSet
20 0 m 1
 285 711 l 1
 421 711 l 1
 687 0 l 1
 531 0 l 1
 482 146 l 1
 225 146 l 1
 176 0 l 1
 20 0 l 1
187 896 m 1
 287 896 l 1
 287 853 313 832 356 832 c 0
 399 832 424 855 424 896 c 1
 525 896 l 1
 525 823 480 781 425 762 c 0
 404 755 381 751 356 751 c 0
 279 751 222 784 199 838 c 0
 191 856 187 875 187 896 c 1
265 265 m 1
 442 265 l 1
 353 531 l 1
 265 265 l 1
EndSplineSet
Substitution2: "<3,3> Small Caps in Latin lookup 0 subtable" Abreve.smcp
EndChar

StartChar: abreve
Encoding: 259 259 198
Width: 519
Flags: MW
HStem: -10 108<215.5 235> 0 21G<351 494 351 351> 240 83<268 273 273 331> 434 104<231 279.5> 600 81<239.5 273.5>
VStem: 24 141<140.5 188.5 140.5 213.5> 92 100<723.5 745 723.5 745> 329 101<724.5 745> 331 142<149 240 240 240 323 352>
LayerCount: 2
Fore
SplineSet
24 148 m 0xbc80
 24 279 134 323 268 323 c 2
 331 323 l 1
 331 353 l 2
 331 404 306 434 253 434 c 0
 209 434 177 412 177 370 c 1
 36 370 l 1
 36 423 65 462 97 488 c 0
 136 519 192 538 261 538 c 0
 359 538 426 501 457 433 c 0
 468 410 473 383 473 352 c 2
 473 128 l 2
 473 79 479 41 494 8 c 1
 494 0 l 1
 351 0 l 1x7c80
 344 13 340 28 337 47 c 1
 309 14 266 -10 204 -10 c 0
 123 -10 65 30 38 85 c 0
 29 104 24 125 24 148 c 0xbc80
92 745 m 1x3a80
 192 745 l 1
 192 702 218 681 261 681 c 0
 304 681 329 704 329 745 c 1
 430 745 l 1x3b
 430 672 386 630 331 611 c 0
 310 604 286 600 261 600 c 0
 164 600 92 649 92 745 c 1x3a80
165 159 m 0xbc80
 165 122 196 98 235 98 c 0
 280 98 315 120 331 149 c 1
 331 240 l 1
 273 240 l 2
 212 240 165 218 165 159 c 0xbc80
EndSplineSet
Substitution2: "<3,3> Small Caps in Latin lookup 0 subtable" Abreve.smcp
EndChar

StartChar: Aogonek
Encoding: 260 260 199
Width: 710
Flags: MW
HStem: -206 88<593 594> 0 21G<21 21 21 177 647 647 647 688> 146 119<266 443 266 483 226 443> 691 20G<286 422 422 422>
VStem: 466 106<-96.5 -78>
LayerCount: 2
Fore
SplineSet
21 0 m 1
 286 711 l 1
 422 711 l 1
 688 0 l 1
 647 0 l 1
 623 -14 605 -27 592 -40 c 0
 579 -53 572 -69 572 -86 c 0
 572 -107 582 -118 604 -118 c 0
 621 -118 632 -113 643 -108 c 1
 657 -185 l 1
 637 -196 611 -206 577 -206 c 0
 511 -206 466 -170 466 -104 c 0
 466 -52 492 -20 530 5 c 1
 483 146 l 1
 226 146 l 1
 177 0 l 1
 21 0 l 1
266 265 m 1
 443 265 l 1
 354 531 l 1
 266 265 l 1
EndSplineSet
Substitution2: "<3,3> Small Caps in Latin lookup 0 subtable" Aogonek.smcp
EndChar

StartChar: aogonek
Encoding: 261 261 200
Width: 520
Flags: MW
HStem: -206 88<418 418.5> -10 108<216.5 236> 240 83<269 274 274 332> 434 104<232 280.5>
VStem: 25 141<140.5 188.5 140.5 213.5> 290 106<-96.5 -78.5> 332 142<149 240 240 240 323 352>
LayerCount: 2
Fore
SplineSet
25 148 m 0xfc
 25 279 135 323 269 323 c 2
 332 323 l 1
 332 353 l 2
 332 404 307 434 254 434 c 0
 210 434 178 412 178 370 c 1
 37 370 l 1
 37 423 66 462 98 488 c 0
 137 519 193 538 262 538 c 0
 360 538 427 501 458 433 c 0
 469 410 474 383 474 352 c 2
 474 128 l 2xfa
 474 79 480 41 495 8 c 1
 495 0 l 1
 471 0 l 1
 447 -14 429 -27 416 -40 c 0
 403 -53 396 -69 396 -86 c 0
 396 -107 407 -118 429 -118 c 0
 446 -118 457 -113 468 -108 c 1
 482 -185 l 1
 462 -197 436 -206 401 -206 c 0
 336 -206 290 -170 290 -104 c 0
 290 -53 315 -23 351 2 c 1
 346 15 341 30 338 47 c 1
 310 14 267 -10 205 -10 c 0
 124 -10 66 30 39 85 c 0
 30 104 25 125 25 148 c 0xfc
166 159 m 0
 166 122 197 98 236 98 c 0
 281 98 316 120 332 149 c 1
 332 240 l 1
 274 240 l 2
 213 240 166 218 166 159 c 0
EndSplineSet
Substitution2: "<3,3> Small Caps in Latin lookup 0 subtable" Aogonek.smcp
EndChar

StartChar: Cacute
Encoding: 262 262 201
Width: 639
Flags: MW
HStem: -10 120<261.5 343> 601 120<300.5 369> 754 21G<254 254 254 369>
VStem: 28 148<332 378 378 379 271.5 457> 461 147<237 237>
LayerCount: 2
Fore
SplineSet
28 332 m 2
 28 378 l 2
 28 536 92 649 202 697 c 0
 238 713 278 721 323 721 c 0
 496 721 592 625 609 470 c 1
 462 470 l 1
 457 556 415 601 323 601 c 0
 208 601 176 507 176 379 c 2
 176 332 l 2
 176 211 202 110 321 110 c 0
 412 110 456 152 461 237 c 1
 608 237 l 1
 599 118 534 42 438 8 c 0
 404 -4 365 -10 321 -10 c 0
 171 -10 85 75 48 190 c 0
 34 232 28 279 28 332 c 2
254 754 m 1
 351 905 l 1
 504 905 l 1
 369 754 l 1
 254 754 l 1
EndSplineSet
Substitution2: "<3,3> Small Caps in Latin lookup 0 subtable" Cacute.smcp
EndChar

StartChar: cacute
Encoding: 263 263 202
Width: 521
Flags: MW
HStem: -10 114<227 295.5 227 303.5> 424 114<249.5 295> 730 20G<285 438 438 438>
VStem: 27 141<257 271 215.5 332> 358 132<152.5 183 332 347.5>
LayerCount: 2
Fore
SplineSet
27 257 m 2
 27 271 l 2
 27 393 77 479 163 518 c 0
 193 532 229 538 270 538 c 0
 374 538 442 491 473 418 c 0
 484 392 490 363 490 332 c 1
 358 332 l 1
 358 386 322 424 268 424 c 0
 186 424 168 353 168 271 c 2
 168 257 l 2
 168 174 185 104 269 104 c 0
 322 104 355 133 358 183 c 1
 490 183 l 1
 490 122 460 74 426 44 c 0
 390 12 336 -10 271 -10 c 0
 146 -10 72 57 42 152 c 0
 32 184 27 220 27 257 c 2
188 599 m 1
 285 750 l 1
 438 750 l 1
 303 599 l 1
 188 599 l 1
EndSplineSet
Substitution2: "<3,3> Small Caps in Latin lookup 0 subtable" Cacute.smcp
EndChar

StartChar: Ccircumflex
Encoding: 264 264 203
Width: 639
Flags: MW
HStem: -10 120<261.5 343> 601 120<300.5 369> 762 21G<136 136 136 246 397 397 397 509>
VStem: 28 148<332 378 378 379 271.5 457> 461 147<237 237>
LayerCount: 2
Fore
SplineSet
28 332 m 2
 28 378 l 2
 28 536 92 649 202 697 c 0
 238 713 278 721 323 721 c 0
 496 721 592 625 609 470 c 1
 462 470 l 1
 457 556 415 601 323 601 c 0
 208 601 176 507 176 379 c 2
 176 332 l 2
 176 211 202 110 321 110 c 0
 412 110 456 152 461 237 c 1
 608 237 l 1
 599 118 534 42 438 8 c 0
 404 -4 365 -10 321 -10 c 0
 171 -10 85 75 48 190 c 0
 34 232 28 279 28 332 c 2
136 762 m 1
 136 770 l 1
 281 905 l 1
 363 905 l 1
 509 768 l 1
 509 762 l 1
 397 762 l 1
 322 833 l 1
 246 762 l 1
 136 762 l 1
EndSplineSet
Substitution2: "<3,3> Small Caps in Latin lookup 0 subtable" Ccircumflex.smcp
EndChar

StartChar: ccircumflex
Encoding: 265 265 204
Width: 521
Flags: MW
HStem: -10 114<227 295.5 227 303.5> 424 114<249.5 295> 730 20G<215 297 297 297>
VStem: 27 141<257 271 215.5 332> 358 132<152.5 183 332 347.5>
LayerCount: 2
Fore
SplineSet
27 257 m 2
 27 271 l 2
 27 393 77 479 163 518 c 0
 193 532 229 538 270 538 c 0
 374 538 442 491 473 418 c 0
 484 392 490 363 490 332 c 1
 358 332 l 1
 358 386 322 424 268 424 c 0
 186 424 168 353 168 271 c 2
 168 257 l 2
 168 174 185 104 269 104 c 0
 322 104 355 133 358 183 c 1
 490 183 l 1
 490 122 460 74 426 44 c 0
 390 12 336 -10 271 -10 c 0
 146 -10 72 57 42 152 c 0
 32 184 27 220 27 257 c 2
70 607 m 1
 70 615 l 1
 215 750 l 1
 297 750 l 1
 443 613 l 1
 443 607 l 1
 331 607 l 1
 256 678 l 1
 180 607 l 1
 70 607 l 1
EndSplineSet
Substitution2: "<3,3> Small Caps in Latin lookup 0 subtable" Ccircumflex.smcp
EndChar

StartChar: uni010A
Encoding: 266 266 205
Width: 639
Flags: MW
HStem: -10 120<261.5 343> 601 120<300.5 369> 768 134<301 343.5>
VStem: 28 148<332 378 378 379 271.5 457> 250 144<815 855.5 814.5 856> 461 147<237 237>
LayerCount: 2
Fore
SplineSet
28 332 m 2
 28 378 l 2
 28 536 92 649 202 697 c 0
 238 713 278 721 323 721 c 0
 496 721 592 625 609 470 c 1
 462 470 l 1
 457 556 415 601 323 601 c 0
 208 601 176 507 176 379 c 2
 176 332 l 2
 176 211 202 110 321 110 c 0
 412 110 456 152 461 237 c 1
 608 237 l 1
 599 118 534 42 438 8 c 0
 404 -4 365 -10 321 -10 c 0
 171 -10 85 75 48 190 c 0
 34 232 28 279 28 332 c 2
250 835 m 0
 250 877 279 902 322 902 c 0
 365 902 394 876 394 835 c 0
 394 794 365 768 322 768 c 0
 280 768 250 795 250 835 c 0
EndSplineSet
EndChar

StartChar: uni010B
Encoding: 267 267 206
Width: 521
Flags: MW
HStem: -10 114<227 295.5 227 303.5> 424 114<249.5 295> 612 134<234 276.5>
VStem: 27 141<257 271 215.5 332> 183 144<659 699.5 658.5 700> 358 132<152.5 183 332 347.5>
LayerCount: 2
Fore
SplineSet
27 257 m 2
 27 271 l 2
 27 393 77 479 163 518 c 0
 193 532 229 538 270 538 c 0
 374 538 442 491 473 418 c 0
 484 392 490 363 490 332 c 1
 358 332 l 1
 358 386 322 424 268 424 c 0
 186 424 168 353 168 271 c 2
 168 257 l 2
 168 174 185 104 269 104 c 0
 322 104 355 133 358 183 c 1
 490 183 l 1
 490 122 460 74 426 44 c 0
 390 12 336 -10 271 -10 c 0
 146 -10 72 57 42 152 c 0
 32 184 27 220 27 257 c 2
183 679 m 0
 183 721 212 746 255 746 c 0
 298 746 327 720 327 679 c 0
 327 638 298 612 255 612 c 0
 213 612 183 639 183 679 c 0
EndSplineSet
EndChar

StartChar: Ccaron
Encoding: 268 268 207
Width: 639
Flags: MW
HStem: -10 120<261.5 343> 601 120<300.5 369>
VStem: 28 148<332 378 378 379 271.5 457> 461 147<237 237>
LayerCount: 2
Fore
SplineSet
28 332 m 2
 28 378 l 2
 28 536 92 649 202 697 c 0
 238 713 278 721 323 721 c 0
 496 721 592 625 609 470 c 1
 462 470 l 1
 457 556 415 601 323 601 c 0
 208 601 176 507 176 379 c 2
 176 332 l 2
 176 211 202 110 321 110 c 0
 412 110 456 152 461 237 c 1
 608 237 l 1
 599 118 534 42 438 8 c 0
 404 -4 365 -10 321 -10 c 0
 171 -10 85 75 48 190 c 0
 34 232 28 279 28 332 c 2
130 901 m 1
 130 905 l 1
 250 905 l 1
 322 836 l 1
 393 905 l 1
 514 905 l 1
 514 900 l 1
 366 763 l 1
 277 763 l 1
 130 901 l 1
EndSplineSet
Substitution2: "<3,3> Small Caps in Latin lookup 0 subtable" Ccaron.smcp
EndChar

StartChar: ccaron
Encoding: 269 269 208
Width: 521
Flags: MW
HStem: -10 114<227 295.5 227 303.5> 424 114<249.5 295> 730 20G<64 184 184 184 327 448 448 448>
VStem: 27 141<257 271 215.5 332> 358 132<152.5 183 332 347.5>
LayerCount: 2
Fore
SplineSet
27 257 m 2
 27 271 l 2
 27 393 77 479 163 518 c 0
 193 532 229 538 270 538 c 0
 374 538 442 491 473 418 c 0
 484 392 490 363 490 332 c 1
 358 332 l 1
 358 386 322 424 268 424 c 0
 186 424 168 353 168 271 c 2
 168 257 l 2
 168 174 185 104 269 104 c 0
 322 104 355 133 358 183 c 1
 490 183 l 1
 490 122 460 74 426 44 c 0
 390 12 336 -10 271 -10 c 0
 146 -10 72 57 42 152 c 0
 32 184 27 220 27 257 c 2
64 746 m 1
 64 750 l 1
 184 750 l 1
 256 681 l 1
 327 750 l 1
 448 750 l 1
 448 745 l 1
 300 608 l 1
 211 608 l 1
 64 746 l 1
EndSplineSet
Substitution2: "<3,3> Small Caps in Latin lookup 0 subtable" Ccaron.smcp
EndChar

StartChar: Dcaron
Encoding: 270 270 209
Width: 612
Flags: MW
HStem: 0 118<182 253 182 253> 592 119<182 254 182 182> 761 21G<184 273 184 184>
VStem: 35 147<118 118 118 592> 430 149<339 371 258.5 372 258.5 438>
LayerCount: 2
Fore
SplineSet
35 0 m 1
 35 711 l 1
 254 711 l 2
 412 711 510 626 555 510 c 0
 571 468 579 422 579 371 c 2
 579 339 l 2
 579 178 501 71 385 24 c 0
 345 8 301 0 253 0 c 2
 35 0 l 1
37 899 m 1
 37 903 l 1
 157 903 l 1
 229 834 l 1
 300 903 l 1
 421 903 l 1
 421 898 l 1
 273 761 l 1
 184 761 l 1
 37 899 l 1
182 118 m 1
 253 118 l 2
 378 118 430 208 430 339 c 2
 430 372 l 2
 430 504 380 592 254 592 c 2
 182 592 l 1
 182 118 l 1
EndSplineSet
Substitution2: "<3,3> Small Caps in Latin lookup 0 subtable" Dcaron.smcp
EndChar

StartChar: dcaron
Encoding: 271 271 210
Width: 737
Flags: MW
HStem: -10 114<230.5 266.5> 0 21G<377 504 377 377> 423 115<231 265 218.5 295> 730 20G<363 504 504 504 600 712 712 712>
VStem: 28 141<258 268 218 327.5> 363 141<160 368 368 368 480 750 0 750> 377 127<0 750> 600 112<674 750 655 750>
LayerCount: 2
Fore
SplineSet
28 258 m 2xbb
 28 268 l 2
 28 387 69 478 148 518 c 0
 174 531 202 538 235 538 c 0
 295 538 334 514 363 480 c 1
 363 750 l 1
 504 750 l 1xbd
 504 0 l 1
 377 0 l 1x7b
 370 56 l 1
 339 18 299 -10 234 -10 c 0
 163 -10 114 23 82 66 c 0
 48 112 28 179 28 258 c 2xbb
169 258 m 2
 169 178 191 104 270 104 c 0
 318 104 347 127 363 160 c 1
 363 368 l 1
 347 401 319 423 271 423 c 0
 191 423 169 348 169 268 c 2
 169 258 l 2
556 531 m 1
 579 570 600 612 600 674 c 2
 600 750 l 1
 712 750 l 1
 712 674 l 2
 712 636 700 604 686 576 c 0
 671 544 648 515 623 493 c 1
 556 531 l 1
EndSplineSet
Substitution2: "<3,3> Small Caps in Latin lookup 0 subtable" Dcaron.smcp
EndChar

StartChar: Dcroat
Encoding: 272 272 211
Width: 675
Flags: MW
HStem: 0 118<244 314 244 314> 313 90<24 97 24 97 244 365> 592 119<244 316 244 244>
VStem: 97 147<118 118 118 313 403 592> 492 149<339 371 259 372 259 437.5>
LayerCount: 2
Fore
SplineSet
24 313 m 1
 24 403 l 1
 97 403 l 1
 97 711 l 1
 316 711 l 2
 474 711 573 626 617 510 c 0
 633 468 641 422 641 371 c 2
 641 339 l 2
 641 179 562 71 447 24 c 0
 407 8 363 0 314 0 c 2
 97 0 l 1
 97 313 l 1
 24 313 l 1
244 118 m 1
 314 118 l 2
 439 118 492 208 492 339 c 2
 492 372 l 2
 492 503 441 592 316 592 c 2
 244 592 l 1
 244 403 l 1
 365 403 l 1
 365 313 l 1
 244 313 l 1
 244 118 l 1
EndSplineSet
Substitution2: "<3,3> Small Caps in Latin lookup 0 subtable" Dcroat.smcp
EndChar

StartChar: dcroat
Encoding: 273 273 212
Width: 604
Flags: MW
HStem: -10 114<229.5 265.5> 0 21G<376 503 376 376> 423 115<230 264 217.5 294> 595 90<239 362 239 362 503 580> 730 20G<362 503 503 503>
VStem: 27 141<258 268 218 327.5> 362 141<160 368 368 368 480 595 0 595 685 750> 376 127<0 595>
LayerCount: 2
Fore
SplineSet
27 258 m 2xbd
 27 268 l 2
 27 387 67 478 146 518 c 0
 172 531 201 538 234 538 c 0
 294 538 333 514 362 480 c 1
 362 595 l 1
 239 595 l 1
 239 685 l 1
 362 685 l 1
 362 750 l 1
 503 750 l 1
 503 685 l 1
 580 685 l 1
 580 595 l 1
 503 595 l 1xbe
 503 0 l 1
 376 0 l 1x7d
 369 56 l 1
 338 18 298 -10 233 -10 c 0
 162 -10 113 23 81 66 c 0
 47 112 27 179 27 258 c 2xbd
168 258 m 2
 168 178 190 104 269 104 c 0
 317 104 346 127 362 160 c 1
 362 368 l 1
 346 401 318 423 270 423 c 0
 190 423 168 348 168 268 c 2
 168 258 l 2
EndSplineSet
Substitution2: "<3,3> Small Caps in Latin lookup 0 subtable" Dcroat.smcp
EndChar

StartChar: Emacron
Encoding: 274 274 213
Width: 541
Flags: MW
HStem: 0 118<182 512 182 512> 308 115<182 463 182 463> 592 119<182 511 182 182> 782 81<105 462 105 462>
VStem: 35 147<118 308 423 592>
LayerCount: 2
Fore
SplineSet
35 0 m 1
 35 711 l 1
 511 711 l 1
 511 592 l 1
 182 592 l 1
 182 423 l 1
 463 423 l 1
 463 308 l 1
 182 308 l 1
 182 118 l 1
 512 118 l 1
 512 0 l 1
 35 0 l 1
105 782 m 1
 105 863 l 1
 462 863 l 1
 462 782 l 1
 105 782 l 1
EndSplineSet
Substitution2: "<3,3> Small Caps in Latin lookup 0 subtable" Emacron.smcp
EndChar

StartChar: emacron
Encoding: 275 275 214
Width: 540
Flags: MW
HStem: -10 114<261 328.5 261 338> 218 96<172 368 172 507 170 368> 424 114<255 303.5> 630 81<80 437 80 437>
VStem: 27 143<218 265 218 327.5> 368 139<218 326 218 356.5>
LayerCount: 2
Fore
SplineSet
27 246 m 2
 27 265 l 2
 27 390 84 479 172 518 c 0
 202 531 236 538 274 538 c 0
 430 538 507 434 507 278 c 2
 507 218 l 1
 170 218 l 1
 178 150 223 104 299 104 c 0
 358 104 399 127 426 163 c 1
 495 85 l 1
 454 29 387 -10 289 -10 c 0
 162 -10 80 54 45 146 c 0
 33 177 27 211 27 246 c 2
80 630 m 1
 80 711 l 1
 437 711 l 1
 437 630 l 1
 80 630 l 1
172 314 m 1
 368 314 l 1
 368 326 l 2
 368 387 334 424 273 424 c 0
 207 424 179 373 172 314 c 1
EndSplineSet
Substitution2: "<3,3> Small Caps in Latin lookup 0 subtable" Emacron.smcp
EndChar

StartChar: Ebreve
Encoding: 276 276 215
Width: 541
Flags: MW
HStem: 0 118<182 512 182 512> 308 115<182 463 182 463> 592 119<182 511 182 182> 753 81<261.5 295.5>
VStem: 35 147<118 308 423 592> 114 100<887.5 898> 351 101<877.5 898>
LayerCount: 2
Fore
SplineSet
35 0 m 1xfa
 35 711 l 1
 511 711 l 1
 511 592 l 1
 182 592 l 1
 182 423 l 1
 463 423 l 1
 463 308 l 1
 182 308 l 1
 182 118 l 1
 512 118 l 1
 512 0 l 1
 35 0 l 1xfa
114 898 m 1xf6
 214 898 l 1
 214 855 240 834 283 834 c 0
 326 834 351 857 351 898 c 1
 452 898 l 1
 452 825 407 783 352 764 c 0
 331 757 308 753 283 753 c 0
 206 753 149 786 126 840 c 0
 118 858 114 877 114 898 c 1xf6
EndSplineSet
Substitution2: "<3,3> Small Caps in Latin lookup 0 subtable" Ebreve.smcp
EndChar

StartChar: ebreve
Encoding: 277 277 216
Width: 540
Flags: MW
HStem: -10 114<261 328.5 261 338> 218 96<172 368 172 507 170 368> 424 114<255 303.5> 600 81<236.5 270.5>
VStem: 27 143<218 265 218 327.5> 89 100<723.5 745 723.5 745> 326 101<724.5 745> 368 139<218 326 218 356.5>
LayerCount: 2
Fore
SplineSet
27 246 m 2xf9
 27 265 l 2
 27 390 84 479 172 518 c 0
 202 531 236 538 274 538 c 0
 430 538 507 434 507 278 c 2
 507 218 l 1
 170 218 l 1
 178 150 223 104 299 104 c 0
 358 104 399 127 426 163 c 1
 495 85 l 1
 454 29 387 -10 289 -10 c 0
 162 -10 80 54 45 146 c 0
 33 177 27 211 27 246 c 2xf9
89 745 m 1xf6
 189 745 l 1
 189 702 215 681 258 681 c 0
 301 681 326 704 326 745 c 1
 427 745 l 1
 427 672 383 630 328 611 c 0
 307 604 283 600 258 600 c 0
 161 600 89 649 89 745 c 1xf6
172 314 m 1
 368 314 l 1
 368 326 l 2xf1
 368 387 334 424 273 424 c 0
 207 424 179 373 172 314 c 1
EndSplineSet
Substitution2: "<3,3> Small Caps in Latin lookup 0 subtable" Ebreve.smcp
EndChar

StartChar: Edotaccent
Encoding: 278 278 217
Width: 541
Flags: MW
HStem: 0 118<182 512 182 512> 308 115<182 463 182 463> 592 119<182 511 182 182> 765 134<261 303.5>
VStem: 35 147<118 308 423 592> 210 144<812 852.5 811.5 853>
LayerCount: 2
Fore
SplineSet
35 0 m 1
 35 711 l 1
 511 711 l 1
 511 592 l 1
 182 592 l 1
 182 423 l 1
 463 423 l 1
 463 308 l 1
 182 308 l 1
 182 118 l 1
 512 118 l 1
 512 0 l 1
 35 0 l 1
210 832 m 0
 210 874 239 899 282 899 c 0
 325 899 354 873 354 832 c 0
 354 791 325 765 282 765 c 0
 240 765 210 792 210 832 c 0
EndSplineSet
Substitution2: "<3,3> Small Caps in Latin lookup 0 subtable" Edotaccent.smcp
EndChar

StartChar: edotaccent
Encoding: 279 279 218
Width: 540
Flags: MW
HStem: -10 114<261 328.5 261 338> 218 96<172 368 172 507 170 368> 424 114<255 303.5> 612 134<236 278.5>
VStem: 27 143<218 265 218 327.5> 185 144<659 699.5 658.5 700> 368 139<218 326 218 356.5>
LayerCount: 2
Fore
SplineSet
27 246 m 2
 27 265 l 2
 27 390 84 479 172 518 c 0
 202 531 236 538 274 538 c 0
 430 538 507 434 507 278 c 2
 507 218 l 1
 170 218 l 1
 178 150 223 104 299 104 c 0
 358 104 399 127 426 163 c 1
 495 85 l 1
 454 29 387 -10 289 -10 c 0
 162 -10 80 54 45 146 c 0
 33 177 27 211 27 246 c 2
172 314 m 1
 368 314 l 1
 368 326 l 2
 368 387 334 424 273 424 c 0
 207 424 179 373 172 314 c 1
185 679 m 0
 185 721 214 746 257 746 c 0
 300 746 329 720 329 679 c 0
 329 638 300 612 257 612 c 0
 215 612 185 639 185 679 c 0
EndSplineSet
Substitution2: "<3,3> Small Caps in Latin lookup 0 subtable" Edotaccent.smcp
EndChar

StartChar: Eogonek
Encoding: 280 280 219
Width: 541
Flags: MW
HStem: -206 88<384 385> 0 118<182 313 438 438 438 512> 308 115<182 463 182 463> 592 119<182 511 182 182>
VStem: 35 147<118 308 423 592> 257 106<-96.5 -80>
LayerCount: 2
Fore
SplineSet
35 0 m 1
 35 711 l 1
 511 711 l 1
 511 592 l 1
 182 592 l 1
 182 423 l 1
 463 423 l 1
 463 308 l 1
 182 308 l 1
 182 118 l 1
 512 118 l 1
 512 0 l 1
 438 0 l 1
 414 -14 395 -27 382 -40 c 0
 369 -53 363 -69 363 -86 c 0
 363 -107 373 -118 395 -118 c 0
 412 -118 423 -113 434 -108 c 1
 448 -185 l 1
 428 -196 402 -206 368 -206 c 0
 302 -206 257 -170 257 -104 c 0
 257 -56 280 -24 313 0 c 1
 35 0 l 1
EndSplineSet
Substitution2: "<3,3> Small Caps in Latin lookup 0 subtable" Eogonek.smcp
EndChar

StartChar: eogonek
Encoding: 281 281 220
Width: 541
Flags: MW
HStem: -191 88<357 357.5> 218 96<173 369 173 508 171 369> 424 114<256 304.5>
VStem: 28 143<218 265 218 327.5> 229 106<-81.5 -71.5> 369 139<218 326 218 356.5>
LayerCount: 2
Fore
SplineSet
28 246 m 2
 28 265 l 2
 28 390 84 479 172 518 c 0
 202 531 237 538 275 538 c 0
 431 538 508 434 508 278 c 2
 508 218 l 1
 171 218 l 1
 179 150 224 104 300 104 c 0
 359 104 400 127 427 163 c 1
 496 85 l 1
 475 55 447 32 410 15 c 0
 386 1 368 -12 355 -25 c 0
 342 -38 335 -54 335 -71 c 0
 335 -92 346 -103 368 -103 c 0
 385 -103 396 -98 407 -93 c 1
 421 -169 l 1
 401 -181 375 -191 340 -191 c 0
 275 -191 229 -155 229 -89 c 0
 229 -54 241 -29 260 -8 c 1
 150 2 74 63 43 152 c 0
 33 181 28 213 28 246 c 2
173 314 m 1
 369 314 l 1
 369 326 l 2
 369 387 335 424 274 424 c 0
 208 424 180 373 173 314 c 1
EndSplineSet
Substitution2: "<3,3> Small Caps in Latin lookup 0 subtable" Eogonek.smcp
EndChar

StartChar: Ecaron
Encoding: 282 282 221
Width: 541
Flags: MW
HStem: 0 118<182 512 182 512> 308 115<182 463 182 463> 592 119<182 511 182 182> 761 21G<237 326 237 237>
VStem: 35 147<118 308 423 592>
LayerCount: 2
Fore
SplineSet
35 0 m 1
 35 711 l 1
 511 711 l 1
 511 592 l 1
 182 592 l 1
 182 423 l 1
 463 423 l 1
 463 308 l 1
 182 308 l 1
 182 118 l 1
 512 118 l 1
 512 0 l 1
 35 0 l 1
90 899 m 1
 90 903 l 1
 210 903 l 1
 282 834 l 1
 353 903 l 1
 474 903 l 1
 474 898 l 1
 326 761 l 1
 237 761 l 1
 90 899 l 1
EndSplineSet
Substitution2: "<3,3> Small Caps in Latin lookup 0 subtable" Ecaron.smcp
EndChar

StartChar: ecaron
Encoding: 283 283 222
Width: 540
Flags: MW
HStem: -10 114<261 328.5 261 338> 218 96<172 368 172 507 170 368> 424 114<255 303.5> 730 20G<66 186 186 186 329 450 450 450>
VStem: 27 143<218 265 218 327.5> 368 139<218 326 218 356.5>
LayerCount: 2
Fore
SplineSet
27 246 m 2
 27 265 l 2
 27 390 84 479 172 518 c 0
 202 531 236 538 274 538 c 0
 430 538 507 434 507 278 c 2
 507 218 l 1
 170 218 l 1
 178 150 223 104 299 104 c 0
 358 104 399 127 426 163 c 1
 495 85 l 1
 454 29 387 -10 289 -10 c 0
 162 -10 80 54 45 146 c 0
 33 177 27 211 27 246 c 2
66 746 m 1
 66 750 l 1
 186 750 l 1
 258 681 l 1
 329 750 l 1
 450 750 l 1
 450 745 l 1
 302 608 l 1
 213 608 l 1
 66 746 l 1
172 314 m 1
 368 314 l 1
 368 326 l 2
 368 387 334 424 273 424 c 0
 207 424 179 373 172 314 c 1
EndSplineSet
Substitution2: "<3,3> Small Caps in Latin lookup 0 subtable" Ecaron.smcp
EndChar

StartChar: Gcircumflex
Encoding: 284 284 223
Width: 645
Flags: MW
HStem: -10 118<282.5 368 282.5 397.5> 266 108<328 461 328 608> 603 118<303.5 372> 762 21G<136 136 136 246 397 397 397 509>
VStem: 28 149<334 376 376 377 268 457> 461 147<143 266 266 266>
LayerCount: 2
Fore
SplineSet
28 334 m 2
 28 376 l 2
 28 538 89 650 203 698 c 0
 240 713 281 721 326 721 c 0
 497 721 590 637 608 485 c 1
 465 485 l 1
 454 558 414 603 330 603 c 0
 214 603 177 504 177 377 c 2
 177 334 l 2
 177 202 221 108 344 108 c 0
 392 108 440 117 461 143 c 1
 461 266 l 1
 328 266 l 1
 328 374 l 1
 608 374 l 1
 608 90 l 1
 553 26 459 -10 336 -10 c 0
 183 -10 90 72 50 188 c 0
 35 230 28 279 28 334 c 2
136 762 m 1
 136 770 l 1
 281 905 l 1
 363 905 l 1
 509 768 l 1
 509 762 l 1
 397 762 l 1
 322 833 l 1
 246 762 l 1
 136 762 l 1
EndSplineSet
Substitution2: "<3,3> Small Caps in Latin lookup 0 subtable" Gcircumflex.smcp
EndChar

StartChar: gcircumflex
Encoding: 285 285 224
Width: 549
Flags: MW
HStem: -208 110<220 274.5> -10 114<266.5 269> 423 115<236.5 273 224.5 300> 508 20G<382 510 510 510> 730 20G<223 305 305 305>
VStem: 27 141<258 268 225.5 328.5> 368 142<17 18 18 45 45 45 153 375 375 375>
LayerCount: 2
Fore
SplineSet
27 258 m 2xde
 27 268 l 2
 27 389 70 478 151 518 c 0
 177 531 208 538 241 538 c 0xee
 305 538 347 515 376 479 c 1
 382 528 l 1
 510 528 l 1
 510 18 l 2
 510 -96 446 -165 359 -193 c 0
 328 -203 293 -208 256 -208 c 0
 170 -208 99 -174 59 -125 c 1
 121 -39 l 1
 150 -72 191 -98 249 -98 c 0
 323 -98 368 -57 368 17 c 2
 368 45 l 1
 340 13 298 -10 240 -10 c 0
 168 -10 117 24 84 66 c 0
 48 111 27 178 27 258 c 2xde
78 607 m 1
 78 615 l 1
 223 750 l 1
 305 750 l 1
 451 613 l 1
 451 607 l 1
 339 607 l 1
 264 678 l 1
 188 607 l 1
 78 607 l 1
168 258 m 2
 168 193 186 140 227 116 c 0
 241 108 257 104 276 104 c 0
 322 104 351 123 368 153 c 1
 368 375 l 1
 350 404 323 423 277 423 c 0
 196 423 168 349 168 268 c 2
 168 258 l 2
EndSplineSet
Substitution2: "<3,3> Small Caps in Latin lookup 0 subtable" Gcircumflex.smcp
EndChar

StartChar: Gbreve
Encoding: 286 286 225
Width: 645
Flags: MW
HStem: -10 118<282.5 368 282.5 397.5> 266 108<328 461 328 608> 603 118<303.5 372> 755 81<300.5 334.5>
VStem: 28 149<334 376 376 377 268 457> 153 100<889.5 900> 390 101<879.5 900> 461 147<143 266 266 266>
LayerCount: 2
Fore
SplineSet
28 334 m 2xf9
 28 376 l 2
 28 538 89 650 203 698 c 0
 240 713 281 721 326 721 c 0
 497 721 590 637 608 485 c 1
 465 485 l 1
 454 558 414 603 330 603 c 0
 214 603 177 504 177 377 c 2
 177 334 l 2
 177 202 221 108 344 108 c 0
 392 108 440 117 461 143 c 1
 461 266 l 1
 328 266 l 1
 328 374 l 1
 608 374 l 1
 608 90 l 1
 553 26 459 -10 336 -10 c 0
 183 -10 90 72 50 188 c 0
 35 230 28 279 28 334 c 2xf9
153 900 m 1xf6
 253 900 l 1
 253 857 279 836 322 836 c 0
 365 836 390 859 390 900 c 1
 491 900 l 1
 491 827 447 785 392 766 c 0
 371 759 347 755 322 755 c 0
 245 755 187 788 164 842 c 0
 156 860 153 879 153 900 c 1xf6
EndSplineSet
Substitution2: "<3,3> Small Caps in Latin lookup 0 subtable" Gbreve.smcp
EndChar

StartChar: gbreve
Encoding: 287 287 226
Width: 549
Flags: MW
HStem: -208 110<220 274.5> -10 114<266.5 269> 423 115<236.5 273 224.5 300> 508 20G<382 510 510 510> 600 81<242.5 276.5>
VStem: 27 141<258 268 225.5 328.5> 95 100<734.5 745> 332 101<724.5 745> 368 142<17 18 18 45 45 45 153 375 375 375>
LayerCount: 2
Fore
SplineSet
27 258 m 2xdc80
 27 268 l 2
 27 389 70 478 151 518 c 0
 177 531 208 538 241 538 c 0xec80
 305 538 347 515 376 479 c 1
 382 528 l 1
 510 528 l 1
 510 18 l 2
 510 -96 446 -165 359 -193 c 0
 328 -203 293 -208 256 -208 c 0
 170 -208 99 -174 59 -125 c 1
 121 -39 l 1
 150 -72 191 -98 249 -98 c 0
 323 -98 368 -57 368 17 c 2
 368 45 l 1
 340 13 298 -10 240 -10 c 0
 168 -10 117 24 84 66 c 0
 48 111 27 178 27 258 c 2xdc80
95 745 m 1xcb
 195 745 l 1
 195 702 221 681 264 681 c 0
 307 681 332 704 332 745 c 1
 433 745 l 1
 433 672 388 630 333 611 c 0
 312 604 289 600 264 600 c 0
 187 600 130 632 107 686 c 0
 99 704 95 724 95 745 c 1xcb
168 258 m 2xec80
 168 193 186 140 227 116 c 0
 241 108 257 104 276 104 c 0
 322 104 351 123 368 153 c 1
 368 375 l 1
 350 404 323 423 277 423 c 0
 196 423 168 349 168 268 c 2
 168 258 l 2xec80
EndSplineSet
Substitution2: "<3,3> Small Caps in Latin lookup 0 subtable" Gbreve.smcp
EndChar

StartChar: uni0120
Encoding: 288 288 227
Width: 645
Flags: MW
HStem: -10 118<282.5 368 282.5 397.5> 266 108<328 461 328 608> 603 118<303.5 372> 768 134<300 342.5>
VStem: 28 149<334 376 376 377 268 457> 249 144<815 855.5 814.5 856> 461 147<143 266 266 266>
LayerCount: 2
Fore
SplineSet
28 334 m 2
 28 376 l 2
 28 538 89 650 203 698 c 0
 240 713 281 721 326 721 c 0
 497 721 590 637 608 485 c 1
 465 485 l 1
 454 558 414 603 330 603 c 0
 214 603 177 504 177 377 c 2
 177 334 l 2
 177 202 221 108 344 108 c 0
 392 108 440 117 461 143 c 1
 461 266 l 1
 328 266 l 1
 328 374 l 1
 608 374 l 1
 608 90 l 1
 553 26 459 -10 336 -10 c 0
 183 -10 90 72 50 188 c 0
 35 230 28 279 28 334 c 2
249 835 m 0
 249 877 278 902 321 902 c 0
 364 902 393 876 393 835 c 0
 393 794 364 768 321 768 c 0
 279 768 249 795 249 835 c 0
EndSplineSet
EndChar

StartChar: uni0121
Encoding: 289 289 228
Width: 549
Flags: MW
HStem: -208 110<220 274.5> -10 114<266.5 269> 423 115<236.5 273 224.5 300> 508 20G<382 510 510 510> 612 134<242 284.5>
VStem: 27 141<258 268 225.5 328.5> 191 144<659 699.5 658.5 700> 368 142<17 18 18 45 45 45 153 375 375 375>
LayerCount: 2
Fore
SplineSet
27 258 m 2xdf
 27 268 l 2
 27 389 70 478 151 518 c 0
 177 531 208 538 241 538 c 0xef
 305 538 347 515 376 479 c 1
 382 528 l 1
 510 528 l 1
 510 18 l 2
 510 -96 446 -165 359 -193 c 0
 328 -203 293 -208 256 -208 c 0
 170 -208 99 -174 59 -125 c 1
 121 -39 l 1
 150 -72 191 -98 249 -98 c 0
 323 -98 368 -57 368 17 c 2
 368 45 l 1
 340 13 298 -10 240 -10 c 0
 168 -10 117 24 84 66 c 0
 48 111 27 178 27 258 c 2xdf
168 258 m 2
 168 193 186 140 227 116 c 0
 241 108 257 104 276 104 c 0
 322 104 351 123 368 153 c 1
 368 375 l 1
 350 404 323 423 277 423 c 0
 196 423 168 349 168 268 c 2
 168 258 l 2
191 679 m 0
 191 721 220 746 263 746 c 0
 306 746 335 720 335 679 c 0
 335 638 306 612 263 612 c 0
 221 612 191 639 191 679 c 0
EndSplineSet
EndChar

StartChar: Gcedilla
Encoding: 290 290 229
Width: 645
Flags: MW
HStem: -10 118<282.5 368 282.5 397.5> 266 108<328 461 328 608> 603 118<303.5 372>
VStem: 28 149<334 376 376 377 268 457> 277 104<-88 -81 -81 -46 -108.5 -46> 461 147<143 266 266 266>
LayerCount: 2
Fore
SplineSet
28 334 m 2
 28 376 l 2
 28 538 89 650 203 698 c 0
 240 713 281 721 326 721 c 0
 497 721 590 637 608 485 c 1
 465 485 l 1
 454 558 414 603 330 603 c 0
 214 603 177 504 177 377 c 2
 177 334 l 2
 177 202 221 108 344 108 c 0
 392 108 440 117 461 143 c 1
 461 266 l 1
 328 266 l 1
 328 374 l 1
 608 374 l 1
 608 90 l 1
 553 26 459 -10 336 -10 c 0
 183 -10 90 72 50 188 c 0
 35 230 28 279 28 334 c 2
240 -214 m 1
 261 -180 277 -144 277 -88 c 2
 277 -46 l 1
 381 -46 l 1
 381 -81 l 2
 381 -136 360 -183 338 -218 c 0
 329 -232 320 -243 310 -253 c 1
 240 -214 l 1
EndSplineSet
Substitution2: "<3,3> Small Caps in Latin lookup 0 subtable" Gcommaaccent.smcp
EndChar

StartChar: gcedilla
Encoding: 291 291 230
Width: 549
Flags: MW
HStem: -208 110<220 274.5> -10 114<266.5 269> 423 115<236.5 273 224.5 300> 508 20G<382 510 510 510>
VStem: 27 141<258 268 225.5 328.5> 206 110<615 676 615 682 615 717.5> 368 142<17 18 18 45 45 45 153 375 375 375>
LayerCount: 2
Fore
SplineSet
27 258 m 2xde
 27 268 l 2
 27 389 70 478 151 518 c 0
 177 531 208 538 241 538 c 0xee
 305 538 347 515 376 479 c 1
 382 528 l 1
 510 528 l 1
 510 18 l 2
 510 -96 446 -165 359 -193 c 0
 328 -203 293 -208 256 -208 c 0
 170 -208 99 -174 59 -125 c 1
 121 -39 l 1
 150 -72 191 -98 249 -98 c 0
 323 -98 368 -57 368 17 c 2
 368 45 l 1
 340 13 298 -10 240 -10 c 0
 168 -10 117 24 84 66 c 0
 48 111 27 178 27 258 c 2xde
168 258 m 2
 168 193 186 140 227 116 c 0
 241 108 257 104 276 104 c 0
 322 104 351 123 368 153 c 1
 368 375 l 1
 350 404 323 423 277 423 c 0
 196 423 168 349 168 268 c 2
 168 258 l 2
206 615 m 1
 206 682 l 2
 206 753 235 810 276 840 c 1
 349 802 l 1
 331 771 316 726 316 676 c 2
 316 615 l 1
 206 615 l 1
EndSplineSet
Substitution2: "<3,3> Small Caps in Latin lookup 0 subtable" Gcommaaccent.smcp
EndChar

StartChar: Hcircumflex
Encoding: 292 292 231
Width: 654
Flags: MW
HStem: 0 21G<35 35 35 182 468 468 468 614> 305 118<182 468 182 468> 691 20G<35 182 182 182 468 614 614 614> 760 21G<139 139 139 249 400 400 400 512>
VStem: 35 147<0 305 423 711> 468 146<0 305 305 305 423 711 0 711>
LayerCount: 2
Fore
SplineSet
35 0 m 1
 35 711 l 1
 182 711 l 1
 182 423 l 1
 468 423 l 1
 468 711 l 1
 614 711 l 1
 614 0 l 1
 468 0 l 1
 468 305 l 1
 182 305 l 1
 182 0 l 1
 35 0 l 1
139 760 m 1
 139 768 l 1
 284 903 l 1
 366 903 l 1
 512 766 l 1
 512 760 l 1
 400 760 l 1
 325 831 l 1
 249 760 l 1
 139 760 l 1
EndSplineSet
Substitution2: "<3,3> Small Caps in Latin lookup 0 subtable" Hcircumflex.smcp
EndChar

StartChar: hcircumflex
Encoding: 293 293 232
Width: 528
Flags: MW
HStem: 0 21G<35 35 35 176 350 350 350 491> 423 115<284.5 296> 730 20G<35 176 176 176>
VStem: 35 141<0 375 471 750> 350 141<0 333 0 334 0 364.5>
LayerCount: 2
Fore
SplineSet
35 0 m 1
 35 750 l 1
 176 750 l 1
 176 471 l 1
 207 509 252 538 317 538 c 0
 442 538 491 460 491 333 c 2
 491 0 l 1
 350 0 l 1
 350 334 l 2
 350 395 326 423 266 423 c 0
 221 423 193 404 176 375 c 1
 176 0 l 1
 35 0 l 1
54 793 m 1
 54 801 l 1
 199 936 l 1
 281 936 l 1
 427 799 l 1
 427 793 l 1
 315 793 l 1
 240 864 l 1
 164 793 l 1
 54 793 l 1
EndSplineSet
Substitution2: "<3,3> Small Caps in Latin lookup 0 subtable" Hcircumflex.smcp
EndChar

StartChar: Hbar
Encoding: 294 294 233
Width: 739
Flags: MW
HStem: 0 21G<76 223 76 76 508 655 508 508> 305 118<223 508 223 508> 513 85<21 76 21 76 223 508 655 714> 691 20G<76 223 223 223 508 655 655 655>
VStem: 76 147<0 305 423 513 598 711> 508 147<0 305 305 305 423 513 0 513 598 711>
LayerCount: 2
Fore
SplineSet
21 513 m 1
 21 598 l 1
 76 598 l 1
 76 711 l 1
 223 711 l 1
 223 598 l 1
 508 598 l 1
 508 711 l 1
 655 711 l 1
 655 598 l 1
 714 598 l 1
 714 513 l 1
 655 513 l 1
 655 0 l 1
 508 0 l 1
 508 305 l 1
 223 305 l 1
 223 0 l 1
 76 0 l 1
 76 513 l 1
 21 513 l 1
223 423 m 1
 508 423 l 1
 508 513 l 1
 223 513 l 1
 223 423 l 1
EndSplineSet
EndChar

StartChar: hbar
Encoding: 295 295 234
Width: 592
Flags: MW
HStem: 0 21G<97 239 97 97 413 554 413 413> 423 115<347.5 358.5> 594 89<21 97 21 97 239 362> 730 20G<97 239 239 239>
VStem: 97 142<0 375 471 594 683 750> 413 141<0 333 0 334 0 364.5>
LayerCount: 2
Fore
SplineSet
21 594 m 1
 21 683 l 1
 97 683 l 1
 97 750 l 1
 239 750 l 1
 239 683 l 1
 362 683 l 1
 362 594 l 1
 239 594 l 1
 239 471 l 1
 270 509 315 538 380 538 c 0
 504 538 554 460 554 333 c 2
 554 0 l 1
 413 0 l 1
 413 334 l 2
 413 395 389 423 328 423 c 0
 284 423 255 404 239 375 c 1
 239 0 l 1
 97 0 l 1
 97 594 l 1
 21 594 l 1
EndSplineSet
EndChar

StartChar: Itilde
Encoding: 296 296 235
Width: 406
Flags: MW
HStem: 0 21G<129 129 129 275> 691 20G<129 275 275 275> 761 21G<100 100> 766 89<252.5 275 235 283> 808 89<128 147.5>
VStem: 18 82<766 774.5 761 794.5> 129 146<0 711 0 711> 304 82<888.5 896 867 902>
CounterMasks: 1 07
LayerCount: 2
Fore
SplineSet
18 766 m 1xd7
 18 823 46 866 84 886 c 0
 98 893 113 897 128 897 c 0xcf
 183 897 208 855 262 855 c 0
 288 855 304 875 304 902 c 1
 386 896 l 1
 386 838 357 796 319 776 c 0
 306 769 291 766 275 766 c 0xd7
 230 766 206 788 175 802 c 0
 165 806 154 808 141 808 c 0
 115 808 100 788 100 761 c 1xef
 18 766 l 1xd7
129 0 m 1
 129 711 l 1
 275 711 l 1
 275 0 l 1
 129 0 l 1
EndSplineSet
Substitution2: "<3,3> Small Caps in Latin lookup 0 subtable" Itilde.smcp
EndChar

StartChar: itilde
Encoding: 297 297 236
Width: 410
Flags: MW
HStem: 0 21G<132 132 132 274> 508 20G<132 274 274 274> 606 89<254.5 277 251 285> 648 89<130 144 122.5 149.5>
VStem: 20 82<606 614.5 601 634.5> 132 142<0 528 0 528> 306 82<728.5 736 707 742>
LayerCount: 2
Fore
SplineSet
20 606 m 1xee
 20 663 49 706 87 726 c 0
 101 733 115 737 130 737 c 0xde
 158 737 179 725 199 716 c 0
 218 707 238 695 264 695 c 0
 290 695 306 715 306 742 c 1
 388 736 l 1
 388 678 359 636 321 616 c 0
 308 609 293 606 277 606 c 0xee
 232 606 208 628 177 642 c 0
 167 646 156 648 143 648 c 0xde
 117 648 102 628 102 601 c 1
 20 606 l 1xee
132 0 m 1
 132 528 l 1
 274 528 l 1
 274 0 l 1
 132 0 l 1
EndSplineSet
Substitution2: "<3,3> Small Caps in Latin lookup 0 subtable" Itilde.smcp
EndChar

StartChar: Imacron
Encoding: 298 298 237
Width: 395
Flags: MW
HStem: 0 21G<123 123 123 269> 691 20G<123 269 269 269> 782 81<18 375 18 375>
VStem: 123 146<0 711 0 711>
LayerCount: 2
Fore
SplineSet
18 782 m 1
 18 863 l 1
 375 863 l 1
 375 782 l 1
 18 782 l 1
123 0 m 1
 123 711 l 1
 269 711 l 1
 269 0 l 1
 123 0 l 1
EndSplineSet
Substitution2: "<3,3> Small Caps in Latin lookup 0 subtable" Imacron.smcp
EndChar

StartChar: imacron
Encoding: 299 299 238
Width: 404
Flags: MW
HStem: 0 21G<127 127 127 269> 508 20G<127 269 269 269> 622 81<22 379 22 379>
VStem: 127 142<0 528 0 528>
LayerCount: 2
Fore
SplineSet
22 622 m 1
 22 703 l 1
 379 703 l 1
 379 622 l 1
 22 622 l 1
127 0 m 1
 127 528 l 1
 269 528 l 1
 269 0 l 1
 127 0 l 1
EndSplineSet
Substitution2: "<3,3> Small Caps in Latin lookup 0 subtable" Imacron.smcp
EndChar

StartChar: Ibreve
Encoding: 300 300 239
Width: 376
Flags: MW
HStem: 0 21G<113 113 113 259> 691 20G<113 259 259 259> 753 81<165.5 199.5>
VStem: 18 100<887.5 898> 113 146<0 711 0 711> 255 101<877.5 898>
LayerCount: 2
Fore
SplineSet
18 898 m 1xf4
 118 898 l 1
 118 855 144 834 187 834 c 0
 230 834 255 857 255 898 c 1
 356 898 l 1
 356 825 311 783 256 764 c 0
 235 757 212 753 187 753 c 0
 110 753 53 786 30 840 c 0
 22 858 18 877 18 898 c 1xf4
113 0 m 1xe8
 113 711 l 1
 259 711 l 1
 259 0 l 1
 113 0 l 1xe8
EndSplineSet
Substitution2: "<3,3> Small Caps in Latin lookup 0 subtable" Ibreve.smcp
EndChar

StartChar: ibreve
Encoding: 301 301 240
Width: 379
Flags: MW
HStem: 0 21G<116 116 116 258> 508 20G<116 258 258 258> 593 81<167.5 201.5> 718 20G<20 120 120 120 257 358 358 358>
VStem: 20 100<727.5 738> 116 142<0 528 0 528> 257 101<717.5 738>
LayerCount: 2
Fore
SplineSet
20 738 m 1xfa
 120 738 l 1
 120 695 146 674 189 674 c 0
 232 674 257 697 257 738 c 1
 358 738 l 1
 358 665 314 623 259 604 c 0
 238 597 214 593 189 593 c 0
 112 593 54 626 31 680 c 0
 23 698 20 717 20 738 c 1xfa
116 0 m 1xf4
 116 528 l 1
 258 528 l 1
 258 0 l 1
 116 0 l 1xf4
EndSplineSet
Substitution2: "<3,3> Small Caps in Latin lookup 0 subtable" Ibreve.smcp
EndChar

StartChar: Iogonek
Encoding: 302 302 241
Width: 268
Flags: MW
HStem: -206 88<145.5 146.5> 691 20G<82 228 228 228>
VStem: 18 106<-96 -77.5 -96 -77> 82 146<4 711 0 711>
LayerCount: 2
Fore
SplineSet
18 -104 m 0xe0
 18 -50 48 -19 82 4 c 1
 82 711 l 1
 228 711 l 1
 228 0 l 1xd0
 199 0 l 1
 175 -14 156 -27 143 -40 c 0
 130 -53 124 -69 124 -86 c 0
 124 -106 135 -118 156 -118 c 0
 173 -118 185 -113 196 -108 c 1
 210 -185 l 1
 190 -197 164 -206 129 -206 c 0
 64 -206 18 -170 18 -104 c 0xe0
EndSplineSet
Substitution2: "<3,3> Small Caps in Latin lookup 0 subtable" Iogonek.smcp
EndChar

StartChar: iogonek
Encoding: 303 303 242
Width: 262
Flags: MW
HStem: -206 88<145.5 146.5> 508 20G<79 220 220 220> 592 146<126 172.5>
VStem: 18 106<-96 -78.5> 70 158<642 687> 79 141<2 528 0 528>
LayerCount: 2
Fore
SplineSet
18 -104 m 0xf0
 18 -53 42 -22 79 2 c 1
 79 528 l 1
 220 528 l 1
 220 0 l 1xe4
 199 0 l 1
 175 -14 157 -27 144 -40 c 0
 131 -53 124 -69 124 -86 c 0
 124 -106 135 -118 156 -118 c 0
 173 -118 184 -113 195 -108 c 1
 209 -185 l 1
 189 -197 164 -206 129 -206 c 0
 63 -206 18 -170 18 -104 c 0xf0
70 665 m 0xe8
 70 709 103 738 149 738 c 0
 196 738 228 711 228 665 c 0
 228 619 196 592 149 592 c 0
 103 592 70 619 70 665 c 0xe8
EndSplineSet
Substitution2: "<3,3> Small Caps in Latin lookup 0 subtable" Iogonek.smcp
EndChar

StartChar: Idotaccent
Encoding: 304 304 243
Width: 221
Flags: MW
HStem: 0 21G<35 35 35 181> 691 20G<35 181 181 181> 765 134<86 128.5>
VStem: 35 144<0 852.5 711 852.5 812 852.5 811.5 853>
LayerCount: 2
Fore
SplineSet
35 0 m 1
 35 711 l 1
 181 711 l 1
 181 0 l 1
 35 0 l 1
35 832 m 0
 35 874 64 899 107 899 c 0
 150 899 179 873 179 832 c 0
 179 791 150 765 107 765 c 0
 65 765 35 792 35 832 c 0
EndSplineSet
Substitution2: "<3,3> Small Caps in Latin lookup 0 subtable" Idotaccent.smcp
EndChar

StartChar: dotlessi
Encoding: 305 305 244
Width: 217
Flags: MW
HStem: 0 21G<35 35 35 177> 508 20G<35 177 177 177>
VStem: 35 142<0 528 0 528>
LayerCount: 2
Fore
SplineSet
35 0 m 1
 35 528 l 1
 177 528 l 1
 177 0 l 1
 35 0 l 1
EndSplineSet
EndChar

StartChar: IJ
Encoding: 306 306 245
Width: 790
Flags: MW
HStem: -10 118<479.5 529> 0 21G<35 35 35 181> 691 20G<35 181 181 181 604 751 751 751>
VStem: 35 146<0 711 0 711> 274 147<191 210> 604 147<219 711>
LayerCount: 2
Fore
SplineSet
35 0 m 1x7c
 35 711 l 1
 181 711 l 1
 181 0 l 1
 35 0 l 1x7c
274 210 m 1
 421 210 l 1
 421 144 447 108 512 108 c 0
 573 108 604 155 604 219 c 2
 604 711 l 1
 751 711 l 1
 751 219 l 2
 751 108 689 36 606 6 c 0
 577 -4 546 -10 512 -10 c 0xbc
 402 -10 325 34 292 112 c 0
 280 139 274 172 274 210 c 1
EndSplineSet
EndChar

StartChar: ij
Encoding: 307 307 246
Width: 485
Flags: MW
HStem: -213 115<251 261 231 322.5> 0 21G<38 38 38 179> 508 20G<38 179 179 179 303 445 445 445> 592 146<85 131.5 348 394>
VStem: 29 158<642 687> 38 141<0 528 0 528> 292 158<642 687.5> 303 142<-29 528>
LayerCount: 2
Fore
SplineSet
29 665 m 0xf8
 29 709 62 738 108 738 c 0
 155 738 187 711 187 665 c 0
 187 619 155 592 108 592 c 0
 62 592 29 619 29 665 c 0xf8
38 0 m 1xf4
 38 528 l 1
 179 528 l 1
 179 0 l 1
 38 0 l 1xf4
195 -93 m 1
 209 -96 223 -98 239 -98 c 0
 283 -98 303 -74 303 -29 c 2
 303 528 l 1
 445 528 l 1
 445 -29 l 2xf1
 445 -146 381 -213 264 -213 c 0
 238 -213 216 -210 195 -205 c 1
 195 -93 l 1
292 665 m 0xf2
 292 710 324 738 371 738 c 0
 418 738 450 710 450 665 c 0
 450 619 417 592 371 592 c 0
 325 592 292 619 292 665 c 0xf2
EndSplineSet
EndChar

StartChar: Jcircumflex
Encoding: 308 308 247
Width: 628
Flags: MW
HStem: -10 118<229.5 279> 691 20G<354 501 501 501> 758 21G<235 235 235 345 496 496 496 608>
VStem: 24 147<191 210> 354 147<219 711>
LayerCount: 2
Fore
SplineSet
24 210 m 1
 171 210 l 1
 171 144 197 108 262 108 c 0
 323 108 354 155 354 219 c 2
 354 711 l 1
 501 711 l 1
 501 219 l 2
 501 108 439 36 356 6 c 0
 327 -4 296 -10 262 -10 c 0
 152 -10 75 34 42 112 c 0
 30 139 24 172 24 210 c 1
235 758 m 1
 235 766 l 1
 380 901 l 1
 462 901 l 1
 608 764 l 1
 608 758 l 1
 496 758 l 1
 421 829 l 1
 345 758 l 1
 235 758 l 1
EndSplineSet
Substitution2: "<3,3> Small Caps in Latin lookup 0 subtable" Jcircumflex.smcp
EndChar

StartChar: jcircumflex
Encoding: 309 309 248
Width: 411
Flags: MW
HStem: -213 114<84 104.5 74 159> 508 20G<142 283 283 283> 717 20G<163 245 245 245>
VStem: 142 141<-17 528>
LayerCount: 2
Fore
SplineSet
18 594 m 1
 18 602 l 1
 163 737 l 1
 245 737 l 1
 391 600 l 1
 391 594 l 1
 279 594 l 1
 204 665 l 1
 128 594 l 1
 18 594 l 1
28 -205 m 1
 35 -93 l 1
 49 -97 65 -99 83 -99 c 0
 126 -99 142 -63 142 -17 c 2
 142 528 l 1
 283 528 l 1
 283 -17 l 2
 283 -140 220 -213 98 -213 c 0
 70 -213 52 -211 28 -205 c 1
EndSplineSet
Substitution2: "<3,3> Small Caps in Latin lookup 0 subtable" Jcircumflex.smcp
EndChar

StartChar: Kcedilla
Encoding: 310 310 249
Width: 636
Flags: MW
HStem: 0 21G<35 35 35 182 441 441 441 615> 691 20G<35 182 182 182 428 608 608 608>
VStem: 35 147<0 203 389 711> 239 104<-57 -50 -50 -15 -77.5 -15>
LayerCount: 2
Fore
SplineSet
35 0 m 1
 35 711 l 1
 182 711 l 1
 182 389 l 1
 261 500 346 604 428 711 c 1
 608 711 l 1
 355 395 l 1
 615 0 l 1
 441 0 l 1
 258 285 l 1
 182 203 l 1
 182 0 l 1
 35 0 l 1
202 -183 m 1
 223 -149 239 -113 239 -57 c 2
 239 -15 l 1
 343 -15 l 1
 343 -50 l 2
 343 -105 322 -151 300 -186 c 0
 291 -200 282 -212 272 -222 c 1
 202 -183 l 1
EndSplineSet
Substitution2: "<3,3> Small Caps in Latin lookup 0 subtable" Kcommaaccent.smcp
EndChar

StartChar: kcedilla
Encoding: 311 311 250
Width: 545
Flags: MW
HStem: 0 21G<35 35 35 176 363 363 363 525> 508 20G<339 508 508 508> 730 20G<35 176 176 176>
VStem: 35 141<0 161 334 750> 205 104<-68 -61 -61 -26 -88.5 -26>
LayerCount: 2
Fore
SplineSet
35 0 m 1
 35 750 l 1
 176 750 l 1
 176 334 l 1
 228 401 285 463 339 528 c 1
 508 528 l 1
 317 308 l 1
 525 0 l 1
 363 0 l 1
 227 212 l 1
 176 161 l 1
 176 0 l 1
 35 0 l 1
168 -194 m 1
 189 -160 205 -124 205 -68 c 2
 205 -26 l 1
 309 -26 l 1
 309 -61 l 2
 309 -116 288 -163 266 -198 c 0
 257 -212 248 -223 238 -233 c 1
 168 -194 l 1
EndSplineSet
Substitution2: "<3,3> Small Caps in Latin lookup 0 subtable" Kcommaaccent.smcp
EndChar

StartChar: kra
Encoding: 312 312 251
Width: 565
Flags: MW
HStem: 0 21G<35 35 35 177 362 362 362 543> 508 20G<35 177 177 177 357 535 535 535>
VStem: 35 142<0 195 330 528>
LayerCount: 2
Fore
SplineSet
35 0 m 1
 35 528 l 1
 177 528 l 1
 177 330 l 1
 219 330 l 1
 357 528 l 1
 535 528 l 1
 349 274 l 1
 543 0 l 1
 362 0 l 1
 234 195 l 1
 177 195 l 1
 177 0 l 1
 35 0 l 1
EndSplineSet
EndChar

StartChar: Lacute
Encoding: 313 313 252
Width: 522
Flags: MW
HStem: 0 118<182 493 182 493> 691 20G<35 182 182 182> 750 21G<43 43 43 158>
VStem: 35 147<118 711 118 711 118 711>
LayerCount: 2
Fore
SplineSet
35 0 m 1
 35 711 l 1
 182 711 l 1
 182 118 l 1
 493 118 l 1
 493 0 l 1
 35 0 l 1
43 750 m 1
 140 901 l 1
 293 901 l 1
 158 750 l 1
 43 750 l 1
EndSplineSet
Substitution2: "<3,3> Small Caps in Latin lookup 0 subtable" Lacute.smcp
EndChar

StartChar: lacute
Encoding: 314 314 253
Width: 307
Flags: MW
HStem: 0 21G<35 35 35 176> 730 20G<35 176 176 176>
VStem: 35 141<0 750 0 750>
LayerCount: 2
Fore
SplineSet
35 0 m 1
 35 750 l 1
 176 750 l 1
 176 0 l 1
 35 0 l 1
37 790 m 1
 134 941 l 1
 287 941 l 1
 152 790 l 1
 37 790 l 1
EndSplineSet
Substitution2: "<3,3> Small Caps in Latin lookup 0 subtable" Lacute.smcp
EndChar

StartChar: Lcedilla
Encoding: 315 315 254
Width: 522
Flags: MW
HStem: 0 118<182 493 182 493> 691 20G<35 182 182 182>
VStem: 35 147<118 711 118 711 118 711> 214 104<-82 -75 -75 -40 -102.5 -40>
LayerCount: 2
Fore
SplineSet
35 0 m 1
 35 711 l 1
 182 711 l 1
 182 118 l 1
 493 118 l 1
 493 0 l 1
 35 0 l 1
177 -208 m 1
 198 -174 214 -138 214 -82 c 2
 214 -40 l 1
 318 -40 l 1
 318 -75 l 2
 318 -130 297 -177 275 -212 c 0
 266 -226 257 -237 247 -247 c 1
 177 -208 l 1
EndSplineSet
Substitution2: "<3,3> Small Caps in Latin lookup 0 subtable" Lcommaaccent.smcp
EndChar

StartChar: lcedilla
Encoding: 316 316 255
Width: 221
Flags: MW
HStem: 0 21G<40 40 40 181> 730 20G<40 181 181 181>
VStem: 40 141<0 750 0 750> 59 104<-82 -75 -75 -40 -102.5 -40>
LayerCount: 2
Fore
SplineSet
22 -208 m 1xd0
 43 -174 59 -138 59 -82 c 2
 59 -40 l 1
 163 -40 l 1
 163 -75 l 2
 163 -130 142 -177 120 -212 c 0
 111 -226 102 -237 92 -247 c 1
 22 -208 l 1xd0
40 0 m 1xe0
 40 750 l 1
 181 750 l 1
 181 0 l 1
 40 0 l 1xe0
EndSplineSet
Substitution2: "<3,3> Small Caps in Latin lookup 0 subtable" Lcommaaccent.smcp
EndChar

StartChar: Lcaron
Encoding: 317 317 256
Width: 520
Flags: MW
HStem: 0 118<182 493 182 493> 691 20G<35 182 182 182 333 445 445 445>
VStem: 35 147<118 711 118 711 118 711> 333 112<635 711 616 711>
LayerCount: 2
Fore
SplineSet
35 0 m 1
 35 711 l 1
 182 711 l 1
 182 118 l 1
 493 118 l 1
 493 0 l 1
 35 0 l 1
289 492 m 1
 312 531 333 573 333 635 c 2
 333 711 l 1
 445 711 l 1
 445 635 l 2
 445 597 433 564 419 536 c 0
 404 504 381 476 356 454 c 1
 289 492 l 1
EndSplineSet
Substitution2: "<3,3> Small Caps in Latin lookup 0 subtable" Lcaron.smcp
EndChar

StartChar: lcaron
Encoding: 318 318 257
Width: 410
Flags: MW
HStem: 0 21G<35 35 35 176> 730 20G<35 176 176 176 273 385 385 385>
VStem: 35 141<0 750 0 750> 273 112<674 750 655 750>
LayerCount: 2
Fore
SplineSet
35 0 m 1
 35 750 l 1
 176 750 l 1
 176 0 l 1
 35 0 l 1
229 531 m 1
 252 570 273 612 273 674 c 2
 273 750 l 1
 385 750 l 1
 385 674 l 2
 385 636 373 604 359 576 c 0
 344 544 321 515 296 493 c 1
 229 531 l 1
EndSplineSet
Substitution2: "<3,3> Small Caps in Latin lookup 0 subtable" Lcaron.smcp
EndChar

StartChar: Ldot
Encoding: 319 319 258
Width: 521
Flags: MW
HStem: 0 118<182 493 182 493> 338 134<312 354.5> 691 20G<35 182 182 182>
VStem: 35 147<118 711 118 711 118 711> 261 144<385 425.5 384.5 426>
LayerCount: 2
Fore
SplineSet
35 0 m 1
 35 711 l 1
 182 711 l 1
 182 118 l 1
 493 118 l 1
 493 0 l 1
 35 0 l 1
261 405 m 0
 261 447 290 472 333 472 c 0
 376 472 405 446 405 405 c 0
 405 364 376 338 333 338 c 0
 291 338 261 365 261 405 c 0
EndSplineSet
Substitution2: "<3,3> Small Caps in Latin lookup 0 subtable" Ldot.smcp
EndChar

StartChar: ldot
Encoding: 320 320 259
Width: 396
Flags: MW
HStem: 0 21G<35 35 35 176> 311 134<275 317.5> 730 20G<35 176 176 176>
VStem: 35 141<0 750 0 750> 224 144<358 398.5 357.5 399>
LayerCount: 2
Fore
SplineSet
35 0 m 1
 35 750 l 1
 176 750 l 1
 176 0 l 1
 35 0 l 1
224 378 m 0
 224 420 253 445 296 445 c 0
 339 445 368 419 368 378 c 0
 368 337 339 311 296 311 c 0
 254 311 224 338 224 378 c 0
EndSplineSet
Substitution2: "<3,3> Small Caps in Latin lookup 0 subtable" Ldot.smcp
EndChar

StartChar: Lslash
Encoding: 321 321 260
Width: 577
Flags: MW
HStem: 0 118<237 548 237 548> 691 20G<91 237 237 237>
VStem: 91 146<118 298 298 298 437 711>
LayerCount: 2
Fore
SplineSet
26 279 m 1
 26 376 l 1
 91 395 l 1
 91 711 l 1
 237 711 l 1
 237 437 l 1
 343 467 l 1
 343 371 l 1
 237 340 l 1
 237 118 l 1
 548 118 l 1
 548 0 l 1
 91 0 l 1
 91 298 l 1
 26 279 l 1
EndSplineSet
EndChar

StartChar: lslash
Encoding: 322 322 261
Width: 329
Flags: MW
HStem: 0 21G<90 231 90 90> 730 20G<90 231 231 231>
VStem: 90 141<0 300 300 300 444 750>
LayerCount: 2
Fore
SplineSet
26 279 m 1
 26 376 l 1
 90 397 l 1
 90 750 l 1
 231 750 l 1
 231 444 l 1
 301 467 l 1
 301 371 l 1
 231 348 l 1
 231 0 l 1
 90 0 l 1
 90 300 l 1
 26 279 l 1
EndSplineSet
EndChar

StartChar: Nacute
Encoding: 323 323 262
Width: 654
Flags: MW
HStem: 0 21G<35 35 35 182 467 467 467 614> 691 20G<35 182 182 182 468 614 614 614> 750 21G<258 258 258 373>
VStem: 35 147<0 468 0 711> 468 146<242 711 0 711>
LayerCount: 2
Fore
SplineSet
35 0 m 1
 35 711 l 1
 182 711 l 1
 468 242 l 1
 468 711 l 1
 614 711 l 1
 614 0 l 1
 467 0 l 1
 182 468 l 1
 182 0 l 1
 35 0 l 1
258 750 m 1
 355 901 l 1
 508 901 l 1
 373 750 l 1
 258 750 l 1
EndSplineSet
Substitution2: "<3,3> Small Caps in Latin lookup 0 subtable" Nacute.smcp
EndChar

StartChar: nacute
Encoding: 324 324 263
Width: 528
Flags: MW
HStem: 0 21G<35 35 35 176 350 350 350 491> 423 115<289.5 295.5> 508 20G<35 168 168 168> 730 20G<294 447 447 447>
VStem: 35 133<0 528 528 528> 35 141<0 373 0 528> 350 141<0 336 0 337 0 367>
LayerCount: 2
Fore
SplineSet
35 0 m 1xd6
 35 528 l 1
 168 528 l 1xba
 172 467 l 1
 204 508 255 538 324 538 c 0
 446 538 491 460 491 336 c 2
 491 0 l 1
 350 0 l 1
 350 337 l 2
 350 397 325 423 266 423 c 0
 222 423 193 401 176 373 c 1
 176 0 l 1
 35 0 l 1xd6
197 599 m 1
 294 750 l 1
 447 750 l 1
 312 599 l 1
 197 599 l 1
EndSplineSet
Substitution2: "<3,3> Small Caps in Latin lookup 0 subtable" Nacute.smcp
EndChar

StartChar: Ncedilla
Encoding: 325 325 264
Width: 654
Flags: MW
HStem: 0 21G<35 35 35 182 467 467 467 614> 691 20G<35 182 182 182 468 614 614 614>
VStem: 35 147<0 468 0 711> 274 104<-86 -79 -79 -44 -106.5 -44> 468 146<242 711 0 711>
LayerCount: 2
Fore
SplineSet
35 0 m 1
 35 711 l 1
 182 711 l 1
 468 242 l 1
 468 711 l 1
 614 711 l 1
 614 0 l 1
 467 0 l 1
 182 468 l 1
 182 0 l 1
 35 0 l 1
237 -212 m 1
 258 -178 274 -142 274 -86 c 2
 274 -44 l 1
 378 -44 l 1
 378 -79 l 2
 378 -134 357 -181 335 -216 c 0
 326 -230 317 -241 307 -251 c 1
 237 -212 l 1
EndSplineSet
Substitution2: "<3,3> Small Caps in Latin lookup 0 subtable" Ncommaaccent.smcp
EndChar

StartChar: ncedilla
Encoding: 326 326 265
Width: 529
Flags: MW
HStem: 0 21G<35 35 35 176 350 350 350 491> 423 115<289.5 295.5> 508 20G<35 168 168 168>
VStem: 35 133<0 528 528 528> 35 141<0 373 0 528> 212 104<-82 -75 -75 -40 -102.5 -40> 350 141<0 336 0 337 0 367>
LayerCount: 2
Fore
SplineSet
35 0 m 1xce
 35 528 l 1
 168 528 l 1xb6
 172 467 l 1
 204 508 255 538 324 538 c 0
 446 538 491 460 491 336 c 2
 491 0 l 1
 350 0 l 1
 350 337 l 2
 350 397 325 423 266 423 c 0
 222 423 193 401 176 373 c 1
 176 0 l 1
 35 0 l 1xce
175 -208 m 1
 196 -174 212 -138 212 -82 c 2
 212 -40 l 1
 316 -40 l 1
 316 -75 l 2
 316 -130 295 -177 273 -212 c 0
 264 -226 255 -237 245 -247 c 1
 175 -208 l 1
EndSplineSet
Substitution2: "<3,3> Small Caps in Latin lookup 0 subtable" Ncommaaccent.smcp
EndChar

StartChar: Ncaron
Encoding: 327 327 266
Width: 654
Flags: MW
HStem: 0 21G<35 35 35 182 467 467 467 614> 691 20G<35 182 182 182 468 614 614 614> 759 21G<282 371 282 282>
VStem: 35 147<0 468 0 711> 468 146<242 711 0 711>
LayerCount: 2
Fore
SplineSet
35 0 m 1
 35 711 l 1
 182 711 l 1
 468 242 l 1
 468 711 l 1
 614 711 l 1
 614 0 l 1
 467 0 l 1
 182 468 l 1
 182 0 l 1
 35 0 l 1
135 897 m 1
 135 901 l 1
 255 901 l 1
 327 832 l 1
 398 901 l 1
 519 901 l 1
 519 896 l 1
 371 759 l 1
 282 759 l 1
 135 897 l 1
EndSplineSet
Substitution2: "<3,3> Small Caps in Latin lookup 0 subtable" Ncaron.smcp
EndChar

StartChar: ncaron
Encoding: 328 328 267
Width: 527
Flags: MW
HStem: 0 21G<34 34 34 175 349 349 349 490> 423 115<288.5 294.5> 508 20G<34 167 167 167> 730 20G<72 192 192 192 335 456 456 456>
VStem: 34 133<0 528 528 528> 34 141<0 373 0 528> 349 141<0 336 0 337 0 367>
LayerCount: 2
Fore
SplineSet
34 0 m 1xd6
 34 528 l 1
 167 528 l 1xba
 171 467 l 1
 203 508 254 538 323 538 c 0
 445 538 490 460 490 336 c 2
 490 0 l 1
 349 0 l 1
 349 337 l 2
 349 397 324 423 265 423 c 0
 221 423 192 401 175 373 c 1
 175 0 l 1
 34 0 l 1xd6
72 746 m 1
 72 750 l 1
 192 750 l 1
 264 681 l 1
 335 750 l 1
 456 750 l 1
 456 745 l 1
 308 608 l 1
 219 608 l 1
 72 746 l 1
EndSplineSet
Substitution2: "<3,3> Small Caps in Latin lookup 0 subtable" Ncaron.smcp
EndChar

StartChar: napostrophe
Encoding: 329 329 268
Width: 604
Flags: MW
HStem: 0 21G<110 110 110 251 425 425 425 566> 423 115<364.5 370.5> 508 20G<110 243 243 243> 730 20G<63 175 175 175>
VStem: 63 112<674 750 655 750> 110 141<0 373 0 528> 425 141<0 336 0 337 0 367>
LayerCount: 2
Fore
SplineSet
19 531 m 1x9a
 42 570 63 612 63 674 c 2
 63 750 l 1
 175 750 l 1
 175 674 l 2
 175 636 163 604 149 576 c 0
 134 544 111 515 86 493 c 1
 19 531 l 1x9a
110 0 m 1xd6
 110 528 l 1
 243 528 l 1xb6
 247 467 l 1
 279 508 330 538 399 538 c 0
 521 538 566 460 566 336 c 2
 566 0 l 1
 425 0 l 1
 425 337 l 2
 425 397 400 423 341 423 c 0
 297 423 268 401 251 373 c 1
 251 0 l 1
 110 0 l 1xd6
EndSplineSet
EndChar

StartChar: Eng
Encoding: 330 330 269
Width: 654
Flags: MW
HStem: -213 118<411 429.5 398.5 487> 0 21G<35 35 35 182 467 467> 691 20G<35 182 182 182 467 614 614 614>
VStem: 35 147<0 479 0 711> 467 147<-13 0 0 0 233 711>
LayerCount: 2
Fore
SplineSet
35 0 m 1
 35 711 l 1
 182 711 l 1
 467 233 l 1
 467 711 l 1
 614 711 l 1
 614 -13 l 2
 614 -138 549 -213 425 -213 c 0
 397 -213 377 -211 353 -205 c 1
 360 -89 l 1
 375 -93 389 -95 408 -95 c 0
 451 -95 467 -59 467 -13 c 2
 467 0 l 1
 182 479 l 1
 182 0 l 1
 35 0 l 1
EndSplineSet
EndChar

StartChar: eng
Encoding: 331 331 270
Width: 531
Flags: MW
HStem: -213 115<293 314.5 284 368.5> 0 21G<35 35 35 176> 423 115<286.5 302.5> 508 20G<35 166 166 166>
VStem: 35 131<0 528 528 528> 35 141<0 381 0 528> 352 141<-17 322>
LayerCount: 2
Fore
SplineSet
35 0 m 1xe6
 35 528 l 1
 166 528 l 1xda
 172 454 l 1
 203 501 250 538 323 538 c 0
 449 538 493 451 493 322 c 2
 493 -17 l 2
 493 -141 430 -213 307 -213 c 0
 279 -213 261 -211 237 -205 c 1
 244 -92 l 1
 259 -96 275 -98 293 -98 c 0
 336 -98 352 -63 352 -17 c 2
 352 322 l 2
 352 384 333 423 272 423 c 0
 228 423 195 407 176 381 c 1
 176 0 l 1
 35 0 l 1xe6
EndSplineSet
EndChar

StartChar: Omacron
Encoding: 332 332 271
Width: 666
Flags: MW
HStem: -10 120<319.5 354.5> 600 121<308.5 380 308.5 388.5> 780 81<153 510 153 510>
VStem: 28 148<339 371 371 372 289 452.5> 485 148<339 371 257 372 257 435>
LayerCount: 2
Fore
SplineSet
28 339 m 2
 28 371 l 2
 28 534 95 646 208 696 c 0
 245 712 286 721 331 721 c 0
 429 721 501 681 549 627 c 0
 601 568 633 481 633 371 c 2
 633 339 l 2
 633 175 567 64 454 14 c 0
 417 -2 377 -10 332 -10 c 0
 235 -10 161 30 113 84 c 0
 61 142 28 230 28 339 c 2
153 780 m 1
 153 861 l 1
 510 861 l 1
 510 780 l 1
 153 780 l 1
176 339 m 2
 176 239 201 159 266 125 c 0
 285 115 307 110 332 110 c 0
 446 110 485 214 485 339 c 2
 485 372 l 2
 485 498 446 600 331 600 c 0
 217 600 176 498 176 372 c 2
 176 339 l 2
EndSplineSet
Substitution2: "<3,3> Small Caps in Latin lookup 0 subtable" Omacron.smcp
EndChar

StartChar: omacron
Encoding: 333 333 272
Width: 561
Flags: MW
HStem: -10 114<236 298> 424 114<257 318> 630 81<99 456 99 456>
VStem: 27 141<259 269 217 331.5> 387 141<259 269 196.5 310.5>
LayerCount: 2
Fore
SplineSet
27 259 m 2
 27 269 l 2
 27 394 83 479 171 518 c 0
 202 532 237 538 277 538 c 0
 402 538 479 470 511 376 c 0
 522 343 528 308 528 269 c 2
 528 259 l 2
 528 134 473 49 385 10 c 0
 354 -4 318 -10 278 -10 c 0
 153 -10 75 58 43 152 c 0
 32 185 27 220 27 259 c 2
99 630 m 1
 99 711 l 1
 456 711 l 1
 456 630 l 1
 99 630 l 1
168 259 m 2
 168 175 194 104 278 104 c 0
 360 104 387 176 387 259 c 2
 387 269 l 2
 387 352 359 424 277 424 c 0
 195 424 168 351 168 269 c 2
 168 259 l 2
EndSplineSet
Substitution2: "<3,3> Small Caps in Latin lookup 0 subtable" Omacron.smcp
EndChar

StartChar: Obreve
Encoding: 334 334 273
Width: 666
Flags: MW
HStem: -10 120<319.5 354.5> 600 121<308.5 380 308.5 388.5> 751 81<310.5 344.5>
VStem: 28 148<339 371 371 372 289 452.5> 163 100<885.5 896> 400 101<875.5 896> 485 148<339 371 257 372 257 435>
LayerCount: 2
Fore
SplineSet
28 339 m 2xf2
 28 371 l 2
 28 534 95 646 208 696 c 0
 245 712 286 721 331 721 c 0
 429 721 501 681 549 627 c 0
 601 568 633 481 633 371 c 2
 633 339 l 2
 633 175 567 64 454 14 c 0
 417 -2 377 -10 332 -10 c 0
 235 -10 161 30 113 84 c 0
 61 142 28 230 28 339 c 2xf2
163 896 m 1xec
 263 896 l 1
 263 853 289 832 332 832 c 0
 375 832 400 855 400 896 c 1
 501 896 l 1
 501 823 457 781 402 762 c 0
 381 755 357 751 332 751 c 0
 255 751 197 784 174 838 c 0
 166 856 163 875 163 896 c 1xec
176 339 m 2xf2
 176 239 201 159 266 125 c 0
 285 115 307 110 332 110 c 0
 446 110 485 214 485 339 c 2
 485 372 l 2
 485 498 446 600 331 600 c 0
 217 600 176 498 176 372 c 2
 176 339 l 2xf2
EndSplineSet
Substitution2: "<3,3> Small Caps in Latin lookup 0 subtable" Obreve.smcp
EndChar

StartChar: obreve
Encoding: 335 335 274
Width: 561
Flags: MW
HStem: -10 114<236 298> 424 114<257 318> 600 81<255.5 289.5>
VStem: 27 141<259 269 217 331.5> 108 100<723.5 745 723.5 745> 345 101<724.5 745> 387 141<259 269 196.5 310.5>
LayerCount: 2
Fore
SplineSet
27 259 m 2xf2
 27 269 l 2
 27 394 83 479 171 518 c 0
 202 532 237 538 277 538 c 0
 402 538 479 470 511 376 c 0
 522 343 528 308 528 269 c 2
 528 259 l 2
 528 134 473 49 385 10 c 0
 354 -4 318 -10 278 -10 c 0
 153 -10 75 58 43 152 c 0
 32 185 27 220 27 259 c 2xf2
108 745 m 1xec
 208 745 l 1
 208 702 234 681 277 681 c 0
 320 681 345 704 345 745 c 1
 446 745 l 1
 446 672 402 630 347 611 c 0
 326 604 302 600 277 600 c 0
 180 600 108 649 108 745 c 1xec
168 259 m 2xf2
 168 175 194 104 278 104 c 0
 360 104 387 176 387 259 c 2
 387 269 l 2
 387 352 359 424 277 424 c 0
 195 424 168 351 168 269 c 2
 168 259 l 2xf2
EndSplineSet
Substitution2: "<3,3> Small Caps in Latin lookup 0 subtable" Obreve.smcp
EndChar

StartChar: Ohungarumlaut
Encoding: 336 336 275
Width: 666
Flags: MW
HStem: -10 120<319.5 354.5> 600 121<308.5 380 308.5 388.5> 754 21G<182 182 182 285 354 460 354 354>
VStem: 28 148<339 371 371 372 289 452.5> 485 148<339 371 257 372 257 435>
LayerCount: 2
Fore
SplineSet
28 339 m 2
 28 371 l 2
 28 534 95 646 208 696 c 0
 245 712 286 721 331 721 c 0
 429 721 501 681 549 627 c 0
 601 568 633 481 633 371 c 2
 633 339 l 2
 633 175 567 64 454 14 c 0
 417 -2 377 -10 332 -10 c 0
 235 -10 161 30 113 84 c 0
 61 142 28 230 28 339 c 2
176 339 m 2
 176 239 201 159 266 125 c 0
 285 115 307 110 332 110 c 0
 446 110 485 214 485 339 c 2
 485 372 l 2
 485 498 446 600 331 600 c 0
 217 600 176 498 176 372 c 2
 176 339 l 2
182 754 m 1
 273 901 l 1
 397 901 l 1
 285 754 l 1
 182 754 l 1
354 754 m 1
 464 901 l 1
 590 901 l 1
 460 754 l 1
 354 754 l 1
EndSplineSet
Substitution2: "<3,3> Small Caps in Latin lookup 0 subtable" Ohungarumlaut.smcp
EndChar

StartChar: ohungarumlaut
Encoding: 337 337 276
Width: 563
Flags: MW
HStem: -10 114<236 298> 424 114<257 318> 730 20G<218 342 342 342 409 535 535 535>
VStem: 27 141<259 269 217 331.5> 387 141<259 269 196.5 310.5>
LayerCount: 2
Fore
SplineSet
27 259 m 2
 27 269 l 2
 27 394 83 479 171 518 c 0
 202 532 237 538 277 538 c 0
 402 538 479 470 511 376 c 0
 522 343 528 308 528 269 c 2
 528 259 l 2
 528 134 473 49 385 10 c 0
 354 -4 318 -10 278 -10 c 0
 153 -10 75 58 43 152 c 0
 32 185 27 220 27 259 c 2
127 603 m 1
 218 750 l 1
 342 750 l 1
 230 603 l 1
 127 603 l 1
168 259 m 2
 168 175 194 104 278 104 c 0
 360 104 387 176 387 259 c 2
 387 269 l 2
 387 352 359 424 277 424 c 0
 195 424 168 351 168 269 c 2
 168 259 l 2
299 603 m 1
 409 750 l 1
 535 750 l 1
 405 603 l 1
 299 603 l 1
EndSplineSet
Substitution2: "<3,3> Small Caps in Latin lookup 0 subtable" Ohungarumlaut.smcp
EndChar

StartChar: OE
Encoding: 338 338 277
Width: 927
Flags: MW
HStem: -10 114<278.5 341.5 272 349.5> 0 118<568 898 568 898 465 898> 308 115<568 849 568 849> 592 119<568 897 568 568> 607 114<302 341>
VStem: 29 141<281 430 430 431> 421 147<118 308 423 592>
LayerCount: 2
Fore
SplineSet
29 281 m 2xa6
 29 430 l 2
 29 569 102 660 204 700 c 0
 240 714 280 721 324 721 c 0xae
 373 721 422 716 465 711 c 1
 897 711 l 1
 897 592 l 1
 568 592 l 1
 568 423 l 1
 849 423 l 1
 849 308 l 1
 568 308 l 1
 568 118 l 1
 898 118 l 1
 898 0 l 1
 465 0 l 1x76
 421 -5 374 -10 325 -10 c 0
 232 -10 160 24 111 71 c 0
 63 118 29 190 29 281 c 2xa6
170 281 m 2
 170 174 219 104 325 104 c 0
 358 104 390 106 421 110 c 1
 421 600 l 1
 391 604 358 607 324 607 c 0
 219 607 170 537 170 431 c 2
 170 281 l 2
EndSplineSet
EndChar

StartChar: oe
Encoding: 339 339 278
Width: 886
Flags: MW
HStem: -10 114<235 318 617 682.5> 220 96<534 713 534 852 532 713> 424 114<256 285.5 627 656.5>
VStem: 28 141<259 269 217 331.5> 384 148<220 269 220 302> 713 139<220 329 220 358>
LayerCount: 2
Fore
SplineSet
28 259 m 2
 28 269 l 2
 28 394 82 479 170 518 c 0
 201 532 236 538 276 538 c 0
 358 538 417 509 457 465 c 1
 495 508 549 539 627 538 c 0
 740 538 808 483 837 398 c 0
 847 369 852 336 852 299 c 2
 852 220 l 1
 532 220 l 1
 540 154 580 104 654 104 c 0
 718 104 761 118 801 142 c 1
 840 50 l 1
 793 13 725 -10 640 -10 c 0
 559 -10 498 20 458 63 c 1
 417 20 359 -10 277 -10 c 0
 152 -10 75 57 44 152 c 0
 33 185 28 220 28 259 c 2
169 259 m 2
 169 175 193 104 277 104 c 0
 360 104 384 176 384 259 c 2
 384 269 l 2
 384 335 367 387 326 412 c 0
 312 420 295 424 276 424 c 0
 194 424 169 351 169 269 c 2
 169 259 l 2
534 316 m 1
 713 316 l 1
 713 329 l 2
 713 387 686 424 627 424 c 0
 566 424 541 371 534 316 c 1
EndSplineSet
EndChar

StartChar: Racute
Encoding: 340 340 279
Width: 611
Flags: MW
HStem: 0 21G<35 35 35 182 432 432 432 589> 260 119<182 299 182 300> 592 119<182 300 182 182> 750 21G<196 196 196 311>
VStem: 35 147<0 260 379 592> 416 146<449 513.5 441 519.5>
LayerCount: 2
Fore
SplineSet
35 0 m 1
 35 711 l 1
 300 711 l 2
 420 711 507 672 544 589 c 0
 556 562 562 531 562 496 c 0
 562 386 510 332 435 297 c 1
 589 7 l 1
 589 0 l 1
 432 0 l 1
 299 260 l 1
 182 260 l 1
 182 0 l 1
 35 0 l 1
182 379 m 1
 300 379 l 2
 371 379 416 414 416 484 c 0
 416 555 374 592 300 592 c 2
 182 592 l 1
 182 379 l 1
196 750 m 1
 293 901 l 1
 446 901 l 1
 311 750 l 1
 196 750 l 1
EndSplineSet
Substitution2: "<3,3> Small Caps in Latin lookup 0 subtable" Racute.smcp
EndChar

StartChar: racute
Encoding: 341 341 280
Width: 382
Flags: MW
HStem: 0 21G<34 34 34 175> 400 138<260 287.5> 508 20G<34 168 168 168> 730 20G<209 362 362 362>
VStem: 34 137<465 465 465 528 465 528> 34 141<0 346 0 528>
LayerCount: 2
Fore
SplineSet
34 0 m 1xd4
 34 528 l 1
 168 528 l 1
 171 465 l 1xb8
 194 505 231 538 289 538 c 0
 303 538 322 535 333 532 c 1
 331 396 l 1
 317 397 295 400 280 400 c 0
 225 400 193 382 175 346 c 1
 175 0 l 1
 34 0 l 1xd4
112 599 m 1
 209 750 l 1
 362 750 l 1
 227 599 l 1
 112 599 l 1
EndSplineSet
Substitution2: "<3,3> Small Caps in Latin lookup 0 subtable" Racute.smcp
EndChar

StartChar: Rcedilla
Encoding: 342 342 281
Width: 611
Flags: MW
HStem: 0 21G<35 35 35 182 432 432 432 589> 260 119<182 299 182 300> 592 119<182 300 182 182>
VStem: 35 147<0 260 379 592> 220 104<-82 -75 -75 -40 -102.5 -40> 416 146<449 513.5 441 519.5>
LayerCount: 2
Fore
SplineSet
35 0 m 1
 35 711 l 1
 300 711 l 2
 420 711 507 672 544 589 c 0
 556 562 562 531 562 496 c 0
 562 386 510 332 435 297 c 1
 589 7 l 1
 589 0 l 1
 432 0 l 1
 299 260 l 1
 182 260 l 1
 182 0 l 1
 35 0 l 1
182 379 m 1
 300 379 l 2
 371 379 416 414 416 484 c 0
 416 555 374 592 300 592 c 2
 182 592 l 1
 182 379 l 1
183 -208 m 1
 204 -174 220 -138 220 -82 c 2
 220 -40 l 1
 324 -40 l 1
 324 -75 l 2
 324 -130 303 -177 281 -212 c 0
 272 -226 263 -237 253 -247 c 1
 183 -208 l 1
EndSplineSet
Substitution2: "<3,3> Small Caps in Latin lookup 0 subtable" Rcommaaccent.smcp
EndChar

StartChar: rcedilla
Encoding: 343 343 282
Width: 369
Flags: MW
HStem: 0 21G<39 39 39 180> 400 138<265 292.5> 508 20G<39 173 173 173>
VStem: 39 137<465 465 465 528 465 528> 39 141<0 346 0 528> 61 104<-82 -75 -75 -40 -102.5 -40>
LayerCount: 2
Fore
SplineSet
24 -208 m 1x84
 45 -174 61 -138 61 -82 c 2
 61 -40 l 1
 165 -40 l 1
 165 -75 l 2
 165 -130 144 -177 122 -212 c 0
 113 -226 104 -237 94 -247 c 1
 24 -208 l 1x84
39 0 m 1xc8
 39 528 l 1
 173 528 l 1
 176 465 l 1xb0
 199 505 236 538 294 538 c 0
 308 538 327 535 338 532 c 1
 336 396 l 1
 322 397 300 400 285 400 c 0
 230 400 198 382 180 346 c 1
 180 0 l 1
 39 0 l 1xc8
EndSplineSet
Substitution2: "<3,3> Small Caps in Latin lookup 0 subtable" Rcommaaccent.smcp
EndChar

StartChar: Rcaron
Encoding: 344 344 283
Width: 611
Flags: MW
HStem: 0 21G<35 35 35 182 432 432 432 589> 260 119<182 299 182 300> 592 119<182 300 182 182> 759 21G<219 308 219 219>
VStem: 35 147<0 260 379 592> 416 146<449 513.5 441 519.5>
LayerCount: 2
Fore
SplineSet
35 0 m 1
 35 711 l 1
 300 711 l 2
 420 711 507 672 544 589 c 0
 556 562 562 531 562 496 c 0
 562 386 510 332 435 297 c 1
 589 7 l 1
 589 0 l 1
 432 0 l 1
 299 260 l 1
 182 260 l 1
 182 0 l 1
 35 0 l 1
72 897 m 1
 72 901 l 1
 192 901 l 1
 264 832 l 1
 335 901 l 1
 456 901 l 1
 456 896 l 1
 308 759 l 1
 219 759 l 1
 72 897 l 1
182 379 m 1
 300 379 l 2
 371 379 416 414 416 484 c 0
 416 555 374 592 300 592 c 2
 182 592 l 1
 182 379 l 1
EndSplineSet
Substitution2: "<3,3> Small Caps in Latin lookup 0 subtable" Rcaron.smcp
EndChar

StartChar: rcaron
Encoding: 345 345 284
Width: 422
Flags: MW
HStem: 0 21G<63 63 63 204> 400 138<289 316.5> 508 20G<63 197 197 197> 730 20G<18 138 138 138 281 402 402 402>
VStem: 63 137<465 465 465 528 465 528> 63 141<0 346 0 528>
LayerCount: 2
Fore
SplineSet
18 746 m 1x90
 18 750 l 1
 138 750 l 1
 210 681 l 1
 281 750 l 1
 402 750 l 1
 402 745 l 1
 254 608 l 1
 165 608 l 1
 18 746 l 1x90
63 0 m 1xd4
 63 528 l 1
 197 528 l 1
 200 465 l 1xb8
 223 505 260 538 318 538 c 0
 332 538 351 535 362 532 c 1
 360 396 l 1
 346 397 324 400 309 400 c 0
 254 400 222 382 204 346 c 1
 204 0 l 1
 63 0 l 1xd4
EndSplineSet
Substitution2: "<3,3> Small Caps in Latin lookup 0 subtable" Rcaron.smcp
EndChar

StartChar: Sacute
Encoding: 346 346 285
Width: 599
Flags: MW
HStem: -10 116<267.5 329.5> 604 117<287.5 339.5> 750 21G<237 237 237 352>
VStem: 23 147<210.5 224> 45 146<509.5 551 509.5 574> 421 147<157.5 202.5 135.5 212.5>
LayerCount: 2
Fore
SplineSet
23 224 m 1xf4
 170 224 l 1xf4
 170 138 225 106 310 106 c 0
 371 106 421 128 421 187 c 0
 421 238 391 255 353 272 c 0
 335 280 311 289 282 298 c 0
 192 327 104 364 63 441 c 0
 51 464 45 491 45 522 c 0
 45 626 119 681 201 706 c 0
 233 716 268 721 307 721 c 0
 426 721 511 670 549 589 c 0
 561 562 568 533 568 501 c 1
 422 501 l 1
 422 570 375 604 304 604 c 0
 242 604 191 581 191 521 c 0xec
 191 498 203 478 227 462 c 0
 251 446 286 432 332 418 c 0
 427 389 517 350 553 266 c 0
 563 243 568 217 568 188 c 0
 568 83 501 28 417 4 c 0
 385 -5 349 -10 310 -10 c 0
 173 -10 71 49 35 151 c 0
 27 173 23 197 23 224 c 1xf4
237 750 m 1
 334 901 l 1
 487 901 l 1
 352 750 l 1
 237 750 l 1
EndSplineSet
Substitution2: "<3,3> Small Caps in Latin lookup 0 subtable" Sacute.smcp
EndChar

StartChar: sacute
Encoding: 347 347 286
Width: 504
Flags: MW
HStem: -10 100<225.5 275.5 225.5 284> 438 100<228 274> 730 20G<282 435 435 435>
VStem: 39 136<364.5 399 364.5 399.5> 335 138<126 163>
LayerCount: 2
Fore
SplineSet
22 168 m 1
 156 168 l 1
 159 115 198 90 253 90 c 0
 298 90 335 106 335 146 c 0
 335 180 309 190 281 200 c 0
 267 205 249 209 227 213 c 0
 153 229 84 257 53 314 c 0
 44 331 39 351 39 374 c 0
 39 425 65 463 95 489 c 0
 131 519 184 538 250 538 c 0
 350 538 422 502 455 436 c 0
 465 415 471 393 471 368 c 1
 330 368 l 1
 330 414 299 438 249 438 c 0
 207 438 175 418 175 380 c 0
 175 349 202 337 227 329 c 0
 263 317 317 309 353 297 c 0
 399 282 435 256 457 218 c 0
 467 200 473 178 473 152 c 0
 473 99 445 61 412 36 c 0
 373 7 318 -10 250 -10 c 0
 146 -10 70 34 37 104 c 0
 27 125 22 147 22 168 c 1
185 599 m 1
 282 750 l 1
 435 750 l 1
 300 599 l 1
 185 599 l 1
EndSplineSet
Substitution2: "<3,3> Small Caps in Latin lookup 0 subtable" Sacute.smcp
EndChar

StartChar: Scircumflex
Encoding: 348 348 287
Width: 599
Flags: MW
HStem: -10 116<267.5 329.5> 604 117<287.5 339.5> 758 21G<120 120 120 230 381 381 381 493>
VStem: 23 147<210.5 224> 45 146<509.5 551 509.5 574> 421 147<157.5 202.5 135.5 212.5>
LayerCount: 2
Fore
SplineSet
23 224 m 1xf4
 170 224 l 1xf4
 170 138 225 106 310 106 c 0
 371 106 421 128 421 187 c 0
 421 238 391 255 353 272 c 0
 335 280 311 289 282 298 c 0
 192 327 104 364 63 441 c 0
 51 464 45 491 45 522 c 0
 45 626 119 681 201 706 c 0
 233 716 268 721 307 721 c 0
 426 721 511 670 549 589 c 0
 561 562 568 533 568 501 c 1
 422 501 l 1
 422 570 375 604 304 604 c 0
 242 604 191 581 191 521 c 0xec
 191 498 203 478 227 462 c 0
 251 446 286 432 332 418 c 0
 427 389 517 350 553 266 c 0
 563 243 568 217 568 188 c 0
 568 83 501 28 417 4 c 0
 385 -5 349 -10 310 -10 c 0
 173 -10 71 49 35 151 c 0
 27 173 23 197 23 224 c 1xf4
120 758 m 1
 120 766 l 1
 265 901 l 1
 347 901 l 1
 493 764 l 1
 493 758 l 1
 381 758 l 1
 306 829 l 1
 230 758 l 1
 120 758 l 1
EndSplineSet
Substitution2: "<3,3> Small Caps in Latin lookup 0 subtable" Scircumflex.smcp
EndChar

StartChar: scircumflex
Encoding: 349 349 288
Width: 503
Flags: MW
HStem: -10 100<224.5 274.5 224.5 283> 438 100<227 273> 730 20G<212 294 294 294>
VStem: 38 136<364.5 399 364.5 399.5> 334 138<126 163>
LayerCount: 2
Fore
SplineSet
21 168 m 1
 155 168 l 1
 158 115 197 90 252 90 c 0
 297 90 334 106 334 146 c 0
 334 180 308 190 280 200 c 0
 266 205 248 209 226 213 c 0
 152 229 83 257 52 314 c 0
 43 331 38 351 38 374 c 0
 38 425 64 463 94 489 c 0
 130 519 183 538 249 538 c 0
 349 538 421 502 454 436 c 0
 464 415 470 393 470 368 c 1
 329 368 l 1
 329 414 298 438 248 438 c 0
 206 438 174 418 174 380 c 0
 174 349 201 337 226 329 c 0
 262 317 316 309 352 297 c 0
 398 282 434 256 456 218 c 0
 466 200 472 178 472 152 c 0
 472 99 444 61 411 36 c 0
 372 7 317 -10 249 -10 c 0
 145 -10 69 34 36 104 c 0
 26 125 21 147 21 168 c 1
67 607 m 1
 67 615 l 1
 212 750 l 1
 294 750 l 1
 440 613 l 1
 440 607 l 1
 328 607 l 1
 253 678 l 1
 177 607 l 1
 67 607 l 1
EndSplineSet
Substitution2: "<3,3> Small Caps in Latin lookup 0 subtable" Scircumflex.smcp
EndChar

StartChar: Scedilla
Encoding: 350 350 289
Width: 599
Flags: MW
HStem: -226 82<258 269.5 254 272> -6 112<253 340.5> 604 117<287.5 339.5>
VStem: 23 147<210.5 224> 45 146<509.5 551 509.5 574> 309 119<-119 -87.5> 421 147<157.5 202.5 125.5 212.5>
LayerCount: 2
Fore
SplineSet
23 224 m 1xf2
 23 197 27 173 35 151 c 0
 66 64 145 8 253 -6 c 1
 240 -66 l 1
 277 -69 309 -71 309 -104 c 0
 309 -134 285 -144 254 -144 c 1
 258 -226 l 1
 286 -226 310 -224 331 -218 c 0
 383 -204 428 -172 428 -109 c 0xf4
 428 -59 398 -31 355 -25 c 1
 358 -7 l 1
 473 4 568 63 568 188 c 0
 568 217 563 243 553 266 c 0
 517 350 427 389 332 418 c 0
 286 432 251 446 227 462 c 0
 203 478 191 498 191 521 c 0
 191 581 242 604 304 604 c 0
 375 604 422 570 422 501 c 1
 568 501 l 1
 568 533 561 562 549 589 c 0
 511 670 426 721 307 721 c 0
 268 721 233 716 201 706 c 0
 119 681 45 626 45 522 c 0xea
 45 491 51 464 63 441 c 0
 104 364 192 327 282 298 c 0
 311 289 335 280 353 272 c 0
 391 255 421 238 421 187 c 0
 421 128 371 106 310 106 c 0
 225 106 170 138 170 224 c 1
 23 224 l 1xf2
EndSplineSet
Substitution2: "<3,3> Small Caps in Latin lookup 0 subtable" Scedilla.smcp
EndChar

StartChar: scedilla
Encoding: 351 351 290
Width: 504
Flags: MW
HStem: -230 82<206 217.5 202 220> 438 100<228 274>
VStem: 39 136<364.5 399 364.5 399.5> 257 119<-123 -91.5> 335 138<126 163>
LayerCount: 2
Fore
SplineSet
22 168 m 1xe8
 22 147 27 125 37 104 c 0
 65 45 123 5 202 -7 c 1
 188 -70 l 1
 225 -73 257 -75 257 -108 c 0
 257 -138 233 -148 202 -148 c 1
 206 -230 l 1
 234 -230 258 -228 279 -222 c 0
 331 -208 376 -176 376 -113 c 0xf0
 376 -63 346 -35 303 -29 c 1
 307 -6 l 1
 349 1 385 16 412 36 c 0
 445 61 473 99 473 152 c 0
 473 178 467 200 457 218 c 0
 435 256 399 282 353 297 c 0
 317 309 263 317 227 329 c 0
 202 337 175 349 175 380 c 0
 175 418 207 438 249 438 c 0
 299 438 330 414 330 368 c 1
 471 368 l 1
 471 393 465 415 455 436 c 0
 422 502 350 538 250 538 c 0
 184 538 131 519 95 489 c 0
 65 463 39 425 39 374 c 0
 39 351 44 331 53 314 c 0
 84 257 153 229 227 213 c 0
 249 209 267 205 281 200 c 0
 309 190 335 180 335 146 c 0
 335 106 298 90 253 90 c 0
 198 90 159 115 156 168 c 1
 22 168 l 1xe8
EndSplineSet
Substitution2: "<3,3> Small Caps in Latin lookup 0 subtable" Scedilla.smcp
EndChar

StartChar: Scaron
Encoding: 352 352 291
Width: 599
Flags: MW
HStem: -10 116<267.5 329.5> 604 117<287.5 339.5> 759 21G<261 350 261 261>
VStem: 23 147<210.5 224> 45 146<509.5 551 509.5 574> 421 147<157.5 202.5 135.5 212.5>
LayerCount: 2
Fore
SplineSet
23 224 m 1xf4
 170 224 l 1xf4
 170 138 225 106 310 106 c 0
 371 106 421 128 421 187 c 0
 421 238 391 255 353 272 c 0
 335 280 311 289 282 298 c 0
 192 327 104 364 63 441 c 0
 51 464 45 491 45 522 c 0
 45 626 119 681 201 706 c 0
 233 716 268 721 307 721 c 0
 426 721 511 670 549 589 c 0
 561 562 568 533 568 501 c 1
 422 501 l 1
 422 570 375 604 304 604 c 0
 242 604 191 581 191 521 c 0xec
 191 498 203 478 227 462 c 0
 251 446 286 432 332 418 c 0
 427 389 517 350 553 266 c 0
 563 243 568 217 568 188 c 0
 568 83 501 28 417 4 c 0
 385 -5 349 -10 310 -10 c 0
 173 -10 71 49 35 151 c 0
 27 173 23 197 23 224 c 1xf4
114 897 m 1
 114 901 l 1
 234 901 l 1
 306 832 l 1
 377 901 l 1
 498 901 l 1
 498 896 l 1
 350 759 l 1
 261 759 l 1
 114 897 l 1
EndSplineSet
Substitution2: "<3,3> Small Caps in Latin lookup 0 subtable" Scaron.smcp
EndChar

StartChar: scaron
Encoding: 353 353 292
Width: 503
Flags: MW
HStem: -10 100<224.5 274.5 224.5 283> 438 100<227 273> 730 20G<60 180 180 180 323 444 444 444>
VStem: 38 136<364.5 399 364.5 399.5> 334 138<126 163>
LayerCount: 2
Fore
SplineSet
21 168 m 1
 155 168 l 1
 158 115 197 90 252 90 c 0
 297 90 334 106 334 146 c 0
 334 180 308 190 280 200 c 0
 266 205 248 209 226 213 c 0
 152 229 83 257 52 314 c 0
 43 331 38 351 38 374 c 0
 38 425 64 463 94 489 c 0
 130 519 183 538 249 538 c 0
 349 538 421 502 454 436 c 0
 464 415 470 393 470 368 c 1
 329 368 l 1
 329 414 298 438 248 438 c 0
 206 438 174 418 174 380 c 0
 174 349 201 337 226 329 c 0
 262 317 316 309 352 297 c 0
 398 282 434 256 456 218 c 0
 466 200 472 178 472 152 c 0
 472 99 444 61 411 36 c 0
 372 7 317 -10 249 -10 c 0
 145 -10 69 34 36 104 c 0
 26 125 21 147 21 168 c 1
60 746 m 1
 60 750 l 1
 180 750 l 1
 252 681 l 1
 323 750 l 1
 444 750 l 1
 444 745 l 1
 296 608 l 1
 207 608 l 1
 60 746 l 1
EndSplineSet
Substitution2: "<3,3> Small Caps in Latin lookup 0 subtable" Scaron.smcp
EndChar

StartChar: Tcedilla
Encoding: 354 354 293
Width: 627
Flags: MW
HStem: -223 82<262 273.5 258 276> 592 119<23 602 23 237 384 384 384 602>
VStem: 237 147<0 592 0 592> 313 119<-116 -84.5>
LayerCount: 2
Fore
SplineSet
23 592 m 1xe0
 23 711 l 1
 602 711 l 1
 602 592 l 1
 384 592 l 1
 384 0 l 1xe0
 363 0 l 1
 359 -22 l 1
 402 -28 432 -56 432 -106 c 0
 432 -169 387 -200 335 -214 c 0
 314 -220 290 -223 262 -223 c 1
 258 -141 l 1
 289 -141 313 -131 313 -101 c 0xd0
 313 -68 281 -66 244 -63 c 1
 258 0 l 1
 237 0 l 1
 237 592 l 1
 23 592 l 1xe0
EndSplineSet
EndChar

StartChar: tcedilla
Encoding: 355 355 294
Width: 375
Flags: MW
HStem: -226 82<182 193.5 178 196> 425 103<23 100 23 100 241 331>
VStem: 100 141<146 161 161 425 528 658> 233 119<-119 -87.5>
LayerCount: 2
Fore
SplineSet
23 425 m 1xe0
 23 528 l 1
 100 528 l 1
 100 658 l 1
 241 658 l 1
 241 528 l 1
 331 528 l 1
 331 425 l 1
 241 425 l 1
 241 161 l 2xe0
 241 122 256 106 295 106 c 0
 311 106 325 107 337 110 c 1
 337 3 l 1
 319 -2 302 -6 282 -8 c 1
 279 -25 l 1
 322 -31 352 -59 352 -109 c 0
 352 -172 308 -204 256 -218 c 0
 235 -224 210 -226 182 -226 c 1
 178 -144 l 1
 209 -144 233 -134 233 -104 c 0xd0
 233 -71 201 -69 164 -66 c 1
 179 2 l 1
 126 23 100 71 100 146 c 2
 100 425 l 1
 23 425 l 1xe0
EndSplineSet
EndChar

StartChar: Tcaron
Encoding: 356 356 295
Width: 627
Flags: MW
HStem: 0 21G<237 384 237 237> 592 119<23 602 23 237 384 384 384 602> 759 21G<265 354 265 265>
VStem: 237 147<0 592 0 592>
LayerCount: 2
Fore
SplineSet
23 592 m 1
 23 711 l 1
 602 711 l 1
 602 592 l 1
 384 592 l 1
 384 0 l 1
 237 0 l 1
 237 592 l 1
 23 592 l 1
118 897 m 1
 118 901 l 1
 238 901 l 1
 310 832 l 1
 381 901 l 1
 502 901 l 1
 502 896 l 1
 354 759 l 1
 265 759 l 1
 118 897 l 1
EndSplineSet
Substitution2: "<3,3> Small Caps in Latin lookup 0 subtable" Tcaron.smcp
EndChar

StartChar: tcaron
Encoding: 357 357 296
Width: 484
Flags: MW
HStem: -10 116<200 303> 425 103<23 100 23 100 241 331>
VStem: 100 141<146 161 161 425 528 658> 350 112<737 813 718 813>
LayerCount: 2
Fore
SplineSet
23 425 m 1
 23 528 l 1
 100 528 l 1
 100 658 l 1
 241 658 l 1
 241 528 l 1
 331 528 l 1
 331 425 l 1
 241 425 l 1
 241 161 l 2
 241 122 256 106 295 106 c 0
 311 106 325 107 337 110 c 1
 337 3 l 1
 311 -4 285 -10 251 -10 c 0
 149 -10 100 43 100 146 c 2
 100 425 l 1
 23 425 l 1
306 594 m 1
 329 633 350 675 350 737 c 2
 350 813 l 1
 462 813 l 1
 462 737 l 2
 462 699 450 666 436 638 c 0
 421 606 398 578 373 556 c 1
 306 594 l 1
EndSplineSet
Substitution2: "<3,3> Small Caps in Latin lookup 0 subtable" Tcaron.smcp
EndChar

StartChar: Tbar
Encoding: 358 358 297
Width: 627
Flags: MW
HStem: 0 21G<237 384 237 237> 366 89<132 237 132 237 384 474> 592 119<23 602 23 237 384 384 384 602>
VStem: 237 147<0 366 0 366 455 592>
LayerCount: 2
Fore
SplineSet
23 592 m 1
 23 711 l 1
 602 711 l 1
 602 592 l 1
 384 592 l 1
 384 455 l 1
 474 455 l 1
 474 366 l 1
 384 366 l 1
 384 0 l 1
 237 0 l 1
 237 366 l 1
 132 366 l 1
 132 455 l 1
 237 455 l 1
 237 592 l 1
 23 592 l 1
EndSplineSet
Substitution2: "<3,3> Small Caps in Latin lookup 0 subtable" Tbar.smcp
EndChar

